<svg xmlns="http://www.w3.org/2000/svg" viewBox="0 0 250.55 281.47"><defs><style>.cls-1,.cls-4{fill:#97eaf2;}.cls-1,.cls-10,.cls-11,.cls-2,.cls-4,.cls-5,.cls-6,.cls-7,.cls-8,.cls-9{stroke:#ac4351;}.cls-1,.cls-2,.cls-4,.cls-5,.cls-7,.cls-8{stroke-miterlimit:10;}.cls-1,.cls-10,.cls-11,.cls-12,.cls-13,.cls-2,.cls-4,.cls-6,.cls-7,.cls-8,.cls-9{stroke-width:5px;}.cls-13,.cls-2,.cls-3,.cls-6,.cls-7{fill:#52d3df;}.cls-11,.cls-12,.cls-13,.cls-4,.cls-6,.cls-7,.cls-9{stroke-linecap:round;}.cls-10,.cls-5,.cls-8,.cls-9{fill:#dfc153;}.cls-5{stroke-width:2px;}.cls-10,.cls-11,.cls-12,.cls-13,.cls-6,.cls-9{stroke-linejoin:round;}.cls-11,.cls-12{fill:none;}.cls-12,.cls-13{stroke:#dfc153;}</style></defs><g id="Layer_2" data-name="Layer 2"><g id="Layer_4" data-name="Layer 4"><g id="backpack"><path class="cls-1" d="M23.11,83.83C24.62,64.85,37.53,48,54,38.36s35.94-12.81,55-12.74c14.17.05,29.25,2.17,40,11.37,14.75,12.58,17.12,34.41,15.63,53.74s.59,47.19-.26,58.21c-1.4,18.26-2.21,26.11,2.16,35.85,5.69,12.7,7.31,26.79,8.86,40.62,1.23,11,2.2,23-4.13,32.06-5.85,8.34-17,11.91-27.09,10.47a36.41,36.41,0,0,1-24.83-15.56c-.45-6.36-4.72-11.88-9.76-15.78s-10.93-6.53-16.35-9.87c-23.14-14.25-36.45-40.17-44.86-66S35.18,107.71,23.11,83.83Z"/><path class="cls-2" d="M24.34,73.31A107.28,107.28,0,0,1,88.87,45.36c9.18-.66,18.9,0,26.7,4.91C123.18,55,128,63.33,130.62,71.94c9.91,33.07-10.28,69.44-1,102.69,2.14,7.65,5.8,14.92,6.72,22.8,1.24,10.7-2.69,21.22-5.4,31.65s-4,22.27,1.86,31.33c-5,2.67-11.29.59-16.13-2.42s-9.26-7-14.78-8.42c-7-1.82-14.32.84-21.47,2-25,4.22-50.72-10.51-64.14-32s-16-48.37-12.22-73.43S17.45,97.37,24.34,73.31Z"/><path class="cls-2" d="M20.85,190.24c.15,6.36.31,12.8,2.11,18.9S28.45,221,34.07,224c5.15,2.72,11.23,2.79,17,2.8l48.87.06c5.09,0,10.68-.18,14.44-3.61,5.93-5.41,3.7-15.06,1-22.63l-.29.18"/><path class="cls-3" d="M67,33.71a43,43,0,0,0-10.43,8.08c10.65.36,21.22-1.59,31.75-3.21s21.28-2.92,31.81-1.29,21,6.54,27.15,15.21c5.78,8.1,7.28,18.61,6.34,28.52s-4.09,19.45-6.89,29c-3.27,11.13-6.1,22.66-5.13,34.22,1,11.27,5.47,21.88,8.57,32.75s4.75,22.9.82,34.21c8.49,15.05,6.31,35.4-5.19,48.3-1.21,1.36-2.61,3.11-1.9,4.79a4.09,4.09,0,0,0,3,2c7.3,1.72,15.17-1.88,19.94-7.66s6.86-13.39,7.42-20.87c1.73-22.86-9.27-44.63-12.57-67.32-3.71-25.54,2.43-51.37,3.64-77.16.46-9.81.19-19.76-2.35-29.25s-7.48-18.55-15.13-24.72c-7.39-6-16.78-8.87-26.13-10.5C101.2,25.21,82.67,28.25,67,33.71Z"/><path class="cls-4" d="M21.24,189.45c4.67.82,9.35,1.63,14.08,2.06l82.28,9.64c.1-11.64-.49-24.87-9.32-32.45-4.9-4.2-11.44-5.78-17.72-7.24L47.1,151.4c-7.56-1.75-15.81-3.44-22.8-.09-6.8,3.26-10.82,10.86-11.22,18.39A23.86,23.86,0,0,0,21.24,189.45Z"/><path class="cls-2" d="M199.83,240.93c10.69,6.49,24.59,5.11,35.75,10.75a31.15,31.15,0,0,1,10.93,9.2L248,276a3.16,3.16,0,0,1-.39,2.35c-.66.79-1.89.72-2.91.52-6.82-1.38-12.73-5.52-18.12-9.91s-10.57-9.2-16.8-12.29-13.89-4.25-20.08-1.09C189,253.57,188.31,251.6,199.83,240.93Z"/><path class="cls-5" d="M235,261.73a3.6,3.6,0,0,0-2.46,4.65,3.66,3.66,0,0,0,5,1.73,3.74,3.74,0,0,0,1.17-5.18C237.56,261.3,235,260.93,235,261.73Z"/><path class="cls-6" d="M164.94,68.27c.54,25.59-2.81,51.18-2.27,76.77.18,9,.38,18,2.32,26.72,2.63,11.84,11.44,23.68,8.83,35.53,5.09-8.27,2.81-18.29,3.41-27.9q1.19-19,2.36-38c.81-13.06,1.62-26.25-.45-39.18S175.76,76.46,164.94,68.27Z"/><path class="cls-2" d="M151.28,38.14c10.1,9.71,17.25,22.49,25.47,33.83s14.48,24.45,15.79,38.39c2.36,25-3.47,93.72-4.78,103.48-2.25,16.71-18.46,29.2-19.92,46,10.86,3.35,23.08-2.07,30.15-11s9.73-20.58,10.23-31.93-1-22.7-1.14-34.06c-.36-23.83,4.92-47.46,4.94-71.29s-6.44-49.53-25.1-64.35C175.22,38,162.46,31,151.28,38.14Z"/><path class="cls-7" d="M140.05,31c4.44,1.64,1.83-10.46-1.47-14.18s-8-5.33-12.47-6.81C114.27,6.08,102,2.14,89.77,4.17S65.45,16,63.9,29.72A60,60,0,0,1,85,25.62c-.62-2.84-.38-5.77,1.92-7.12s5-1.5,7.59-1.62l24.87-1.13c2.88-.13,6.36.1,7.76,2.93.66,1.34.66,2.95,1.06,4.4a9.21,9.21,0,0,0,6.11,6.07C137.07,30.06,139.17,30.65,140.05,31Z"/><path class="cls-7" d="M103.27,151.75,92,152A260.63,260.63,0,0,0,85,207.29l8.19-1.11C97,188,100.76,169.89,103.27,151.75Z"/><path class="cls-7" d="M52.07,143.4l-11.29.26a260.63,260.63,0,0,0-7,55.28l8.2-1.11C45.79,179.69,49.55,161.54,52.07,143.4Z"/><path class="cls-8" d="M164.94,96.33c5,.2,6.5,3.39,11.48,3.59a157.15,157.15,0,0,1-.24,64c-1.64,7.72-3.86,15.77-1.67,23.35.61,2.09,1.55,4.16,1.48,6.34s-1.66,4.53-3.84,4.45c-1.93-.07-3.27-1.91-4.13-3.64-6.34-12.68-4.73-28.51-5.41-42.67A281.65,281.65,0,0,1,164.94,96.33Z"/><path class="cls-8" d="M95.61,2.64,94.16,14.89a75.5,75.5,0,0,0,21.62,1.67l1-11.56A56.79,56.79,0,0,0,95.61,2.64Z"/><path class="cls-8" d="M208.28,83.69c-7.25,2.07-13.75,3.64-21,5.71C195.52,102.21,192.85,119,190,134c-6.61,34.29-.91,60.73-2.31,71.32-.6,4.53-2.37,9.14-1.08,13.52,2.36,8,9.15,10.79,17.46,11.16C203.31,215.69,225.19,130.44,208.28,83.69Z"/><path class="cls-9" d="M41.19,163.17l-10.38,0,1,13.45A103,103,0,0,1,52,180.77c-1.56-3.82,2.61-7.94,1.8-12-.48-2.41-2.7-4.18-5.07-4.85S43.81,163.49,41.19,163.17Z"/><path class="cls-10" d="M87.93,170.36l-6.88,1.34-.28,12a101.62,101.62,0,0,0,24.08,2.68,48.7,48.7,0,0,1-.27-13.64C97.24,172.86,89.89,172.18,87.93,170.36Z"/><path class="cls-11" d="M32.38,63a62.11,62.11,0,0,0,5.76,16.59"/><path class="cls-11" d="M49.76,51.74a133.43,133.43,0,0,0,.72,17"/><path class="cls-11" d="M73.81,43.14A186.17,186.17,0,0,0,63.9,63.41"/><path class="cls-11" d="M89.26,43.18,83.54,61.46"/><path class="cls-11" d="M100.88,68.64a99.41,99.41,0,0,1,18.51-14.89"/><path class="cls-11" d="M112.21,87.16a119.71,119.71,0,0,1,23-10.41"/><path class="cls-11" d="M117.08,108a59.39,59.39,0,0,0,19.13-3"/><path class="cls-11" d="M112.25,133.66l18.13-4"/><path class="cls-11" d="M114,153.18a47,47,0,0,0,13.24-3.31"/><path class="cls-11" d="M29.81,83.44c6.77-20.31,51-25.27,51-25.27A42.83,42.83,0,0,1,112,71.89c11,12.1,12.67,29.93,11.85,46.26a210.15,210.15,0,0,1-6.91,43.95"/><path class="cls-11" d="M59.93,40.68a340.34,340.34,0,0,1,48.92-2.39c13.76.32,29.29,2.43,37.39,13.55,6.5,8.92,6.13,21,4.9,32a313,313,0,0,1-11.31,55.37"/><path class="cls-11" d="M153.63,225.77q-1.33-30.33-5.11-60.5"/><path class="cls-6" d="M149.46,248.07a29.62,29.62,0,0,0,7.33-15.14"/><path class="cls-6" d="M157.21,252.89a21.64,21.64,0,0,0,5.23-11.12"/><path class="cls-12" d="M57.25,80.85c-2.57,3.26-6.87,4.46-10.77,5.88s-8.06,3.75-9.09,7.77a14.58,14.58,0,0,0-.11,4.89l2.25,24.34"/><path class="cls-13" d="M67.19,84.23a229.86,229.86,0,0,0,2.62,42.82"/><path class="cls-12" d="M99.92,88.15a170.59,170.59,0,0,0,5.19,31.5,296.93,296.93,0,0,1-37.17,15.53"/><path class="cls-11" d="M61.3,83.13c-2.57,3.26-6.87,4.46-10.77,5.89s-8.06,3.74-9.09,7.76a14.64,14.64,0,0,0-.11,4.9L43.58,126"/><path class="cls-6" d="M71.24,86.51a229.86,229.86,0,0,0,2.62,42.82"/><path class="cls-11" d="M104,90.43a170.59,170.59,0,0,0,5.19,31.5A297.56,297.56,0,0,1,72,137.46"/></g></g></g></svg>