<svg xmlns="http://www.w3.org/2000/svg" xmlns:xlink="http://www.w3.org/1999/xlink" viewBox="0 0 591.5 369.81"><defs><style>.cls-1{fill:none;}.cls-2{clip-path:url(#clip-path);}.cls-3{fill:#d9f4ff;fill-rule:evenodd;}</style><clipPath id="clip-path" transform="translate(-0.4 -446.32)"><rect class="cls-1" width="684.41" height="621.93"/></clipPath></defs><g id="Layer_2" data-name="Layer 2"><g id="Layer_1-2" data-name="Layer 1"><g class="cls-2"><g id="Wave_Header" data-name="Wave Header"><path id="Path_45" data-name="Path 45" class="cls-3" d="M212.35,497.2c-55.87,14.29-128.83,1.18-169.81,30.37C1.28,557-7.37,604.48,6.61,643.75c13.15,36.89,72.47,55.28,107.6,85,30.35,25.68,41.59,62.41,84.77,77.75,43.75,15.54,96.37,8.67,145.37,4,48.7-4.65,98.92-10.08,137-31,38.43-21.08,56.17-53.33,73.59-84.51,18.51-33.11,50.69-69.19,30.57-101.87S494.81,559.38,456.4,535c-40.67-25.85-45.68-79.17-100.28-87.61C302.45,439,263.8,484,212.35,497.2Z" transform="translate(-0.4 -446.32)"/></g></g></g></g></svg>