<svg xmlns="http://www.w3.org/2000/svg" viewBox="0 0 155 155"><defs><style>.cls-1{fill:#ffffe9;stroke:#fff;stroke-miterlimit:10;stroke-width:5px;}.cls-2{fill:#ffc7cb;}.cls-3{fill:#ef9ea4;}.cls-4{fill:#fff;}.cls-5{fill:#f9e8e9;}.cls-6{fill:#f38e91;}</style></defs><g id="Layer_2" data-name="Layer 2"><g id="Layer_1-2" data-name="Layer 1"><circle class="cls-1" cx="77.5" cy="77.5" r="75"/><g id="Page-1"><g id="_026---Idea" data-name="026---Idea"><path id="Shape" class="cls-2" d="M69.15,107.71l-.77,9.36H31.25a3.45,3.45,0,0,1-3.39-4.1L35.4,74.28a1.72,1.72,0,0,1,1.69-1.39h4.78l-5.73,34.46a1.73,1.73,0,0,0,.58,1.57,1.69,1.69,0,0,0,1.64.35,59,59,0,0,1,30.79-1.56Z"/><path id="Shape-2" data-name="Shape" class="cls-2" d="M122.72,117.07H85.59l-.77-9.36a59,59,0,0,1,30.79,1.56,1.74,1.74,0,0,0,2.22-1.92L112.1,72.89h4.78a1.72,1.72,0,0,1,1.69,1.39L126.11,113a3.45,3.45,0,0,1-3.39,4.1Z"/><path id="Shape-3" data-name="Shape" class="cls-3" d="M126.11,113l-7.54-38.69a1.72,1.72,0,0,0-1.69-1.39H112.1V73a1.72,1.72,0,0,1,1.3,1.32L121,113a3.45,3.45,0,0,1-3.39,4.1h5.16a3.45,3.45,0,0,0,3.39-4.1Z"/><path id="Shape-4" data-name="Shape" class="cls-4" d="M115.61,109.27a59,59,0,0,0-30.79-1.56A39,39,0,0,0,77,110.19a39.26,39.26,0,0,0-7.84-2.48,59,59,0,0,0-30.79,1.56,1.69,1.69,0,0,1-1.64-.35,1.73,1.73,0,0,1-.58-1.57l5.73-34.46L42.35,70a1.74,1.74,0,0,1,1.45-1.43c1.17-.17,2.38-.34,3.58-.48A12.27,12.27,0,0,0,62.54,74a9.06,9.06,0,0,0,15.44,3,15,15,0,0,0,5.41,1h.1c.36,3.1,2,4.92,7.39,6.73a9.38,9.38,0,0,1,4.26,2.82,3.66,3.66,0,0,0,4.22,1.08,3.57,3.57,0,0,0,2.17-3.28,3.67,3.67,0,0,0-.17-1.1,15,15,0,0,0-2.27-4.58,12.78,12.78,0,0,0,6.52-9,9,9,0,0,0,1.6-2.52c1,.12,2,.24,3,.4A1.74,1.74,0,0,1,111.62,70l.48,2.91,5.73,34.46a1.74,1.74,0,0,1-2.22,1.92Z"/><path id="Shape-5" data-name="Shape" class="cls-5" d="M117.83,107.35,112.1,72.89,111.62,70a1.74,1.74,0,0,0-1.45-1.43c-1-.16-2-.28-3-.4a8.92,8.92,0,0,1-.86,1.54,2.47,2.47,0,0,1,.1.29l.48,2.91,5.73,34.46a1.61,1.61,0,0,1-.17,1c1,.27,2.07.56,3.11.9a1.76,1.76,0,0,0,1.65-.35A1.7,1.7,0,0,0,117.83,107.35Z"/><path id="Shape-6" data-name="Shape" class="cls-2" d="M85.59,117.07c0,1.89-3.85,3.44-8.6,3.44s-8.61-1.55-8.61-3.44l.77-9.36A39.26,39.26,0,0,1,77,110.19a39,39,0,0,1,7.83-2.48Z"/><path id="Shape-7" data-name="Shape" class="cls-5" d="M108,64.56a8.7,8.7,0,0,1-.76,3.59,9,9,0,0,1-1.6,2.52,12.78,12.78,0,0,1-6.52,9,15,15,0,0,1,2.27,4.58,3.67,3.67,0,0,1,.17,1.1,3.57,3.57,0,0,1-2.17,3.28,3.66,3.66,0,0,1-4.22-1.08,9.38,9.38,0,0,0-4.26-2.82c-5.41-1.81-7-3.63-7.39-6.73h-.1a15,15,0,0,1-5.41-1,9.06,9.06,0,0,1-15.44-3,12.3,12.3,0,0,1-14.09-18.9,5,5,0,0,1-.31-1.75,5.35,5.35,0,0,1,4.3-5.27c0-.21,0-.41,0-.64a7,7,0,0,1,7-6.95,6.71,6.71,0,0,1,3,.69,10.18,10.18,0,0,1,8.75-5,10,10,0,0,1,6.67,2.53,5.34,5.34,0,0,1,9.47.78,12.25,12.25,0,0,1,1.48-.09,12.84,12.84,0,0,1,12.77,11.78h.06a5.33,5.33,0,0,1,5.33,5.35,5.45,5.45,0,0,1-.69,2.65A9.14,9.14,0,0,1,108,64.56Z"/><path id="Shape-8" data-name="Shape" class="cls-2" d="M106.21,59.17a5.45,5.45,0,0,0,.69-2.65,5.33,5.33,0,0,0-5.33-5.35h-.06A12.84,12.84,0,0,0,88.74,39.39a12.25,12.25,0,0,0-1.48.09,5.32,5.32,0,0,0-7.52-2.63,5.31,5.31,0,0,1,2.36,2.63,12.12,12.12,0,0,1,1.48-.09A12.84,12.84,0,0,1,96.35,51.17h.05a5.33,5.33,0,0,1,5.34,5.35,5.57,5.57,0,0,1-.69,2.65,9.07,9.07,0,0,1,1.75,5.39,8.69,8.69,0,0,1-.75,3.59,9,9,0,0,1-1.6,2.52,12.82,12.82,0,0,1-6.53,9,15,15,0,0,1,2.27,4.58,3.38,3.38,0,0,1,.18,1.1,3.59,3.59,0,0,1-1,2.42,3.55,3.55,0,0,0,6.16-2.42,3.67,3.67,0,0,0-.17-1.1,15,15,0,0,0-2.27-4.58,12.78,12.78,0,0,0,6.52-9,9,9,0,0,0,1.6-2.52,8.7,8.7,0,0,0,.76-3.59,9.14,9.14,0,0,0-1.76-5.39Z"/><path id="Shape-9" data-name="Shape" class="cls-4" d="M60,74.29a12.37,12.37,0,0,1-6.4-19.22,5.36,5.36,0,0,1,4-7A6.91,6.91,0,0,1,62,41a7,7,0,0,0-9.51,7.08,5.36,5.36,0,0,0-4,7c-5.62,7.45-1.61,20.12,12.6,20.22"/><path id="Shape-10" data-name="Shape" class="cls-4" d="M41.87,72.89H37.09a1.72,1.72,0,0,0-1.69,1.39L27.86,113a3.45,3.45,0,0,0,3.39,4.1h5.17A3.44,3.44,0,0,1,33,113l7.53-38.69a1.72,1.72,0,0,1,1.69-1.39"/><path id="Rectangle-path" class="cls-4" d="M31.1,87.45l2.63-13.52,3.38.66L34.48,88.11Z"/><path id="Shape-11" data-name="Shape" class="cls-6" d="M34.13,82.76a1.72,1.72,0,1,1,0-3.44h0a1.72,1.72,0,1,1,0,3.44Z"/><path id="Shape-12" data-name="Shape" class="cls-6" d="M120.26,74a3.44,3.44,0,0,0-3.38-2.79h-3.32l-.24-1.47a3.47,3.47,0,0,0-2.88-2.85l-1-.13A10.55,10.55,0,0,0,108.15,59a7.05,7.05,0,0,0-5.1-9.42A14.65,14.65,0,0,0,88.74,37.67l-.49,0a7,7,0,0,0-10.71-1.33,11.81,11.81,0,0,0-15.82,2.72,8.57,8.57,0,0,0-11,7.7,7.09,7.09,0,0,0-4.34,6.53,6.63,6.63,0,0,0,.17,1.47,13.85,13.85,0,0,0-1.65,11.87l-1.38.19a3.46,3.46,0,0,0-2.9,2.85l-.24,1.47H37.09A3.44,3.44,0,0,0,33.71,74a1.75,1.75,0,0,0,.26,1.3,1.79,1.79,0,0,0,1.11.72,1.66,1.66,0,0,0,.32,0,1.72,1.72,0,0,0,1.69-1.4h2.75l-5.4,32.47a3.45,3.45,0,0,0,4.44,3.84,57.61,57.61,0,0,1,28.43-1.8l-.51,6.24H31.25a1.73,1.73,0,0,1-1.34-.63,1.72,1.72,0,0,1-.36-1.41l4.91-25.18a1.72,1.72,0,0,0-3.38-.66l-4.91,25.17a5.2,5.2,0,0,0,1.09,4.28,5.14,5.14,0,0,0,4,1.87h35.9c1.42,2.35,5.75,3.44,9.84,3.44s8.32-1.06,9.79-3.44h35.94a5.14,5.14,0,0,0,4-1.87,5.19,5.19,0,0,0,1.09-4.27ZM53.48,49.67a3.59,3.59,0,0,1,2.89,1.46,1.72,1.72,0,1,0,2.77-2.05,7,7,0,0,0-4.88-2.75,5.21,5.21,0,0,1,5.1-4.14l.63.06c-.14.36-.26.72-.37,1.08a1.72,1.72,0,0,0,3.34.86A8.08,8.08,0,0,1,63.85,42a8.52,8.52,0,0,1,7.26-4.15,8.42,8.42,0,0,1,4.56,1.38,7,7,0,0,0-.41,2.26,1.73,1.73,0,0,0,3.45,0,3.62,3.62,0,0,1,7.24,0,1.72,1.72,0,0,0,3.44,0c0-.13,0-.26,0-.39a11.16,11.16,0,0,1,10.19,8.61,7.12,7.12,0,0,0-2.22,1.11,1.75,1.75,0,0,0-.68,1.59,1.72,1.72,0,0,0,2.74,1.17,3.63,3.63,0,1,1,3.69,6.2,1.72,1.72,0,0,0,.74,3.27,1.84,1.84,0,0,0,.73-.16,6.9,6.9,0,0,0,1.28-.81,7.34,7.34,0,0,1-1.45,7.34l0,.05a7.44,7.44,0,0,1-8.78,1.61,9,9,0,0,1-.84-.52,5.86,5.86,0,0,0,.46-6.06,1.72,1.72,0,0,0-3.08,1.55,2.54,2.54,0,0,1-.83,3.24,2.58,2.58,0,0,1-3.73-1,1.75,1.75,0,0,0-1.44-.95,1.72,1.72,0,0,0-1.64,2.49A5.9,5.9,0,0,0,92,72.81a10,10,0,0,0,2,1.38,10.61,10.61,0,0,0,8,.74,11,11,0,0,1-7.09,4.34,1.72,1.72,0,0,0,.27,3.42l.27,0a14.13,14.13,0,0,0,3.06-.89,15.4,15.4,0,0,1,1.28,3,1.77,1.77,0,0,1,.09.56A1.85,1.85,0,0,1,98.69,87a2,2,0,0,1-2.22-.6,11.08,11.08,0,0,0-5-3.35c-3.72-1.24-5.15-2.36-5.76-3.57a15.76,15.76,0,0,0,2.63-.55,1.73,1.73,0,0,0,1.18-1.26,1.72,1.72,0,0,0-2.19-2,13,13,0,0,1-3,.55,12.76,12.76,0,0,1-5.7-.87,1.73,1.73,0,0,0-1.93.48A7.37,7.37,0,0,1,64.8,67.19a1.73,1.73,0,1,0-3-1.78,11.05,11.05,0,0,0-1,2.22,2.58,2.58,0,0,1-2.44-2.54v0a1.71,1.71,0,0,0-1.72-1.7A1.73,1.73,0,0,0,55,65.09,6,6,0,0,0,60.31,71a11,11,0,0,0,.16,1.72,10.51,10.51,0,0,1-11.9-14.4,6.67,6.67,0,0,0,1.28,1,1.72,1.72,0,0,0,1.77-2.95,3.64,3.64,0,0,1,1.86-6.75Zm-15.64,58,6.21-37.38,2.43-.32a13.9,13.9,0,0,0,15.09,6.12,10.77,10.77,0,0,0,16.89,2.86,16.31,16.31,0,0,0,3.59.65c.83,3.16,3.24,5.07,8.29,6.76a7.67,7.67,0,0,1,3.5,2.31,5.46,5.46,0,0,0,4.16,2,5.1,5.1,0,0,0,2-.42,5.28,5.28,0,0,0,3-6.5,19.4,19.4,0,0,0-1.52-3.5,14.55,14.55,0,0,0,5.72-8.75,12.36,12.36,0,0,0,1-1.38c.57.07,1.15.14,1.73.23l6.21,37.38a59,59,0,0,0-37.42,0V86.09a1.73,1.73,0,0,0-3.45,0v21.55a59.07,59.07,0,0,0-37.42,0ZM77,118.79c-4.15,0-6.53-1.22-6.88-1.77l.59-7.14a35.7,35.7,0,0,1,5.54,1.86,1.72,1.72,0,0,0,1.49,0,36.1,36.1,0,0,1,5.54-1.87l.59,7.15c-.35.55-2.73,1.77-6.87,1.77Zm47.07-4.07a1.73,1.73,0,0,1-1.34.63H87.18l-.52-6.25a57.54,57.54,0,0,1,28.44,1.82,3.46,3.46,0,0,0,4.43-3.86l-5.4-32.45h2.76l7.54,38.69A1.73,1.73,0,0,1,124.06,114.72Z"/><path id="Shape-13" data-name="Shape" class="cls-6" d="M71.28,59.73a1.72,1.72,0,0,0-.12,2.43,10.41,10.41,0,0,0,5.52,3.18,5.14,5.14,0,0,1-4.19,2.16,1.72,1.72,0,1,0,0,3.44,8.52,8.52,0,0,0,8-5.52A10.38,10.38,0,0,0,89,57.16a1.71,1.71,0,0,0-.55-1.65,1.72,1.72,0,0,0-2.83,1,6.8,6.8,0,0,1-2.85,4.37,7,7,0,0,1-9.06-1,1.72,1.72,0,0,0-2.43-.12Z"/><path id="Shape-14" data-name="Shape" class="cls-6" d="M65.28,57.86A1.72,1.72,0,0,0,67,56.14,4.44,4.44,0,0,1,68.31,53a4.49,4.49,0,0,1,3.17-1.32,1.72,1.72,0,0,0,0-3.44,7.94,7.94,0,0,0-7.92,7.92,1.74,1.74,0,0,0,.5,1.22A1.76,1.76,0,0,0,65.28,57.86Z"/><path id="Shape-15" data-name="Shape" class="cls-6" d="M78.71,24.12V22.4a1.73,1.73,0,0,0-3.45,0v1.72a1.73,1.73,0,1,0,3.45,0Z"/><path id="Shape-16" data-name="Shape" class="cls-6" d="M105.23,33l-1.72,1.73a1.7,1.7,0,0,0-.47,1.67,1.74,1.74,0,0,0,1.23,1.23,1.7,1.7,0,0,0,1.67-.47l1.73-1.72a1.73,1.73,0,0,0,.46-1.68,1.71,1.71,0,0,0-1.22-1.23A1.76,1.76,0,0,0,105.23,33Z"/><path id="Shape-17" data-name="Shape" class="cls-6" d="M49.24,37.69a1.72,1.72,0,0,0,1.22-2.93L48.74,33a1.75,1.75,0,0,0-1.67-.47,1.73,1.73,0,0,0-.76,2.91L48,37.19A1.72,1.72,0,0,0,49.24,37.69Z"/><path id="Shape-18" data-name="Shape" class="cls-6" d="M62.49,30.45a1.65,1.65,0,0,0,.66-.13,1.75,1.75,0,0,0,.94-.93,1.77,1.77,0,0,0,0-1.32l-2-4.77a1.72,1.72,0,1,0-3.18,1.32l2,4.77a1.73,1.73,0,0,0,1.59,1.06Z"/><path id="Shape-19" data-name="Shape" class="cls-6" d="M94.11,22.37a1.72,1.72,0,0,0-2.25.93l-2,4.77a1.72,1.72,0,0,0,.93,2.25,1.65,1.65,0,0,0,.66.13,1.73,1.73,0,0,0,1.59-1.06l2-4.77a1.72,1.72,0,0,0-.93-2.25Z"/><path id="Shape-20" data-name="Shape" class="cls-6" d="M112,50.94a1.65,1.65,0,0,0,.66-.13l4.77-2a1.72,1.72,0,1,0-1.32-3.18l-4.77,2a1.72,1.72,0,0,0,.66,3.31Z"/><path id="Shape-21" data-name="Shape" class="cls-6" d="M41.34,50.81a1.72,1.72,0,0,0,1.32-3.18l-4.77-2a1.72,1.72,0,1,0-1.32,3.18Z"/></g></g></g></g></svg>