<svg id="icon" xmlns="http://www.w3.org/2000/svg" viewBox="0 0 155 155">
  <defs>
    <style>
      .cls-2{fill:#ffc7cb}.cls-4{fill:#fff}.cls-5{fill:#f9e8e9}.cls-6{fill:#f38e91}
    </style>
  </defs>
  <g id="Layer_2" data-name="Layer 2">
    <g id="Layer_1-2" data-name="Layer 1">
      <circle cx="77.5" cy="77.5" r="75" fill="#ffffe9" stroke="#fff" stroke-miterlimit="10" stroke-width="5"/>
      <g id="Page-1">
        <g id="_026---Idea" data-name="026---Idea">
          <path id="Shape" class="cls-2" d="M69.15 107.71l-.77 9.36H31.25a3.45 3.45 0 01-3.39-4.1l7.54-38.69a1.72 1.72 0 011.69-1.39h4.78l-5.73 34.46a1.73 1.73 0 00.58 1.57 1.69 1.69 0 001.64.35 59 59 0 0130.79-1.56z"/>
          <path id="Shape-2" data-name="Shape" class="cls-2" d="M122.72 117.07H85.59l-.77-9.36a59 59 0 0130.79 1.56 1.74 1.74 0 002.22-1.92l-5.73-34.46h4.78a1.72 1.72 0 011.69 1.39l7.54 38.72a3.45 3.45 0 01-3.39 4.1z"/>
          <path id="Shape-3" data-name="Shape" d="M126.11 113l-7.54-38.69a1.72 1.72 0 00-1.69-1.39h-4.78V73a1.72 1.72 0 011.3 1.32L121 113a3.45 3.45 0 01-3.39 4.1h5.16a3.45 3.45 0 003.39-4.1z" fill="#ef9ea4"/>
          <path id="Shape-4" data-name="Shape" class="cls-4" d="M115.61 109.27a59 59 0 00-30.79-1.56 39 39 0 00-7.82 2.48 39.26 39.26 0 00-7.84-2.48 59 59 0 00-30.79 1.56 1.69 1.69 0 01-1.64-.35 1.73 1.73 0 01-.58-1.57l5.73-34.46.47-2.89a1.74 1.74 0 011.45-1.43c1.17-.17 2.38-.34 3.58-.48A12.27 12.27 0 0062.54 74a9.06 9.06 0 0015.44 3 15 15 0 005.41 1h.1c.36 3.1 2 4.92 7.39 6.73a9.38 9.38 0 014.26 2.82 3.66 3.66 0 004.22 1.08 3.57 3.57 0 002.17-3.28 3.67 3.67 0 00-.17-1.1 15 15 0 00-2.27-4.58 12.78 12.78 0 006.52-9 9 9 0 001.6-2.52c1 .12 2 .24 3 .4a1.74 1.74 0 011.41 1.45l.48 2.91 5.73 34.46a1.74 1.74 0 01-2.22 1.92z"/>
          <path id="Shape-5" data-name="Shape" class="cls-5" d="M117.83 107.35l-5.73-34.46-.48-2.89a1.74 1.74 0 00-1.45-1.43c-1-.16-2-.28-3-.4a8.92 8.92 0 01-.86 1.54 2.47 2.47 0 01.1.29l.48 2.91 5.73 34.46a1.61 1.61 0 01-.17 1c1 .27 2.07.56 3.11.9a1.76 1.76 0 001.65-.35 1.7 1.7 0 00.62-1.57z"/>
          <path id="Shape-6" data-name="Shape" class="cls-2" d="M85.59 117.07c0 1.89-3.85 3.44-8.6 3.44s-8.61-1.55-8.61-3.44l.77-9.36a39.26 39.26 0 017.85 2.48 39 39 0 017.83-2.48z"/>
          <path id="Shape-7" data-name="Shape" class="cls-5" d="M108 64.56a8.7 8.7 0 01-.76 3.59 9 9 0 01-1.6 2.52 12.78 12.78 0 01-6.52 9 15 15 0 012.27 4.58 3.67 3.67 0 01.17 1.1 3.57 3.57 0 01-2.17 3.28 3.66 3.66 0 01-4.22-1.08 9.38 9.38 0 00-4.26-2.82c-5.41-1.81-7-3.63-7.39-6.73h-.1a15 15 0 01-5.41-1 9.06 9.06 0 01-15.44-3 12.3 12.3 0 01-14.09-18.9 5 5 0 01-.31-1.75 5.35 5.35 0 014.3-5.27v-.64a7 7 0 017-6.95 6.71 6.71 0 013 .69 10.18 10.18 0 018.75-5 10 10 0 016.67 2.53 5.34 5.34 0 019.47.78 12.25 12.25 0 011.48-.09 12.84 12.84 0 0112.77 11.78h.06a5.33 5.33 0 015.33 5.35 5.45 5.45 0 01-.69 2.65 9.14 9.14 0 011.69 5.38z"/>
          <path id="Shape-8" data-name="Shape" class="cls-2" d="M106.21 59.17a5.45 5.45 0 00.69-2.65 5.33 5.33 0 00-5.33-5.35h-.06a12.84 12.84 0 00-12.77-11.78 12.25 12.25 0 00-1.48.09 5.32 5.32 0 00-7.52-2.63 5.31 5.31 0 012.36 2.63 12.12 12.12 0 011.48-.09 12.84 12.84 0 0112.77 11.78h.05a5.33 5.33 0 015.34 5.35 5.57 5.57 0 01-.69 2.65 9.07 9.07 0 011.75 5.39 8.69 8.69 0 01-.75 3.59 9 9 0 01-1.6 2.52 12.82 12.82 0 01-6.53 9 15 15 0 012.27 4.58 3.38 3.38 0 01.18 1.1 3.59 3.59 0 01-1 2.42 3.55 3.55 0 006.16-2.42 3.67 3.67 0 00-.17-1.1 15 15 0 00-2.27-4.58 12.78 12.78 0 006.52-9 9 9 0 001.6-2.52 8.7 8.7 0 00.76-3.59 9.14 9.14 0 00-1.76-5.39z"/>
          <path id="Shape-9" data-name="Shape" class="cls-4" d="M60 74.29a12.37 12.37 0 01-6.4-19.22 5.36 5.36 0 014-7A6.91 6.91 0 0162 41a7 7 0 00-9.51 7.08 5.36 5.36 0 00-4 7c-5.62 7.45-1.61 20.12 12.6 20.22"/>
          <path id="Shape-10" data-name="Shape" class="cls-4" d="M41.87 72.89h-4.78a1.72 1.72 0 00-1.69 1.39L27.86 113a3.45 3.45 0 003.39 4.1h5.17A3.44 3.44 0 0133 113l7.53-38.69a1.72 1.72 0 011.69-1.39"/>
          <path id="Rectangle-path" class="cls-4" d="M31.1 87.45l2.63-13.52 3.38.66-2.63 13.52z"/>
          <path id="Shape-11" data-name="Shape" class="cls-6" d="M34.13 82.76a1.72 1.72 0 110-3.44 1.72 1.72 0 110 3.44z"/>
          <path id="Shape-12" data-name="Shape" class="cls-6" d="M120.26 74a3.44 3.44 0 00-3.38-2.79h-3.32l-.24-1.47a3.47 3.47 0 00-2.88-2.85l-1-.13a10.55 10.55 0 00-1.29-7.76 7.05 7.05 0 00-5.1-9.42 14.65 14.65 0 00-14.31-11.91h-.49a7 7 0 00-10.71-1.33 11.81 11.81 0 00-15.82 2.72 8.57 8.57 0 00-11 7.7 7.09 7.09 0 00-4.34 6.53 6.63 6.63 0 00.17 1.47 13.85 13.85 0 00-1.65 11.87l-1.38.19a3.46 3.46 0 00-2.9 2.85l-.24 1.47h-3.29A3.44 3.44 0 0033.71 74a1.75 1.75 0 00.26 1.3 1.79 1.79 0 001.11.72 1.66 1.66 0 00.32 0 1.72 1.72 0 001.69-1.4h2.75l-5.4 32.47a3.45 3.45 0 004.44 3.84 57.61 57.61 0 0128.43-1.8l-.51 6.24H31.25a1.73 1.73 0 01-1.34-.63 1.72 1.72 0 01-.36-1.41l4.91-25.18a1.72 1.72 0 00-3.38-.66l-4.91 25.17a5.2 5.2 0 001.09 4.28 5.14 5.14 0 004 1.87h35.9c1.42 2.35 5.75 3.44 9.84 3.44s8.32-1.06 9.79-3.44h35.94a5.14 5.14 0 004-1.87 5.19 5.19 0 001.09-4.27zM53.48 49.67a3.59 3.59 0 012.89 1.46 1.72 1.72 0 102.77-2.05 7 7 0 00-4.88-2.75 5.21 5.21 0 015.1-4.14l.63.06c-.14.36-.26.72-.37 1.08a1.72 1.72 0 003.34.86 8.08 8.08 0 01.89-2.19 8.52 8.52 0 017.26-4.15 8.42 8.42 0 014.56 1.38 7 7 0 00-.41 2.26 1.73 1.73 0 003.45 0 3.62 3.62 0 017.24 0 1.72 1.72 0 003.44 0v-.39a11.16 11.16 0 0110.19 8.61 7.12 7.12 0 00-2.22 1.11 1.75 1.75 0 00-.68 1.59 1.72 1.72 0 002.74 1.17 3.63 3.63 0 113.69 6.2 1.72 1.72 0 00.74 3.27 1.84 1.84 0 00.73-.16 6.9 6.9 0 001.28-.81 7.34 7.34 0 01-1.45 7.34v.05a7.44 7.44 0 01-8.78 1.61 9 9 0 01-.84-.52 5.86 5.86 0 00.46-6.06 1.72 1.72 0 00-3.08 1.55 2.54 2.54 0 01-.83 3.24 2.58 2.58 0 01-3.73-1 1.75 1.75 0 00-1.44-.95 1.72 1.72 0 00-1.64 2.49A5.9 5.9 0 0092 72.81a10 10 0 002 1.38 10.61 10.61 0 008 .74 11 11 0 01-7.09 4.34 1.72 1.72 0 00.27 3.42h.27a14.13 14.13 0 003.06-.89 15.4 15.4 0 011.28 3 1.77 1.77 0 01.09.56A1.85 1.85 0 0198.69 87a2 2 0 01-2.22-.6 11.08 11.08 0 00-5-3.35c-3.72-1.24-5.15-2.36-5.76-3.57a15.76 15.76 0 002.63-.55 1.73 1.73 0 001.18-1.26 1.72 1.72 0 00-2.19-2 13 13 0 01-3 .55 12.76 12.76 0 01-5.7-.87 1.73 1.73 0 00-1.93.48 7.37 7.37 0 01-11.9-8.64 1.73 1.73 0 10-3-1.78 11.05 11.05 0 00-1 2.22 2.58 2.58 0 01-2.44-2.54 1.71 1.71 0 00-1.72-1.7 1.73 1.73 0 00-1.64 1.7A6 6 0 0060.31 71a11 11 0 00.16 1.72 10.51 10.51 0 01-11.9-14.4 6.67 6.67 0 001.28 1 1.72 1.72 0 001.77-2.95 3.64 3.64 0 011.86-6.75zm-15.64 58l6.21-37.38 2.43-.32a13.9 13.9 0 0015.09 6.12 10.77 10.77 0 0016.89 2.86 16.31 16.31 0 003.59.65c.83 3.16 3.24 5.07 8.29 6.76a7.67 7.67 0 013.5 2.31 5.46 5.46 0 004.16 2 5.1 5.1 0 002-.42 5.28 5.28 0 003-6.5 19.4 19.4 0 00-1.52-3.5 14.55 14.55 0 005.72-8.75 12.36 12.36 0 001-1.38c.57.07 1.15.14 1.73.23l6.21 37.38a59 59 0 00-37.42 0V86.09a1.73 1.73 0 00-3.45 0v21.55a59.07 59.07 0 00-37.42 0zM77 118.79c-4.15 0-6.53-1.22-6.88-1.77l.59-7.14a35.7 35.7 0 015.54 1.86 1.72 1.72 0 001.49 0 36.1 36.1 0 015.54-1.87l.59 7.15c-.35.55-2.73 1.77-6.87 1.77zm47.07-4.07a1.73 1.73 0 01-1.34.63H87.18l-.52-6.25a57.54 57.54 0 0128.44 1.82 3.46 3.46 0 004.43-3.86l-5.4-32.45h2.76l7.54 38.69a1.73 1.73 0 01-.37 1.42z"/>
          <path id="Shape-13" data-name="Shape" class="cls-6" d="M71.28 59.73a1.72 1.72 0 00-.12 2.43 10.41 10.41 0 005.52 3.18 5.14 5.14 0 01-4.19 2.16 1.72 1.72 0 100 3.44 8.52 8.52 0 008-5.52A10.38 10.38 0 0089 57.16a1.71 1.71 0 00-.55-1.65 1.72 1.72 0 00-2.83 1 6.8 6.8 0 01-2.85 4.37 7 7 0 01-9.06-1 1.72 1.72 0 00-2.43-.12z"/>
          <path id="Shape-14" data-name="Shape" class="cls-6" d="M65.28 57.86A1.72 1.72 0 0067 56.14 4.44 4.44 0 0168.31 53a4.49 4.49 0 013.17-1.32 1.72 1.72 0 000-3.44 7.94 7.94 0 00-7.92 7.92 1.74 1.74 0 00.5 1.22 1.76 1.76 0 001.22.48z"/>
          <path id="Shape-15" data-name="Shape" class="cls-6 blinkLines" d="M78.71 24.12V22.4a1.73 1.73 0 00-3.45 0v1.72a1.73 1.73 0 103.45 0z"/>
          <path id="Shape-16" data-name="Shape" class="cls-6 blinkLines" d="M105.23 33l-1.72 1.73a1.7 1.7 0 00-.47 1.67 1.74 1.74 0 001.23 1.23 1.7 1.7 0 001.67-.47l1.73-1.72a1.73 1.73 0 00.46-1.68 1.71 1.71 0 00-1.22-1.23 1.76 1.76 0 00-1.68.47z"/>
          <path id="Shape-17" data-name="Shape" class="cls-6 blinkLines" d="M49.24 37.69a1.72 1.72 0 001.22-2.93L48.74 33a1.75 1.75 0 00-1.67-.47 1.73 1.73 0 00-.76 2.91L48 37.19a1.72 1.72 0 001.24.5z"/>
          <path id="Shape-18" data-name="Shape" class="cls-6 blinkLines" d="M62.49 30.45a1.65 1.65 0 00.66-.13 1.75 1.75 0 00.94-.93 1.77 1.77 0 000-1.32l-2-4.77a1.72 1.72 0 10-3.18 1.32l2 4.77a1.73 1.73 0 001.59 1.06z"/>
          <path id="Shape-19" data-name="Shape" class="cls-6 blinkLines" d="M94.11 22.37a1.72 1.72 0 00-2.25.93l-2 4.77a1.72 1.72 0 00.93 2.25 1.65 1.65 0 00.66.13 1.73 1.73 0 001.59-1.06l2-4.77a1.72 1.72 0 00-.93-2.25z"/>
          <path id="Shape-20" data-name="Shape" class="cls-6 blinkLines" d="M112 50.94a1.65 1.65 0 00.66-.13l4.77-2a1.72 1.72 0 10-1.32-3.18l-4.77 2a1.72 1.72 0 00.66 3.31z"/>
          <path id="Shape-21" data-name="Shape" class="cls-6 blinkLines" d="M41.34 50.81a1.72 1.72 0 001.32-3.18l-4.77-2a1.72 1.72 0 10-1.32 3.18z"/>
        </g>
      </g>
    </g>
  </g>
</svg>
