<svg xmlns="http://www.w3.org/2000/svg" viewBox="0 0 440.68 791.16"><defs><style>.cls-1{fill:#a7513a;}.cls-1,.cls-10,.cls-11,.cls-12,.cls-13,.cls-15,.cls-17,.cls-18,.cls-19,.cls-2,.cls-20,.cls-3,.cls-6,.cls-7{stroke:#ac4351;}.cls-1,.cls-10,.cls-11,.cls-12,.cls-13,.cls-14,.cls-15,.cls-17,.cls-18,.cls-19,.cls-2,.cls-20,.cls-3,.cls-6,.cls-7,.cls-8,.cls-9{stroke-linecap:round;stroke-linejoin:round;}.cls-1,.cls-10,.cls-11,.cls-12,.cls-13,.cls-14,.cls-15,.cls-17,.cls-2,.cls-3,.cls-6,.cls-7,.cls-8{stroke-width:3px;}.cls-2,.cls-20{fill:#fccdc7;}.cls-19,.cls-3,.cls-5{fill:#42a3ac;}.cls-4{fill:#53d3df;}.cls-6,.cls-8,.cls-9{fill:none;}.cls-7{fill:#e1b3c0;}.cls-8,.cls-9{stroke:#f4f0f1;}.cls-9{stroke-width:10px;}.cls-10{fill:#b96752;}.cls-11{fill:#e1abb9;}.cls-12,.cls-14{fill:#b2dadf;}.cls-13{fill:#f7f1f1;}.cls-14{stroke:#b2dadf;}.cls-15{fill:#ffffbf;}.cls-16{fill:#ffaca0;}.cls-17{fill:#fbf1f1;}.cls-18{fill:#d8d8d8;}.cls-18,.cls-19,.cls-20{stroke-width:2px;}</style></defs><g id="Layer_2" data-name="Layer 2"><g id="Layer_6" data-name="Layer 6"><path id="hair-back" class="cls-1" d="M264.54,194.3c-3,11.11-13.63,18.94-24.87,21.37s-23,.31-34-2.93c-8.27-2.43-16.43-5.5-25-6.45s-17.85.49-24.37,6.13-9.11,16.19-4.12,23.21c2.79,3.92,7.31,6.18,10.77,9.52s5.76,9,2.85,12.86l69.68,9.27c8.46,1.13,17.41,2.19,25.22-1.22,11.85-5.17,17.48-19.54,16.37-32.42S269.54,209,264.54,194.3Z"/><path id="face-color" class="cls-2" d="M267.12,179c-4.56,15-6,31.24-18.48,40.74-5.29,4-11.73,6.15-18,8.21-4.93,1.62-10,3.25-15.2,3-5.49-.3-10.61-2.72-15.55-5.13-10.47-5.12-21.05-10.51-29.38-18.66-9-8.8-14.9-20.39-18.65-32.41s-5.49-24.57-7.22-37.05c-.52-3.75-.75-8.26,2.24-10.58,2.21-1.72,5.29-1.48,8.06-1.84,7.11-.92,12.92-6.1,17.39-11.71,8.44-10.6,13.71-23.32,18.85-35.87S201.53,52.4,210,41.79s14.61-21,28.14-21.78c3.74,11.76,5.87,27.57-3.45,35.66,7.23-1.32,14.56,2.93,19,8.78s6.58,13.08,8.63,20.13l10.14,35c2.42,8.32,6.46,17,4.62,25.48C273.13,163.1,270,169.69,267.12,179Z"/><g id="pants-color"><path class="cls-3" d="M96.41,445A33.45,33.45,0,0,0,86,456.51c-2.32,4.2-3.7,8.85-5.15,13.42-16,50.73-41.57,98.23-54.93,149.71-2.06,8-3.83,16-5.6,24-.66,3-1.32,6.16-.45,9.12,1,3.46,3.95,6,7.88,8.7,7.28,8.84,18.47,13.42,29.47,16.63a190.07,190.07,0,0,0,58.57,7.45c6.17-.18,12.42-.67,18.25-2.69,10.75-3.7,19.12-12.22,26.08-21.21,1.39-1.79,2.81-3.81,2.74-6.08-.05-2-1.23-3.74-2.36-5.37-3-4.28-6-8.57-9.75-13.76-.31-4.3,4.18-7.25,8.18-8.89a87.27,87.27,0,0,1,33.89-6.49c-2.84-3.92-2.18-9.24-2.64-14.06-.61-6.49-3.46-12.51-5.77-18.61-12.35-32.7-9.56-69.66-21.13-101.29a10,10,0,0,1-4.91-9.76c.26-2.08,1.16-4.33.12-6.15a6.53,6.53,0,0,0-2.46-2.13C138,458.14,119.06,446.92,96.41,445Z"/><path class="cls-3" d="M203.77,562A96.87,96.87,0,0,0,217,555.65c.65,4.41,1.31,8.81,1.83,14.18l27.87-7.06a236.84,236.84,0,0,1,23.2-5.06c9.54-1.41,19.2-1.65,28.82-2.29,18.68-1.25,37.22-4,55.73-6.75,7.31-1.09,14.68-2.19,21.66-4.63,5.89-2,11.6-5.08,17.83-5.43,7.32-.42,14.28,2.91,20.86,6.15l19.2,9.46a7.06,7.06,0,0,1,2.65,1.87,5.87,5.87,0,0,1,.94,3.18c.43,7.32-3.86,15.11-.56,21.66.83,1.66,2.15,3.21,2.16,5.06,0,4.44-6.23,5.21-10,7.52-2.65,1.61-4.3,4.39-6.06,6.94-9.16,13.25-23.47,22.11-38.36,28.25-7.72,3.18-15.71,5.73-23.41,9-8.71,3.69-17,8.26-25.65,12.12-20.15,9-41.8,14.08-63.19,18.63-10.63,1.52-20.89,4.91-31.35,7.35s-21.42,3.93-32.62,1.4l-24.32-86c-1.93-6.86-3.68-14.89.63-20.56S197.28,564.58,203.77,562Z"/><path class="cls-4" d="M129.61,622.42c10.91-16.06,30.84-23.47,50-26.52,3.88-.62,8-1.09,11.65.27s6.79,5.1,6.11,9a134.34,134.34,0,0,0-53.6,21.55c-2.51,1.72-5.17,3.6-8.21,3.71S129.19,627.9,129.61,622.42Z"/><path class="cls-4" d="M235.76,610.84c12,21.09,18.5,41.06,25.41,64.32,1.42.17,3.73,1.57,5.65,1.35a5.65,5.65,0,0,0,4.08-3.45c1.08-2.69.12-8-.26-10.85-2.06-15.4-8-27.5-14.75-41.5-2-4.15-4.64-10.23-7.62-12C240.55,604.12,237.35,610.31,235.76,610.84Z"/><path class="cls-5" d="M234.73,614.61l-7.39,3.13a107.83,107.83,0,0,1,21.63,58,33.25,33.25,0,0,1,13.53-1.06,178.79,178.79,0,0,0-26.05-63.54C235.37,612.34,234.3,613.58,234.73,614.61Z"/><path class="cls-5" d="M197.55,607.35c3,1.34,3.8,5.56,2.25,8.43s-4.77,4.49-8,5.08-6.5.33-9.77.44a44,44,0,0,0-28.5,11.93c-1.36,1.29-2.72,2.73-4.52,3.26a7.15,7.15,0,0,1-6.39-1.7,21.25,21.25,0,0,1-4.19-5.44,143.76,143.76,0,0,1,57-24.26A4.3,4.3,0,0,0,197.55,607.35Z"/><path class="cls-6" d="M196.23,598.88c1,5.4,2,10.81,3.22,16.25a114.13,114.13,0,0,0-8.14,8.32c-1.92-1.64-4.79-1.29-7.25-.75a106.08,106.08,0,0,0-37.82,16.49,14.08,14.08,0,0,0-7.2-7.5c-2.17-1-4.56-1.4-6.7-2.44s-4.11-3-4.13-5.36c0-1.95,1.25-3.66,2.53-5.13a60.8,60.8,0,0,1,37.44-20.24c5-.68,10.11-.73,15-2.08,2.23-.62,4.44-1.52,6.75-1.56S195.64,595.64,196.23,598.88Z"/><path class="cls-6" d="M250.74,609c-3.32-.21-6.05-3.6-9.33-3.06-2.08.35-3.53,2.17-4.92,3.75a37.2,37.2,0,0,1-11.83,9c2.26.63,3.77,2.7,5,4.67A120.33,120.33,0,0,1,248.16,676c3.16.45,6.32-.64,9.5-1s6.93.4,8.42,3.24l7.09-5.37A196.91,196.91,0,0,0,250.74,609Z"/></g><g id="neck"><path class="cls-2" d="M179.92,216.1c-2,7.5-1.68,15.42-2.8,23.1S173,254.94,166.37,259c-3.7,2.3-8.24,3.15-11.62,5.9-4.05,3.29-5.72,8.9-5.15,14.09s3.09,10,6.23,14.13c9.34,12.38,23.7,19.75,37.55,26.71,9.35-8.36,20.09-15.21,28.49-24.53s14.34-22.15,11.31-34.32c-4.49,1.86-10.47,3.4-13.56-.36-2-2.42-1.67-5.94-1.25-9l2.87-21.11C206.55,229.71,192.17,223.92,179.92,216.1Z"/><path class="cls-6" d="M211.91,293.9a54.73,54.73,0,0,0,12.8-7.93"/><path class="cls-6" d="M164.27,283c9.37,3.3,15.71,13.43,25.56,14.7"/></g><g id="shirt"><path id="shirt-bottom" class="cls-7" d="M214,541.34c0,4.81.32,9.62,2,13.56a68.75,68.75,0,0,1-16.08,9.19c.62-4.88,1.25-9.81.79-14.71-.49-5.24-2.21-10.41-1.8-15.65a2,2,0,0,1,.71-1.62,2.08,2.08,0,0,1,1.94.27l12.2,6.32C214.13,539.58,214.53,540.46,214,541.34Z"/><path class="cls-7" d="M150,271.34a5.19,5.19,0,1,0-9.92,1c-11.74-1.76-20.49,14.54-32.22,12.71-2.56-.4-5.18-1.66-7.6-.76-1.66.62-2.8,2.13-3.83,3.57l-11,15.28a66.61,66.61,0,0,0,19.21,39.45c4.15,4.1,7.28,10.65,8.84,14.39,1,2.33-1.42,4.83-2.63,7l-13.3,24.24a229.86,229.86,0,0,1,38.4,33.64A149.38,149.38,0,0,0,147.53,434c12.18,10.67,23.75,23.79,40.21,22.26,1.74-.16,2.33,3.22,3.52,4.51,1.83,2,.45,6.14,0,8.79-2.41,14.21,3.21,25.84,6.21,38.29,2.79,11.53,6.13,20,14.44,25.31-9.51-28.87-3.81-64.05,13.34-89.14,4.09-6,8.88-11.61,11.85-18.24,4.5-10.09,4.36-21.53,5.21-32.55a170.85,170.85,0,0,1,8.53-41.72,59.2,59.2,0,0,0,45.43-20.75c1.5-1.78,2.94-3.77,3.19-6.08s-.76-4.6-1.75-6.73l-11.62-25.15c-3.48-7.51-7-15.17-12.74-21.18s-14-10.19-22.16-8.85c-1.87.31-4,.85-5.51-.24-1.35-1-1.7-2.81-2.62-4.19a5.74,5.74,0,0,0-7-1.94c-2.39,1.12-3.71,4.1-3.43,8.41,2.19,7.84-.31,16.4-4.8,23.19s-10.82,12.14-17,17.38L200.68,314c-2.62,2.2-5.6,4.53-9,4.35-3.87-.21-6.71-3.51-9.7-6-4.88-4-11-6.22-16.25-9.81C156.23,296,147.63,284.38,150,271.34Z"/><path class="cls-8" d="M201.75,548.57l10.5-1.53"/><path class="cls-9" d="M197.38,511.28l6.56-.22"/><path class="cls-8" d="M197.16,493.24l9-.22"/><path class="cls-8" d="M196.72,470.31l13.56.47"/><path class="cls-9" d="M160.37,449c15.93-.22,44.35-1.11,60.2-2.66"/><path class="cls-8" d="M145.32,430.42q46-.23,91.86-3.77"/><path class="cls-8" d="M127.82,413.75q55.79.28,111.54-2.28"/><path class="cls-9" d="M110.54,399.1q64.89-.24,129.71-4.11"/><path class="cls-8" d="M101.57,380.51q69.66,1.46,139.33,1.17"/><path class="cls-8" d="M112.13,364.4l134.52-1.83"/><path class="cls-8" d="M294.77,312.71l-38.06,21.81c.47,1.58-5,3.22-5,3.22-34.62-1.58-69.28-2.61-103-3.35-19.33-10.82-32.32-29.94-44.58-48.38"/><path class="cls-9" d="M93.84,294.82c9.32,20.52,21.74,39.62,38,54.43q57.75-2,115.52.28"/><path class="cls-8" d="M281.6,289.57l-12.91,13.34c-3.77,3.9-7.65,7.87-12.53,10.22-4,1.91-8.4,2.64-12.75,3.35-16.49,2.68-33,5.36-51,8.18l-40.2-9.45c-2.69-.63-5.51-1.33-7.55-3.19a16.27,16.27,0,0,1-3-4.19c-6.23-11-10.69-16.58-16.92-27.63"/><path class="cls-9" d="M213.92,307.78c8.92-2.25,15.88-4.21,22.6-7.24,2.11-1,4.51-1.14,6.54-2.25a22.66,22.66,0,0,0,6.37-5.71c5.32-6.42,10.69-16.7,13.33-24.6"/><path class="cls-9" d="M167.47,305.92a33.16,33.16,0,0,0-9.88-.8,4.67,4.67,0,0,1-2-.12,4.09,4.09,0,0,1-1.35-.95c-8.21-7.82-10.44-20.48-18.82-28.1"/><path class="cls-6" d="M150,271.34a5.19,5.19,0,1,0-9.92,1c-11.74-1.76-20.49,14.54-32.22,12.71-2.56-.4-5.18-1.66-7.6-.76-1.66.62-2.8,2.13-3.83,3.57l-11,15.28a66.61,66.61,0,0,0,19.21,39.45c4.15,4.1,7.28,10.65,8.84,14.39,1,2.33-1.42,4.83-2.63,7l-13.3,24.24a229.86,229.86,0,0,1,38.4,33.64A149.38,149.38,0,0,0,147.53,434c12.18,10.67,23.75,23.79,40.21,22.26,1.74-.16,2.33,3.22,3.52,4.51,1.83,2,.45,6.14,0,8.79-2.41,14.21,3.21,25.84,6.21,38.29,2.79,11.53,6.13,20,14.44,25.31-9.51-28.87-3.81-64.05,13.34-89.14,4.09-6,8.88-11.61,11.85-18.24,4.5-10.09,4.36-21.53,5.21-32.55a170.85,170.85,0,0,1,8.53-41.72,59.2,59.2,0,0,0,45.43-20.75c1.5-1.78,2.94-3.77,3.19-6.08s-.76-4.6-1.75-6.73l-11.62-25.15c-3.48-7.51-7-15.17-12.74-21.18s-14-10.19-22.16-8.85c-1.87.31-4,.85-5.51-.24-1.35-1-1.7-2.81-2.62-4.19a5.74,5.74,0,0,0-7-1.94c-2.39,1.12-3.71,4.1-3.43,8.41,2.19,7.84-.31,16.4-4.8,23.19s-10.82,12.14-17,17.38L200.68,314c-2.62,2.2-5.6,4.53-9,4.35-3.87-.21-6.71-3.51-9.7-6-4.88-4-11-6.22-16.25-9.81C156.23,296,147.63,284.38,150,271.34Z"/><path id="shirt-bottom-2" data-name="shirt-bottom" class="cls-6" d="M214,541.34c0,4.81.32,9.62,2,13.56a68.75,68.75,0,0,1-16.08,9.19c.62-4.88,1.25-9.81.79-14.71-.49-5.24-2.21-10.41-1.8-15.65a2,2,0,0,1,.71-1.62,2.08,2.08,0,0,1,1.94.27l12.2,6.32C214.13,539.58,214.53,540.46,214,541.34Z"/><path class="cls-6" d="M113.13,355c2.66,2.4,4.85,7.22,7.29,10.56,4-3.27,8.27-8.3,12.28-11.57,3.37-2.75,6.84-5.62,8.81-9.5"/><path class="cls-6" d="M249.54,355.09l7.2-26.91"/></g><g id="hair"><path id="hair-2" data-name="hair" class="cls-10" d="M110.05,70.82C95.09,68.43,82.66,84,80.72,99s2.81,30.05,3.53,45.17c1.54,32.17-17,64.44-45.58,79.3a93.53,93.53,0,0,0,50.23.21c-7.31,15.45-26.22,24.13-30.2,40.75-3.87,16.22,11.16,37.75,27.65,35.33-5.22-5.27-6.52-20.23.55-22.47,6.3-2,12.87,13.68,16,19.47,6.46,11.74,15.21,12.47,23,23.35s19.36,25.26,11.93,36.41c17-20.77,5.45-45.22,6.46-74.94,14.62,15.9,10.58,38.57,8.5,64,10.33-20.86,16.62-44.27,23.93-65.9,1.8,11.5,2.27,23.5-2.35,34.18,17.68-15.1,17.33-45.36,1.4-62.3a37.54,37.54,0,0,0,27.46,6.95c-21.73-6.11-38-27.84-37.77-50.4-11.64-24.17-17.74-51-19.49-77.77,23.78-6.46,36.76-31.43,46.63-54s22-47.73,45.37-55.45c6.3,11,3.78,26.31-5.74,34.71,12.1-.74,22.69,8.92,27.9,19.87s5.05,26.77,8.27,38.46c2.18,7.93,6.76,12.23,7.21,20.44.66,12-1.92,28.6-5.64,37.35-9.06,21.36-3.57,33.93-1.74,53.53,1.72,18.47-4.63,38.68-19,50.38a50,50,0,0,0,26.86-25.79l-14.06,33.75a54.79,54.79,0,0,0,25.84-33.77L289.61,269a150.85,150.85,0,0,0,19.74-62.11c10,14.11,13.89,37.78,6.07,53.17,17.12-6.11,24.84-26.27,26.47-46.05,1.49-18.11-12.45-33.38-28.73-39.28,13.24,5,27.81-4,32.82-17.22-5.55,2.32-11.3,4.68-17.32,4.64s-12.45-3.11-14.55-8.75c-5.28-14.19,18.95-28.16,11.88-41.54-15.23,2.83-29.44-7.68-34.95-22.17S282.91,58,282,42.5c-.95-16-4.14-33.14-22.1-38.79a52.63,52.63,0,0,0-33.4,1.11c-10.75,3.84-20.82,9.53-31.8,12.65-13,3.69-26.7,3.64-40.13,5.09s-27.33,4.71-37.42,13.69S102.26,61.3,110.05,70.82Z"/><path class="cls-6" d="M98.59,124.06c21.77,11.94,50.84,8.82,69.59-7.46"/><path id="Hair-fill-top" class="cls-1" d="M231.75,56.13c5.64-3.63,9.12-10.14,9.78-16.81a31.5,31.5,0,0,0-4.79-19.19C224.34,25.42,215.46,36.4,207.11,47l-7.77,9.83c6-2,12.1-4,18.41-4.76S230.71,52,231.75,56.13Z"/></g><path class="cls-2" d="M248.26,366.65c7,9.93,7.64,19.31,9.87,31.27,1.63,8.71,1.43,19.88,1.84,28.73,1.3,28.32,1.08,57.45,9.39,84.55,2.27,7.39,5.49,14.46,7.74,21.85a167.44,167.44,0,0,1,4.45,20.39l1.22,2.39a288.33,288.33,0,0,1,33.64-1c-6-11.7-7.84-25-9.64-38l-3.46-25c-1.29-9.36-2.59-18.72-3.33-28.13-1.14-14.47-1-29-2.14-43.49-2-25.19-8.07-50.72-2.67-75.4.75-3.44,5.43-13.5,3.73-16.58-10.89,12.9-30,22.28-44.57,23a5.29,5.29,0,0,0-3.08,1.05,3.85,3.85,0,0,0-1.48,2.25C249.09,359,246.77,364.53,248.26,366.65Z"/><path class="cls-6" d="M292.25,369.06c-2.89,4.43-3.44,8.84-4.95,13.92L284,394"/><path class="cls-6" d="M284.52,465.1l6.09,14"/><path class="cls-2" d="M84.45,304.59c-3.76,4.1-5.55,9.57-7.82,14.64-6.41,14.31-17.19,26.21-24.64,40-8.33,15.44-12.27,32.8-16.13,49.92a6.93,6.93,0,0,0-.08,4.08,7.82,7.82,0,0,0,1.91,2.42,30.79,30.79,0,0,1,6.9,10.6c8.23,0,15.69,4.44,23.21,7.77,14.36,6.36,30.05,9,45.08,13.55,13.15,4,31,12.42,42,20.47,2.77,2,2.51,4.34,2.51,5.73,0,3.58-1,4.2.87,7.42l4.77,8.39c2.45,4.32,4.88,9.86,2.43,13.94a40.53,40.53,0,0,0-3,21.53c.81,6,3,11.77,3.38,17.8.38,5.51-.69,11-1.76,16.42q-2,10.28-4.06,20.56c3.14,2.73,10.11,1.17,10.84-2.92-.25,3.81,1.42,5.33,4.29,6.36s5.79-.93,7-3.73c.74,3.08,2.07,5.46,4.36,5.6s4.41-.67,4.17-2.95a19.65,19.65,0,0,1,.61-8.44c1.24,3.16,1.71,5.3,3.63,6.58s4.75,1.54,6.43-.05a113.28,113.28,0,0,1-1.2-17.35,113.36,113.36,0,0,0-.22-28.57,61.64,61.64,0,0,1,13.36,6.12c1.89-3.09-.69-6.89-2.94-9.72A62.09,62.09,0,0,1,198,506.29a101.47,101.47,0,0,1-1.95-17.49l-1.72-32.21a75.1,75.1,0,0,1-34.6-12c-20-13.14-32.94-35.31-53.27-48-3.52-2.19-7.66-4.7-8.09-8.83-.28-2.69,1.18-5.22,2.58-7.54l7-11.52c2.55-4.2,6.7-6.5,5.46-11.25-.75-2.9-4.35-7.72-6.28-10C97,335.34,89.69,320.75,84.45,304.59Z"/><path class="cls-6" d="M191.91,537.76a103.55,103.55,0,0,1-1,27.63c-.58,3.34-1.31,6.81-.41,10.08"/><path class="cls-6" d="M199.61,512.07c-.21,6.17-1.19,17.07,1,23.66"/><path class="cls-6" d="M152.75,466.33c2.13,1,6.75,1.49,8.84,2.55"/><path class="cls-6" d="M169.78,464.65l-2.55-1.28a.78.78,0,0,0-1.17.24,35.36,35.36,0,0,0-2.13,2.86L160.77,471a11,11,0,0,0-1.7,3.12,10.56,10.56,0,0,0-.27,2.86l0,4.62"/><path class="cls-6" d="M100.73,391.92a48.8,48.8,0,0,0-27.15-4.73,18.63,18.63,0,0,0-8.08,2.44"/><path class="cls-6" d="M177.53,537.69c-.64,13.65-3.69,27.06-6.73,40.39"/><path class="cls-6" d="M186,540.42c1.79,8.69-2,17.44-3.33,26.22a48.87,48.87,0,0,0,.09,15.55"/><g id="Pants-lines"><path class="cls-6" d="M90.46,486.83c.21,11.72,3.37,23.16,6.51,34.45l6.69,24c2,7.24,4,14.5,6.74,21.51,6.23,16.15,16,30.67,25.61,45"/><path class="cls-6" d="M143.63,486.28c8.72,20.81,7.84,44.49,15.15,65.84"/><path class="cls-6" d="M152,641a54.11,54.11,0,0,0-2,16.16"/><path class="cls-6" d="M156.7,648.05l-.43,6.17"/><path class="cls-6" d="M185.66,607.94l8.24-2.19"/><path class="cls-6" d="M160.37,616.12a83.38,83.38,0,0,1,19-5.51"/><path class="cls-6" d="M146.93,623.57l7.69-4.12Z"/><path class="cls-6" d="M142,627.14,137.32,631"/><path class="cls-6" d="M240.12,615.88a8.65,8.65,0,0,0,3.08,6.46"/><path class="cls-6" d="M245.48,628.53l4,9.92"/><path class="cls-6" d="M254.06,646.08l3,9.33"/><path class="cls-6" d="M260.62,662.84l1.1,5.49"/><path class="cls-6" d="M87.33,482.13a107.74,107.74,0,0,1,8.16-9.72c1.24,2.61,2.4,5.26,3.46,7.95"/><path class="cls-6" d="M101.83,493l4.32,11.21"/><path class="cls-6" d="M109.59,521.44l3.09,13.15a1.79,1.79,0,0,0,.5,1"/><path class="cls-6" d="M115.58,555a46.39,46.39,0,0,1,6,10"/><path class="cls-6" d="M128.92,584.32q3.15,5.41,5.75,11.14c.07.16.2.34.37.31s0-.38-.09-.22"/><path class="cls-6" d="M83.11,490.06a171.62,171.62,0,0,0-9.44,26.2"/><path class="cls-6" d="M69.16,531.9,58.31,555a.62.62,0,0,0,.65.27"/><path class="cls-6" d="M55.71,573.25l-8.52,17.6"/><path class="cls-6" d="M42.71,612.3a125.19,125.19,0,0,0-8.65,14.87"/><path class="cls-6" d="M29.42,650.54a48.83,48.83,0,0,1,3.49-10.32"/><path class="cls-6" d="M203.64,603.37l6.34-5.16"/><path class="cls-6" d="M215.41,594.75a43.46,43.46,0,0,1,14.37-6.42"/><path class="cls-6" d="M235.16,585.16a55,55,0,0,1,13.11-5.35"/><path class="cls-6" d="M256.62,578.54a75.79,75.79,0,0,1,15.09-5.11"/><path class="cls-6" d="M281.49,569.61l14-4.89"/><path class="cls-6" d="M313,562a79,79,0,0,1,13.76-2.77C328.21,559.06,328.67,558.61,313,562Z"/><path class="cls-6" d="M337.41,559q8.31-2.26,16.78-3.9"/><path class="cls-6" d="M366.31,552.35l21.89-2.17"/><path class="cls-6" d="M384,556.89a65.41,65.41,0,0,0-9.69,6.64"/><path class="cls-6" d="M349.52,574.94a24.83,24.83,0,0,0-6.81,2.52"/><path class="cls-6" d="M328.06,579.66a40.79,40.79,0,0,0-13.68,4.94"/><path class="cls-6" d="M296.39,595.78a95.34,95.34,0,0,0-9,7.11"/><path class="cls-6" d="M266.82,614.47l-6.59,4.89"/><path class="cls-6" d="M360.79,566.41c-16.62,2-33.66,4.17-48.46,12-6.38,3.36-12.29,7.76-19.16,9.93-2.3.72-4.74,1.22-6.65,2.69s-3.13,4-4.52,6.07c-6,9.11-17.07,13.15-27.4,16.62"/><path class="cls-6" d="M222,663.15l23.35-3.63"/><path class="cls-6" d="M271.07,651l7.22-1.93"/><path class="cls-6" d="M386.51,608.71q-34.44,17.71-68.37,36.38"/><path class="cls-6" d="M427.33,594.42q-8.71.76-17.42,1.82c-2,.25-4.1.54-5.71,1.76a10.62,10.62,0,0,0-2.15,2.38,66.36,66.36,0,0,0-6.86,11.93"/><path class="cls-6" d="M219.77,570.75c-3.49,2-7.12,4-9.3,7.38a24.54,24.54,0,0,0-2.58,6.1l-2.55,7.91"/></g><g id="Leg-skin"><path class="cls-2" d="M162,655l-15.78,7.06a12.15,12.15,0,0,1-7.84,1.34l-26-2.19c-4-.34-8.06-.66-11.93.35s-7.55,3.66-8.7,7.49c1.53-2.88,6.09-2.7,8.42-.42s3,5.74,3.37,9q.61,5.15.78,10.34c.1,3.47-.34,7.63-3.41,9.25a13.62,13.62,0,0,1,10.24,1.82c1.38.89,5.85,2.73,7.49,2.76s6.48-3.66,8.05-3.82c4.39-.43,5.24,1.11,9.39,1.33,5.23-4.06,7.55-3.54,10.11-4.18a206.8,206.8,0,0,1,21.78-4.61,20.27,20.27,0,0,0,5.93-18.23C172.56,665.59,168,660.05,162,655Z"/><path class="cls-2" d="M154.69,639.89c4.27,8.68,5.55,14.33,10.69,22.62a42.76,42.76,0,0,0,1.42,4.59,27.5,27.5,0,0,1,1.58,5.41c.45,3.42.65,5.62.83,9.07.21,4.06,1.76,6.92-1.14,8.8a24.92,24.92,0,0,0,15.62,4.75c2-4.33,6.8-6.59,11.4-7.83s9.5-1.85,13.53-4.39a3.22,3.22,0,0,0,1.38-1.4,3.52,3.52,0,0,0-.15-2.28q-7.33-25.12-14.68-50.23c-.8-2.76-1.84-5.81-4.4-7.11-1.78-.91-3.9-.74-5.88-.46A72.39,72.39,0,0,0,153.18,634C152,634.83,152.69,635.8,154.69,639.89Z"/><path class="cls-2" d="M229.22,626.47c-7.26,2.06-14.85,4.32-20.19,9.65-2.33,2.34-4.61,5.42-8,6.9,3.09,5.25,3.59,11.56,4.7,17.55s2,13.09,7.1,16.45c4.6,3,11.77,2.18,17.28,2a71.11,71.11,0,0,0,9.5-1.3c11.25-2,8.08-3.06,7.86-6.1-.19-2.64-.11-5.23-.5-7.86C244.89,649.72,239.36,636.24,229.22,626.47Z"/></g><g id="Shoes"><path class="cls-11" d="M126.62,661c4.3-3.19-9.06-17.91-11.31-19.54a4,4,0,0,1-1.7-2c-.21-.67-.09-1.42-.33-2.07A3.73,3.73,0,0,0,112,635.8a23.42,23.42,0,0,0-10-4.74c-9.83-1.83-19.2,4.16-27.82,9.24a196.61,196.61,0,0,1-35.21,16.31c-4,1.39-8.11,2.68-11.72,4.9-6.51,4-10.87,10.71-14.3,17.54A110.06,110.06,0,0,0,1.58,719.77a9.4,9.4,0,0,0,.57,5c1.19,2.35,4.15,3.35,6.76,3.05s5-1.65,7.25-3c5.43-3.16,10.87-6.39,15.49-10.65s8.39-9.67,9.65-15.82l61.08-1.93C92.79,642.55,118.34,667.1,126.62,661Z"/><path class="cls-12" d="M91.06,670.32c2.75-1.28,5-4.92,7.59-3.43a5.82,5.82,0,0,1,1.93,2.07,31.68,31.68,0,0,1,3.86,25.13c-.47,1.75-1.46,3.75-3.27,3.9-.71-3.78-4.33-6.45-8.09-7.29s-7.65-.25-11.47.25a207.66,207.66,0,0,1-44.58,1,113.94,113.94,0,0,0-1.79-12.86C54.32,682,73.18,678.68,91.06,670.32Z"/><path class="cls-6" d="M127.83,664.54a38.35,38.35,0,0,1-6.7,9.78"/><path class="cls-6" d="M142.79,667.1l.88,3a14,14,0,0,0-4.85,4.38"/><path class="cls-6" d="M180.58,671.73a19.8,19.8,0,0,0-3.21,9.92.83.83,0,0,0,0,.31.84.84,0,0,0,.31.28,9.48,9.48,0,0,1,2.51,2.26"/><path class="cls-13" d="M112.7,641.2c-5.58,4.6-14,2.33-20.93,4.31-6.32,1.8-11,7-16.06,11.17a61.87,61.87,0,0,1-41.73,14c3.29,10,2.93,20.75,1.71,31.17-.53,4.51-1.28,9.21-4,12.87-2.29,3.12-5.73,5.16-9.17,6.91a105.81,105.81,0,0,1-12,5.22c-1.85.67-3.93,1.28-5.74.51a5.79,5.79,0,0,1-3.08-4.58A24,24,0,0,1,1.93,717c.36-3.69.22-7.42.66-11.1.89-7.3,4.06-14.1,7.19-20.75,3.73-7.89,7.7-16.06,14.59-21.41a55.58,55.58,0,0,1,11.43-6.32l30.09-13.71c4-1.81,8-3.62,11.75-5.76s7.67-4.81,11.91-6.34a26.51,26.51,0,0,1,18.25.16,10.44,10.44,0,0,1,4.47,2.88C113.4,636.05,113.88,638.09,112.7,641.2Z"/><path class="cls-6" d="M90.39,669.69A104.67,104.67,0,0,1,36.84,680"/><path class="cls-6" d="M99,696.9c-.17-3-2.71-5.34-5.51-6.28s-5.85-.74-8.8-.55Q59.86,691.63,35,691.29"/><path class="cls-6" d="M211,683.86a4.89,4.89,0,0,1,7.24,6.09c3.78.88,6.91,3.45,9.76,6.08,13.13,12.11,23.5,27.17,37.81,37.86,3.3,2.46,7,5,8.1,9l-14.23,6.69a2.39,2.39,0,0,1-2.12.27,3,3,0,0,1-1-1.32c-1.27-2.39-3.88-3.66-6-5.31a43.12,43.12,0,0,1-6.42-6.8,113,113,0,0,0-37.05-28.93c-7.93-3.86-16.69-7.07-22.17-14"/><path class="cls-11" d="M167,692.49a22.55,22.55,0,0,0-6.23,8.15,92.5,92.5,0,0,1,14.54,9A16.85,16.85,0,0,0,179,712a18.93,18.93,0,0,0,4.42.95,50.2,50.2,0,0,1,13.58,4,24,24,0,0,1,6.57,4.14c2.8,2.63,4.52,6.2,6,9.72,3,6.92,5.52,14.12,9.63,20.44S229.37,763,236.77,764.5a10,10,0,0,0,5.54-.22,13.35,13.35,0,0,0,3.18-2l9.32-7.32a6.91,6.91,0,0,0,2.49-2.86c.61-1.72-.27-3.65-1.55-4.95a38.75,38.75,0,0,0-4.37-3.26c-2.91-2.23-4.93-5.38-7.18-8.27A83,83,0,0,0,227.41,720c-10.5-7.67-21.89-14-33.24-20.37L187.61,696c-1.34-.75-2.82-1.53-4.33-1.28-.63.11-1.22.38-1.83.54C176.61,696.52,171.08,689.15,167,692.49Z"/><path class="cls-13" d="M158.78,703c-7.05,8.46,1.13,10.67,4.18,14.58s7.31,6.63,11,9.87a49.9,49.9,0,0,1,14.24,20.94c1.39,4,4.2,11.45,6.81,14.75,11.41,14.37,14.37,17.17,29.71,20.69a162.71,162.71,0,0,0,25.48,3.82c4.56.31,9.08,1.07,13.63,1.51a124.72,124.72,0,0,0,18.84.24,85.59,85.59,0,0,0,14-1.74,56.71,56.71,0,0,0,21.58-10c1.42-1.07,2.87-2.33,3.32-4.05a8.63,8.63,0,0,0-.27-4.09l-1.58-6.92a20.94,20.94,0,0,0-2-5.91,18.61,18.61,0,0,0-4.9-5.07C303,744,290.5,738.2,278.15,740.38a9.08,9.08,0,0,0-4,1.49,31.52,31.52,0,0,0-2.47,2.56c-3.13,3-8.08,3-11.9,5.14-2.86,1.57-4.93,4.22-7.07,6.68-3.32,3.81-7.33,7.48-12.31,8.26-4.53.71-9.16-1.14-12.71-4s-6.17-6.73-8.62-10.6a54.83,54.83,0,0,1-5.31-10.08c-1.55-4.15-3.37-10.16-5.69-13.93-4-6.42-11.66-9.32-18.91-11.41s-13.9-2.55-19.08-8c-1.26-1.33-2.36-2.87-4-3.75S160.32,701.17,158.78,703Z"/><path class="cls-14" d="M314.46,757.42c-6.66,2.41-9.92,10.09-16,13.66-4.77,2.79-10.63,2.72-16.15,2.57l-27.42-.75c-13.1-.36-27.27-1.09-37.42-9.39-8.63-7.06-12.6-18.2-19.07-27.28-9.7-13.58-24.76-22.19-39.62-29.78,4.15,4.95,10.5,7.37,15.93,10.88,20.2,13,27.2,40.78,47.65,53.43,11.88,7.35,26.45,8.43,40.39,9.31,9.43.6,18.91,1.19,28.32.34,7.54-.69,15.37-2.5,21-7.57C316.45,768.87,318.86,761.31,314.46,757.42Z"/><path class="cls-14" d="M107.59,634.48a75.64,75.64,0,0,0-31.73,10.23c-4.81,2.86-9.31,6.26-14.3,8.8-10.18,5.19-22.16,6.71-31.49,13.32-8.18,5.79-13.45,15-16.34,24.59s-3.63,19.69-4.36,29.69a4,4,0,0,0,.29,2.29c1,1.71,3.9.88,4.69-.93s-.25-3.83-.25-5.8C14.1,695,24.52,667,40.17,664.93c10.3-1.34,20.59-4.84,29.07-10.84,2.56-1.81,4.8-4,7.38-5.82,8.86-6.09,20.53-6.1,30.36-10.46C108.6,637.09,110.44,635.38,107.59,634.48Z"/><path class="cls-6" d="M244,765.11a18.77,18.77,0,0,0-6.22,10.13,15.85,15.85,0,0,0,1.13,10.83"/><path class="cls-12" d="M217.73,690.46l.74-4.44a5.93,5.93,0,0,0-9.08-1.31c-1.27-1.29-3.41-.83-5.13-.28l-17.63,5.64c-1,.34-2.33,1-2.13,2.12a2.32,2.32,0,0,0,1.06,1.3c9.9,7.21,20.8,12.92,31.28,19.26,13.95,8.44,27.69,18.52,35.4,32.89a5.89,5.89,0,0,0,1.89,2.44,5.6,5.6,0,0,0,2.4.6c4.71.44,10.09.6,13.43-2.75a8.35,8.35,0,0,0,2.11-7.93l-10.55-7.6c-3.48-2.51-7.06-5.13-9.24-8.82a53.74,53.74,0,0,0-2.62-4.7c-1.46-2-3.61-3.4-5.54-5-4.48-3.72-7.79-8.65-11.83-12.85S223,691.19,217.73,690.46Z"/><path class="cls-11" d="M224.53,691.88c5.16,2.89,9.15,7.44,13.33,11.62A130,130,0,0,0,262.78,723c2.29,1.38,4.63,2.69,6.78,4.29,5.61,4.16,10.16,10.36,16.73,12.38a39.26,39.26,0,0,0-13,.64c-1.93-5.34-8-7.7-12.63-11-4.25-3-7.6-7-11-10.94C241.56,709,232.94,700,224.53,691.88Z"/><path class="cls-6" d="M224.77,704.77a16.66,16.66,0,0,0,11.76,6.44c1.37.11,2.84.08,4,.85"/><g id="Shoes-outline"><path class="cls-6" d="M107.18,636.4a57.19,57.19,0,0,0-8.31,1.69"/><path class="cls-6" d="M91.46,640.11A17.37,17.37,0,0,0,82.93,643"/><path class="cls-6" d="M76,648.26a82.52,82.52,0,0,0-9.67,4.64"/><path class="cls-6" d="M59.89,657.83q-5.13,1-10.14,2.5"/><path class="cls-6" d="M43.1,663l-4.8,1.59"/><path class="cls-6" d="M29.13,672.76,19.8,681"/><path class="cls-6" d="M19,689.12l-3.2,7.6"/><path class="cls-6" d="M11.93,707.64l-1.2,5.73"/><path class="cls-6" d="M11.53,719.23l-.27,5.19"/><path class="cls-6" d="M47.11,683l.83,7.19"/><path class="cls-6" d="M56.66,681.54A28.8,28.8,0,0,1,58,690.19"/><path class="cls-6" d="M66.55,679.67l1.24,10"/><path class="cls-6" d="M76.08,675.82a38.54,38.54,0,0,1,1.27,11.71"/><path class="cls-6" d="M90.47,680.44c1.77-3.39,2.09-7.32,2.28-11.14a9.37,9.37,0,0,0-.66-4.88,8.14,8.14,0,0,0-2.53-2.63A10.25,10.25,0,0,0,84,659.43a2.45,2.45,0,0,0-1.77.51,2.74,2.74,0,0,0-.54,2.31c.51,4.65,3.33,8.66,5.14,13C87.72,677.39,88.69,680,90.47,680.44Z"/><path class="cls-6" d="M89.71,680.41,84.1,695.23a22.34,22.34,0,0,0-1.88,7.44,1.36,1.36,0,0,0,.31,1.05,1.26,1.26,0,0,0,.81.25c2.93.17,5.67-1.77,7.23-4.25a20.57,20.57,0,0,0,2.5-8.37,11.08,11.08,0,0,0,0-4.06,12.29,12.29,0,0,0-1.52-3.19A23,23,0,0,1,89.71,680.41Z"/><path class="cls-6" d="M71.78,706.82c1.92-7.16,6.47-13.28,10.92-19.2a79.69,79.69,0,0,0,5-7.12A74.28,74.28,0,0,0,69.53,671"/><path class="cls-6" d="M314.72,762.13a61.15,61.15,0,0,1-6.44,7.3"/><path class="cls-6" d="M301.39,774.81l-9.2,3"/><path class="cls-6" d="M283.41,777a35.16,35.16,0,0,1-11.71,1.42"/><path class="cls-6" d="M251.45,775.74A34.31,34.31,0,0,0,261.63,777"/><path class="cls-6" d="M162.4,709.42a97.15,97.15,0,0,0,10.37,7.18"/><path class="cls-6" d="M179.81,720.2a8.44,8.44,0,0,0,5.54,4.85"/><path class="cls-6" d="M190.42,730.44a64.91,64.91,0,0,1,6.67,6.7"/><path class="cls-6" d="M201.84,746.94l5,8.52c.6,1,1.31,2.12,2.46,2.39"/><path class="cls-6" d="M215.52,763.16a72.25,72.25,0,0,0,8,5.78"/><path class="cls-6" d="M230.55,773.22l5.61.76"/><path class="cls-6" d="M224.54,703.15A13.92,13.92,0,0,1,235,687.53a6.8,6.8,0,0,1,3.17,0c2.46.69,3.9,3.49,3.68,6a11,11,0,0,1-3.54,6.61,14.27,14.27,0,0,1-7.4,4.2c-3.31.6-6.67-.38-10-1s-7-.71-9.72,1.31-3.62,5.54-4.22,8.83a3.81,3.81,0,0,0,0,2.17c.5,1.17,2,1.54,3.27,1.56A14.06,14.06,0,0,0,224,704.9a76,76,0,0,0-1.09,21"/><path class="cls-6" d="M229.8,721.14a45.84,45.84,0,0,1,11.09-7"/><path class="cls-6" d="M240,727.79a29.41,29.41,0,0,1,4.44-4.55A9.89,9.89,0,0,1,250.3,721"/><path class="cls-6" d="M246.47,737.36a14.38,14.38,0,0,1,11.09-7.77"/><path class="cls-6" d="M252.89,742.8a12,12,0,0,1,10.65-7.26"/><path class="cls-6" d="M256.53,746a54.57,54.57,0,0,1,12.11-6.73"/><path class="cls-15" d="M206.72,693.24l-.74-3.49a9.52,9.52,0,0,1,5.64,2.36,3,3,0,0,0,1,.66,2.67,2.67,0,0,0,1.16,0,16.09,16.09,0,0,1,5.58.11,17.77,17.77,0,0,1-6.16,4.23l2.68,4.68a13.22,13.22,0,0,1-6.51-1.39l-2.71,4a11.92,11.92,0,0,1-1.3-5.83,7.73,7.73,0,0,1-6.46-3C200.64,695.65,202.44,695.51,206.72,693.24Z"/><path class="cls-15" d="M89.32,678.45,88.58,675a9.58,9.58,0,0,1,5.64,2.36,2.62,2.62,0,0,0,1,.66,2.53,2.53,0,0,0,1.16,0,15.8,15.8,0,0,1,5.57.12,17.91,17.91,0,0,1-6.15,4.23L98.44,687a13.16,13.16,0,0,1-6.52-1.38l-2.7,4a11.77,11.77,0,0,1-1.3-5.82,7.8,7.8,0,0,1-6.47-3C83.24,680.86,85,680.72,89.32,678.45Z"/></g></g><g id="face-expressions"><path class="cls-1" d="M169.2,129.69A24,24,0,0,1,199,107.46c1.72.44,3.86,1,5-.39,1.36-1.54,0-4-1.53-5.3-4.74-4-11.7-4.94-17.6-3s-10.73,6.52-13.78,11.93a41.79,41.79,0,0,0-4.83,17.86,4.81,4.81,0,0,0,.3,2.53C167,131.88,169.07,132.73,169.2,129.69Z"/><path class="cls-1" d="M227.58,90.27c-3.26,1.11-6.07,4.33-5.48,7.72a7,7,0,0,0,3.27,4.55,9.63,9.63,0,0,0,8.23.94c3.53-1.25,6-4.47,9.44-6,5.75-2.67,12.45-.1,18.26,2.45,0-3.75-3.42-6.6-6.88-8C246.93,88.69,230.83,89.16,227.58,90.27Z"/><path class="cls-16" d="M191.6,172.36a19,19,0,0,0-5.75-2.46,6.42,6.42,0,0,0-5.82,1.55c-1.77,1.87-1.72,4.84-.88,7.27a9.62,9.62,0,0,0,3.56,5,11.33,11.33,0,0,0,7.51,1.38c2.58-.28,5.1-1,7.69-1.18,2.16-.16,4.34,0,6.49-.18a17.38,17.38,0,0,0,6.18-1.83c2.21-1.13,4.35-3.15,4.2-5.63-.13-2.14-2-3.85-4.08-4.46a16,16,0,0,0-6.39-.11C199.9,172.19,195,174.28,191.6,172.36Z"/><path class="cls-16" d="M266.85,136.64l-4.47.05a10.31,10.31,0,0,0-2.42,7.53c.19,2.2,1,4.69-.34,6.44a7.59,7.59,0,0,1-1.94,1.52,18.17,18.17,0,0,0-5.9,6.24,5.91,5.91,0,0,0-1,3.5c.25,2.14,2.55,3.61,4.71,3.53a8.79,8.79,0,0,0,5.63-2.88c1.53-1.51,2.78-3.3,4.32-4.81a47.81,47.81,0,0,0,3.71-3.54,11.23,11.23,0,0,0,2.43-6.51A14.69,14.69,0,0,0,266.85,136.64Z"/><path class="cls-16" d="M233.65,159.13c-2.74,4.43-3.68,9.73-4.26,14.92a6.69,6.69,0,0,0,.07,2.75,2.43,2.43,0,0,0,1.9,1.81,3.38,3.38,0,0,0,2.67-1.49,16.33,16.33,0,0,0,4.08-8.57,11.16,11.16,0,0,0-2.69-8.93,1.64,1.64,0,0,0-1.12-.64C233.85,159,233.43,159.51,233.65,159.13Z"/><path class="cls-6" d="M184.69,171.53a3.6,3.6,0,0,0-.18,2.44,3,3,0,0,0,1.85-1.24C186.7,172.05,186.11,171,184.69,171.53Z"/><path class="cls-6" d="M192.53,176.45a3.14,3.14,0,0,0,.62,1.58,1.07,1.07,0,0,0,1.52.13,1.48,1.48,0,0,0,.25-1,1.75,1.75,0,0,0-.37-1.16C194.26,175.66,193.68,175.62,192.53,176.45Z"/><path class="cls-6" d="M201.81,174.67,203,176.6a1.28,1.28,0,0,0,.51-1.66A1.06,1.06,0,0,0,201.81,174.67Z"/><path class="cls-6" d="M208,175.73a3.09,3.09,0,0,0,1.82,1.9,1.18,1.18,0,0,0,.39-1.52C209.92,175.61,209.23,175.38,208,175.73Z"/><path class="cls-6" d="M255.18,159.89a7.15,7.15,0,0,0,.26,2.25C256.05,161.83,256.27,161,255.18,159.89Z"/><path class="cls-6" d="M261.85,140.83a3.5,3.5,0,0,0,1.85,2.1C264.22,142.14,263.46,140.89,261.85,140.83Z"/><path class="cls-6" d="M268,146.42l-.57,1.22.39.54a1.08,1.08,0,0,0,1.12-1.12C268.86,146.46,268.17,146,268,146.42Z"/><path class="cls-6" d="M261.12,155.32a3.68,3.68,0,0,0,.5,2.45,1.16,1.16,0,0,0,.24-1.47C261.56,155.84,260.9,155.66,261.12,155.32Z"/><path class="cls-6" d="M224,143.11a39.65,39.65,0,0,0,8.78,12.4,25,25,0,0,1,3.65,3.85c1.89,2.8,2.12,6.46,1.39,9.76a37.74,37.74,0,0,1-3.92,9.3"/><path class="cls-6" d="M192,187.72c-2.22,3.6-3.86,7.31-2,11.82,1.3,3.16,5.43,5.29,7.71,6.28a31.56,31.56,0,0,0,6.4,2.12,50.74,50.74,0,0,0,28-3c4-1.64,7.93-3.93,10.24-7.58"/><path class="cls-17" d="M255.7,128c-.83-3.86-1.74-7.86-4.2-10.94s-7-4.89-10.47-3c-3,1.62-4.24,5.31-4.81,8.71A47.59,47.59,0,0,0,238,145.4a12.91,12.91,0,0,0,3.28,5.78c3.07,2.71,8.09,2.34,11.32-.18s4.84-6.68,5.15-10.76S256.62,132.25,255.7,128Z"/><path class="cls-17" d="M194.75,125.46c-5,2.07-8.42,7-9.69,12.27s-.62,10.81.72,16.06,4,10.76,9.14,12.07c4.89,1.25,10-2.25,12.16-6.81s1.91-9.86,1.22-14.85a33.89,33.89,0,0,0-3.47-11.83C202.83,128.75,199.58,125.67,194.75,125.46Z"/><path class="cls-6" d="M205.82,130.41l1.31-6.72"/><path class="cls-6" d="M200.34,126.47l.92-5.66"/><path class="cls-6" d="M193.23,125l-1.31-5.79"/><path class="cls-6" d="M189.15,129.63l-4.61-5.4"/><path class="cls-6" d="M184.68,135l-5.27-3.16"/><path class="cls-6" d="M182.7,142.4l-7.63-2.64"/><path class="cls-6" d="M198.76,167.54l.53,5.13"/><path class="cls-6" d="M202.45,165.43l2.36,4.48"/><path class="cls-6" d="M206.53,162.8l2.63,2.63"/><path class="cls-6" d="M193.1,166.09l-.92,4.74"/><path class="cls-6" d="M232.72,129.63l-4.61-3.95"/><path class="cls-6" d="M233,123.18l-4.6-5.92"/><path class="cls-6" d="M237.06,115.94l-2.1-6.45"/><path class="cls-6" d="M242.2,112v-6.32"/><path class="cls-6" d="M249.31,112.91l.79-7.37"/><path class="cls-6" d="M254.18,117.91l2.76-6.18"/><path class="cls-6" d="M243.65,154.11,244,159"/><path class="cls-6" d="M248.78,154.38l2.11,4.87"/><path class="cls-6" d="M254.18,152.53l2.23,2.9"/><path class="cls-6" d="M256.68,147.27l4.87,3.42"/><path class="cls-1" d="M206.08,138.05c-1.65-2.41-5.3-2.86-7.81-1.39a9,9,0,0,0-4,7.35,18.25,18.25,0,0,0,2,8.41,11.66,11.66,0,0,0,3.45,4.77,5,5,0,0,0,5.56.41c1.71-1.18,2.13-3.51,2.22-5.58C207.69,147.39,208.76,142,206.08,138.05Z"/><path class="cls-1" d="M255.37,125.64a5.23,5.23,0,0,0-5.76-2.67,7,7,0,0,0-4.86,4.43,11,11,0,0,0-.13,6.74,25.26,25.26,0,0,0,2.86,6.2,10,10,0,0,0,2.08,2.7,3.81,3.81,0,0,0,3.16,1c2-.43,2.9-2.74,3.23-4.76C256.67,134.83,257.31,129.89,255.37,125.64Z"/><path class="cls-6" d="M227.5,164.05,226,169.29"/></g><path class="cls-6" d="M32.91,669.93a7.86,7.86,0,0,0-2.86-4.17,8.18,8.18,0,0,0-6.66-1.22"/><g id="headphones"><ellipse class="cls-18" cx="130.32" cy="165.62" rx="31.78" ry="35.57" transform="translate(-12.68 10.82) rotate(-4.53)"/><ellipse class="cls-19" cx="130.22" cy="164.39" rx="26.69" ry="29.87" transform="translate(-12.58 10.8) rotate(-4.53)"/><path class="cls-18" d="M124.28,178.82l4.12-.63a113,113,0,0,1-4-74.08L120,99.73a125.84,125.84,0,0,0,4.33,79.09Z"/><path class="cls-18" d="M132.91,177.1l4.66-.89c.22-16.72.35-28.77.44-37.6,0-4.86.09-10.28.49-17.68.46-8.73,1.18-15.93,1.75-20.86l-3.74.34c-.72,4.66-1.64,11.55-2.23,20-.55,8-.57,13.79-.6,17.69C133.63,146.79,133.45,159.59,132.91,177.1Z"/><ellipse class="cls-20" cx="128.55" cy="163.31" rx="14.11" ry="9.32" transform="translate(-15.42 13.42) rotate(-5.64)"/><path class="cls-2" d="M200.46,16.08c-6.32-2-18.23-4.74-28.56,1.09a28.47,28.47,0,0,0-6.77,5.49A242.15,242.15,0,0,0,141,52.26c-3.77,6.13-8.73,14.61-14.07,25-8.18,16-8.64,19.67-7,22.44,3.2,5.45,14.2,7,20.49,2.72,5.28-3.57,4.2-9.12,7.74-20.33S157,63.61,167.54,48.87c5.88-8.2,10.75-14.91,19.1-22.35A106.91,106.91,0,0,1,200.46,16.08Z"/></g></g></g></svg>