<?xml version="1.0" encoding="UTF-8"?>
<svg width="65px" height="37px" viewBox="0 0 65 37" version="1.1" xmlns="http://www.w3.org/2000/svg" xmlns:xlink="http://www.w3.org/1999/xlink">
    <title>cloud_small_2</title>
    <g id="Page-1" stroke="none" stroke-width="1" fill="none" fill-rule="evenodd" stroke-linecap="round" stroke-linejoin="round">
        <g id="clouds_all" transform="translate(-2073.000000, -690.000000)" fill-rule="nonzero" stroke="#AC4351" stroke-width="5">
            <g id="cloud_small_2" transform="translate(2076.028487, 693.290923)">
                <path d="M0.87,15.1858211 C2.87,16.6758211 3.75,19.2658211 5.14,21.3758211 C6.53,23.4858211 9.31,25.2758211 11.47,23.9658211 C10.8010734,25.4297208 11.3554751,27.1622259 12.75,27.9658211 C14.1646634,28.6832464 15.8764471,28.4438361 17.04,27.3658211 C17.89,26.5758211 18.4,25.4558211 19.35,24.7958211 C21.41,23.3458211 24.27,24.7958211 26.05,26.6058211 C27.83,28.4158211 29.48,30.6558211 31.97,31.0658211 C33.4324065,31.2067074 34.87985,30.6771054 35.9060058,29.6256844 C36.9321615,28.5742634 37.4264077,27.1143691 37.25,25.6558211 C41.48,21.2558211 49.83,26.6558211 54.75,22.9958211 C56.7,21.5658211 57.52,19.0858211 58.22,16.7758211 C58.6418002,15.7088961 58.8128661,14.5593334 58.72,13.4158211 C58.41,11.3558211 56.45,9.89582112 54.44,9.32582112 C52.394284,8.93256163 50.3216589,8.69521262 48.24,8.61582112 C42.47,7.93582112 37.38,4.61582112 31.85,2.83582112 C23.6812411,0.238973225 14.8121404,1.02789811 7.23,5.02582112 C3.45,7.00582112 -0.18,10.4358211 0.87,15.1858211 Z" id="Path" fill="#E1B3C0"></path>
                <path d="M56.72,16.8058211 C59.16,15.5758211 59.28,11.8058211 57.51,9.73582112 C55.74,7.66582112 52.84,6.96582112 50.11,6.81582112 C47.38,6.66582112 44.61,6.93582112 41.97,6.26582112 C39.33,5.59582112 36.85,3.96582112 34.32,2.73582112 C23.2687127,-2.39335084 10.1995325,-0.182683295 1.45,8.29582112 C0.606408564,8.97189813 0.0812938299,9.96780538 0,11.0458211 C0.11,12.9258211 2.73,13.6758211 4.44,12.8758211 C6.15,12.0758211 7.27,10.4158211 8.66,9.14582112 C10.05,7.87582112 12.23,6.98582112 13.79,8.05582112 C14.43,8.49582112 14.85,9.19582112 15.5,9.60582112 C16.0860081,9.91270439 16.7298703,10.0932583 17.39,10.1358211 C21.45,10.6758211 25.62,11.2158211 29.58,10.1958211 C29.9870707,10.0522046 30.4232336,10.0109924 30.85,10.0758211 C32.46,10.4858211 31.85,13.3958211 33.28,14.1658211 L35.98,12.1658211 C36.1798353,13.5863516 36.7258613,14.935963 37.57,16.0958211 C38.4721382,17.2675192 40.093526,17.6070768 41.39,16.8958211 C42.28,16.2658211 42.69,14.9958211 43.73,14.6858211 C45.4,14.1958211 46.54,16.5658211 48.24,16.9458211 C49.94,17.3258211 51.34,15.5958211 52.24,14.0858211 C52.7144398,15.1586854 53.4844361,16.0743567 54.46,16.7258211 C55.51,17.3158211 57.06,17.0558211 56.72,16.8058211 Z" id="Path" fill="#F4F0F1"></path>
            </g>
        </g>
    </g>
</svg>