<?xml version="1.0" encoding="UTF-8"?>
<svg width="125px" height="82px" viewBox="0 0 125 82" version="1.1" xmlns="http://www.w3.org/2000/svg" xmlns:xlink="http://www.w3.org/1999/xlink">
    <title>cloud_small_0</title>
    <g id="Page-1" stroke="none" stroke-width="1" fill="none" fill-rule="evenodd" stroke-linecap="round" stroke-linejoin="round">
        <g id="clouds_all" transform="translate(-527.000000, -65.000000)" fill-rule="nonzero" stroke="#AC4351" stroke-width="5">
            <g id="cloud_small_0" transform="translate(530.214743, 67.707165)">
                <path d="M95.633744,39.1495784 C101.383744,40.9595784 108.163744,35.8795784 108.033744,29.8495784 C110.363744,32.6195784 115.253744,32.0795784 117.513744,29.2595784 C119.773744,26.4395784 119.643744,22.1995784 117.893744,19.0195784 C116.563744,16.5995784 113.953744,14.5295784 111.243744,15.0195784 C114.883744,14.3895784 115.423744,8.66957839 112.603744,6.27957839 C109.783744,3.88957839 105.543744,4.22957839 102.073744,5.47957839 C99.473744,-0.310421613 90.513744,-1.79042161 86.193744,2.83957839 C82.663744,-2.24042161 73.053744,-0.0904216132 72.023744,6.00957839 C69.8403094,5.99073946 68.0048568,7.64434415 67.7966113,9.81790699 C67.5883658,11.9914698 69.0764524,13.9634974 71.223744,14.3595784 C67.0820291,10.2434138 60.4036952,10.2122483 56.223744,14.2895784 C52.393744,10.7695784 49.263744,6.46957839 45.033744,3.52957839 C40.803744,0.589578387 34.663744,-0.640421613 30.543744,2.52957839 C29.9437338,2.87554182 29.5654283,3.50731199 29.543744,4.19957839 C29.633744,4.86957839 30.733744,5.19957839 30.983744,4.59957839 C26.2243697,3.41756774 21.1860565,4.52732834 17.363744,7.59957839 C16.4857706,8.2309077 15.7947411,9.08778423 15.363744,10.0795784 C15.0750837,11.1561538 15.0306679,12.2836316 15.233744,13.3795784 L16.483744,24.3795784 C10.053744,23.8895784 4.11374402,30.5195784 5.30374402,36.8595784 C3.05374402,35.0195784 -0.946255977,37.8595784 1.07374402,43.9795784 C4.06390283,46.8638362 8.2249425,48.1941864 12.333744,47.5795784 C9.83374402,51.2595784 13.063744,56.5795784 17.333744,57.9095784 C21.603744,59.2395784 26.143744,57.7795784 30.333744,56.3595784 C35.333744,59.4095784 41.163744,62.3095784 46.733744,60.5995784 C50.193744,59.5295784 52.913744,56.8295784 56.213744,55.3295784 C62.563744,52.4495784 70.843744,54.0795784 75.973744,49.3295784 C76.973744,48.4495784 77.793744,47.3295784 79.043744,46.9295784 C81.883744,46.0195784 85.333744,49.1895784 87.693744,47.3595784 C86.823744,43.7695784 90.803744,37.6195784 95.633744,39.1495784 Z" id="Path" fill="#F4F0F1"></path>
                <path d="M96.533744,40.0195784 C94.533744,38.2495784 92.443744,36.4195784 89.853744,35.7795784 C87.263744,35.1395784 84.073744,36.1095784 83.103744,38.5895784 C80.9027557,37.249075 78.257381,36.8435997 75.7559341,37.4633275 C73.2544872,38.0830553 71.1043662,39.6766039 69.783744,41.8895784 C69.023744,40.0595784 66.133744,41.7595784 65.713744,43.6995784 C65.293744,45.6395784 65.343744,48.1695784 63.503744,48.9195784 C61.663744,49.6695784 60.123744,48.0795784 58.503744,47.2995784 C55.703744,45.9795784 52.243744,46.8895784 49.773744,48.7695784 C47.303744,50.6495784 45.603744,53.3495784 43.963744,55.9795784 C43.2687256,54.6463226 42.3251048,53.4583108 41.183744,52.4795784 C39.0430147,54.0124266 36.5920723,55.0569786 34.003744,55.5395784 C36.003744,54.6695784 36.123744,51.5395784 34.423744,50.2095784 C32.5494641,49.0004028 30.0524022,49.5113674 28.803744,51.3595784 C29.303744,46.9195784 22.913744,43.6195784 19.583744,46.5895784 C17.7656328,44.1201618 14.5768304,43.0826953 11.653744,44.0095784 C12.223744,42.3395784 10.853744,40.5195784 9.19374402,39.9295784 C7.47482769,39.4946689 5.67223046,39.5153488 3.96374402,39.9895784 C2.82374402,40.1995784 1.50374402,40.5495784 1.06374402,41.6295784 C0.463744023,43.1195784 -0.716255977,49.0295784 0.593744023,49.9795784 C5.59374402,53.5995784 4.50374402,59.2195784 16.063744,58.7595784 C19.413744,58.6195784 14.513744,65.5395784 21.413744,67.1895784 C19.9346644,67.9630583 18.9805851,69.4668629 18.9108986,71.1345234 C18.8412121,72.8021839 19.6665055,74.3803431 21.0758987,75.2745236 C22.4852919,76.168704 24.2646645,76.2430585 25.743744,75.4695784 C27.853744,74.2895784 28.743744,71.7295784 29.213744,69.3695784 C31.3696348,72.1744986 35.1118302,73.2303588 38.415879,71.9659603 C41.7199278,70.7015617 43.8011895,67.4171718 43.533744,63.8895784 C46.5872701,65.9171963 50.3084632,66.6807938 53.913744,66.0195784 C56.913744,65.4495784 60.653744,64.0195784 62.763744,66.3395784 C63.70285,64.4254571 63.6049094,62.1652879 62.503744,60.3395784 L74.573744,59.4995784 L73.263744,52.1995784 C76.333744,53.1395784 79.653744,53.6595784 82.743744,52.7695784 C85.833744,51.8795784 88.613744,49.3395784 88.973744,46.1495784 C91.5166373,47.0598463 94.3527571,46.5285516 96.393744,44.7595784 C95.873744,43.6495784 95.323744,42.5395784 96.533744,40.0195784 Z" id="Path" fill="#E1B3C0"></path>
            </g>
        </g>
    </g>
</svg>