<?xml version="1.0" encoding="UTF-8"?>
<svg width="135px" height="70px" viewBox="0 0 135 70" version="1.1" xmlns="http://www.w3.org/2000/svg" xmlns:xlink="http://www.w3.org/1999/xlink">
    <title>cloud_small_1</title>
    <g id="Page-1" stroke="none" stroke-width="1" fill="none" fill-rule="evenodd" stroke-linecap="round" stroke-linejoin="round">
        <g id="clouds_all" transform="translate(-970.000000, -78.000000)" fill-rule="nonzero" stroke="#AC4351" stroke-width="5">
            <g id="cloud_small_1" transform="translate(972.589889, 80.568641)">
                <path d="M122.188598,57.1781028 C125.768598,57.1281028 128.728598,53.8081028 129.188598,50.2581028 C129.648598,46.7081028 128.068598,43.1481028 125.758598,40.4081028 C124.591406,38.9087641 123.064079,37.728869 121.318598,36.9781028 C125.318598,33.0681028 124.478598,25.7881028 120.408598,21.9181028 C116.338598,18.0481028 110.098598,17.1881028 104.598598,18.3381028 C98.0147066,7.53541381 86.52221,0.679583872 73.8885979,0.0181028159 C70.1485979,-0.131897184 65.8285979,0.608102816 63.8885979,3.82810282 C59.2957793,0.34210345 52.8076079,0.908737091 48.8885979,5.13810282 C44.8885979,2.27810282 39.7585979,0.578102816 34.8885979,1.52810282 C30.0185979,2.47810282 25.6485979,6.52810282 25.2685979,11.4481028 C19.9979925,10.4425148 14.545351,11.092221 9.65859788,13.3081028 C4.87859788,15.6481028 1.00859788,20.1381028 0.168597881,25.3981028 C-0.754431167,30.9836648 2.17948305,36.4949981 7.32859788,38.8481028 C16.0785979,42.8481028 26.4885979,39.1181028 35.9485979,41.0281028 C42.5485979,42.3581028 48.3285979,46.3981028 54.8585979,48.0281028 C68.3785979,51.3581028 83.4985979,44.0281028 96.1585979,49.7781028 C100.228598,51.6381028 103.618598,54.7181028 107.508598,56.9481028 C111.398598,59.1781028 115.428598,57.2781028 122.188598,57.1781028 Z" id="Path" fill="#F4F0F1"></path>
                <path d="M120.378598,57.6581028 L121.018598,52.3481028 C118.307151,49.9710999 114.458856,49.392879 111.168598,50.8681028 C112.164906,46.5680135 110.048393,42.151583 106.072518,40.2343432 C102.096642,38.3171035 97.3229679,39.4109609 94.5785979,42.8681028 C94.0985979,43.4881028 93.5785979,44.2181028 92.8485979,44.4081028 C92.0875605,44.4729891 91.3252912,44.2981566 90.6685979,43.9081028 C87.6629342,42.6518937 84.2438014,42.8662826 81.4185979,44.4881028 C80.2529292,40.911799 76.7761367,38.610727 73.0286903,38.9353466 C69.2812439,39.2599661 66.2519287,42.1246245 65.7185979,45.8481028 C61.4104244,42.7114596 56.0334053,41.4130623 50.7685979,42.2381028 C52.1085979,39.1181028 48.5385979,35.2381028 45.3085979,36.2381028 C46.1909768,33.3422287 44.6470738,30.2632198 41.7985979,29.2381028 C40.6886454,28.9361409 39.536748,28.8179109 38.3885979,28.8881028 L27.2085979,28.8881028 C26.5173311,26.9296664 25.0129858,25.365806 23.0828301,24.5991106 C21.1526744,23.8324152 18.9852773,23.9377881 17.1385979,24.8881028 C15.5485979,22.8881028 12.7285979,20.8281028 10.8485979,22.5181028 C10.0585979,23.2181028 4.47859788,26.5781028 3.42859788,26.6381028 C-0.261402119,26.8681028 -2.10140212,35.8981028 7.21859788,40.5181028 C7.98859788,40.8981028 6.99859788,42.3681028 7.62859788,42.9381028 C8.11285836,43.2913105 8.71419378,43.4452237 9.30859788,43.3681028 C13.232113,43.2606445 16.9178903,41.4633268 19.4185979,38.4381028 C23.3404302,45.0341087 30.6683761,48.8299071 38.3185979,48.2281028 C38.2350919,51.1810427 39.8312033,53.9265241 42.4386598,55.3150477 C45.0461163,56.7035712 48.2150231,56.4955589 50.6185979,54.7781028 C53.8732831,61.1843703 61.3764727,64.1805099 68.1485979,61.7781028 C70.1485979,60.9881028 72.0285979,59.7081028 74.1485979,59.5181028 C77.1485979,59.2381028 79.9585979,61.1681028 82.9585979,61.6581028 C85.9585979,62.1481028 89.8985979,59.6581028 88.6085979,56.8581028 C92.8469304,59.2563664 97.6193645,60.5526255 102.488598,60.6281028 C106.228598,60.6781028 110.228598,60.0481028 113.488598,61.8581028 C114.848598,62.6081028 115.978598,63.7381028 117.398598,64.3581028 C119.758551,65.4150277 122.536576,64.6470842 124.018598,62.5281028 C125.358598,60.3881028 124.238598,57.0781028 120.378598,57.6581028 Z" id="Path" fill="#E1B3C0"></path>
            </g>
        </g>
    </g>
</svg>