<?xml version="1.0" encoding="UTF-8"?>
<svg width="124px" height="64px" viewBox="0 0 124 64" version="1.1" xmlns="http://www.w3.org/2000/svg" xmlns:xlink="http://www.w3.org/1999/xlink">
    <title>cloud_small_4</title>
    <g id="Page-1" stroke="none" stroke-width="1" fill="none" fill-rule="evenodd" stroke-linecap="round" stroke-linejoin="round">
        <g id="clouds_all" transform="translate(-2280.000000, -638.000000)" fill-rule="nonzero" stroke="#AC4351" stroke-width="5">
            <g id="cloud_small_4" transform="translate(2282.662965, 641.128448)">
                <path d="M116.815523,27.2682963 C115.675523,23.9282963 112.485523,21.6082963 109.115523,20.5982963 C105.745523,19.5882963 102.115523,19.5982963 98.6055226,19.7382963 C96.8279597,19.6217943 95.0519662,19.9880497 93.4655226,20.7982963 C92.4655226,21.4282963 91.4655226,22.4382963 90.3755226,21.9482963 C90.0806324,21.7853506 89.8138884,21.5760072 89.5855226,21.3282963 C86.7755226,18.7182963 82.3055226,19.3282963 78.7055226,20.6082963 C75.1055226,21.8882963 71.4055226,23.7382963 67.6355226,23.0782963 C62.4455226,22.1882963 58.0655226,16.7082963 52.9955226,18.0782963 C51.0955226,18.6182963 49.1755226,20.0782963 47.3555226,19.3382963 C44.4655226,18.0982963 45.1655226,12.4482963 42.0455226,12.1082963 C40.5055226,11.9382963 39.3055226,13.3482963 37.8955226,13.9682963 C34.8955226,15.3082963 31.5955226,12.8482963 28.3355226,12.2082963 C23.8055226,11.3182963 19.4355226,14.0482963 15.6155226,16.6382963 C11.7955226,19.2282963 8.06552264,21.7782963 4.37552264,24.4682963 C1.86552264,26.2982963 -0.904477356,29.2082963 0.375522644,32.0482963 C0.804950458,32.8809128 1.42097635,33.603032 2.17552264,34.1582963 C5.01721494,36.4974201 8.38316508,38.113488 11.9855226,38.8682963 C13.0435607,38.9921813 14.0647612,39.3325815 14.9855226,39.8682963 C17.2955226,41.4982963 16.6655226,44.9782963 17.0355226,47.7682963 C17.6455226,52.2582963 21.5855226,55.7682963 25.9855226,56.9282963 C30.3855226,58.0882963 35.0655226,57.0582963 39.2155226,55.2282963 C41.0575298,54.5386381 42.6878407,53.3805314 43.9455226,51.8682963 C44.5955226,50.9782963 45.0155226,49.9382963 45.6655226,49.0382963 C47.8355226,46.0382963 51.9255226,45.2882963 55.6155226,44.9782963 C55.4655226,49.1382963 58.3655226,52.9782963 62.0555226,54.8982963 C65.7455226,56.8182963 70.1055226,57.0582963 74.2455226,56.6482963 C76.9555226,56.3782963 80.0055226,55.5882963 81.2455226,53.1682963 C82.2455226,51.1682963 81.8355226,48.5082963 83.3655226,46.8782963 C84.8955226,45.2482963 87.4955226,45.5482963 89.6755226,45.9682963 L99.6755226,47.8882963 C101.267909,48.3267032 102.943513,48.3679066 104.555523,48.0082963 C106.125523,47.5182963 107.495523,45.9482963 107.155523,44.3382963 C106.815523,42.7282963 105.155523,41.3382963 105.995523,39.9982963 C109.970963,41.1727685 114.251028,39.6600218 116.605523,36.2482963 C118.815523,32.9082963 118.515523,28.0882963 116.815523,27.2682963 Z" id="Path" fill="#E1B3C0"></path>
                <path d="M114.105523,22.1882963 C109.235523,13.6682963 98.2555226,10.9582963 88.4455226,10.5182963 C78.6355226,10.0782963 68.2955226,10.9582963 59.5355226,6.51829627 C56.5355226,4.99829627 53.8555226,2.90829627 50.8255226,1.51829627 C47.7955226,0.128296268 44.1655226,-0.651703732 41.0855226,0.708296268 C40.3384709,1.10679183 39.5590204,1.44131997 38.7555226,1.70829627 C37.4319453,1.89139866 36.0839997,1.76823611 34.8155226,1.34829627 C30.4179918,0.349127794 25.8461635,0.407389474 21.4755226,1.51829627 C16.8055226,2.79829627 12.6555226,5.46829627 8.59552264,8.09829627 C4.26552264,10.8982963 -0.624477356,14.8382963 0.0655226438,19.9382963 C0.395522644,22.3282963 1.96552264,24.4882963 1.71552264,27.6582963 C5.05975646,29.4795789 8.85786234,30.2989144 12.6555226,30.0182963 C13.573842,29.9001655 14.5010756,29.8666914 15.4255226,29.9182963 C16.5795967,30.1240783 17.7067393,30.4595374 18.7855226,30.9182963 C29.2155226,34.7382963 40.7855226,29.0682963 51.7855226,30.6182963 C56.3655226,31.2582963 60.7855226,33.1482963 65.3655226,33.3982963 C71.1955226,33.7282963 76.8755226,31.3982963 82.7155226,31.1082963 C88.3955226,30.7882963 94.3355226,32.3282963 99.7155226,30.3282963 C104.435523,28.6382963 108.815523,24.1582963 114.105523,22.1882963 Z" id="Path" fill="#F4F0F1"></path>
            </g>
        </g>
    </g>
</svg>