<?xml version="1.0" encoding="UTF-8"?>
<svg width="1337px" height="861px" viewBox="0 0 1337 861" version="1.1" xmlns="http://www.w3.org/2000/svg" xmlns:xlink="http://www.w3.org/1999/xlink">
    <title>cloud_big_0</title>
    <g id="Page-1" stroke="none" stroke-width="1" fill="none" fill-rule="evenodd" stroke-linecap="round">
        <g id="clouds_all" transform="translate(3.000000, -92.000000)" stroke="#AC4351" stroke-width="5">
            <g id="cloud_big_0" transform="translate(-0.000000, 94.592517)">
                <path d="M1205.06849,684.004227 C1231.14849,689.824227 1265.23849,692.254227 1277.71849,668.624227 C1283.29849,658.054227 1282.37849,645.014227 1287.71849,634.324227 C1293.44849,622.874227 1305.31849,616.004227 1313.90849,606.504227 C1319.66442,600.046 1324.08292,592.510753 1326.90849,584.334227 C1337.00849,555.624227 1327.17849,521.034227 1303.46849,501.944227 C1279.75849,482.854227 1243.86849,480.614227 1217.96849,496.604227 L1221.34849,476.334227 C1216.62855,473.244175 1211.45196,470.915724 1206.00849,469.434227 C1245.41849,467.704227 1276.30849,432.954227 1285.24849,394.534227 C1294.18849,356.114227 1273.24849,320.604227 1234.59849,295.074227 C1201.65849,273.354227 1156.59849,275.274227 1120.84849,292.074227 C1127.72849,281.364227 1112.27849,265.674227 1101.45849,272.384227 C1117.83849,249.114227 1106.91849,214.084227 1083.76849,197.534227 C1060.61849,180.984227 1029.54849,179.734227 1001.76849,185.694227 C1008.76849,167.854227 991.478487,145.604227 972.458487,147.964227 C982.628487,142.644227 978.048487,123.574227 966.568487,123.454227 C978.238487,103.554227 1019.56849,102.794227 1014.63849,80.2742268 C1013.63849,75.6142268 1010.36849,71.7842268 1007.09849,68.2742268 C963.818487,22.3242268 893.648487,3.81422685 833.328487,22.4242268 C823.518487,6.86422685 804.168487,-2.10577315 785.948487,0.424226847 C767.728487,2.95422685 751.608487,16.9442268 746.468487,34.6242268 C701.588487,6.54422685 632.968487,33.4842268 619.168487,84.6242268 C612.458487,74.4242268 592.758487,81.3042268 593.858487,93.4642268 C582.148487,71.9842268 557.388487,58.3342268 532.968487,59.9042268 L527.148487,73.6542268 C484.808487,21.6542268 408.688487,0.0642268475 345.358487,22.1842268 C282.028487,44.3042268 235.768487,108.554227 235.038487,175.634227 C234.948487,183.444227 235.268487,191.834227 230.958487,198.354227 C227.058487,204.254227 220.168487,207.354227 213.648487,210.084227 C163.158487,231.474227 104.478487,263.014227 101.268487,317.754227 C100.868487,324.504227 101.338487,331.604227 98.3484873,337.674227 C95.6884873,343.084227 90.6584873,346.864227 85.8084873,350.444227 L36.8884873,386.494227 C22.8884873,396.824227 8.08848727,408.184227 2.53848727,424.694227 C-3.01151273,441.204227 6.22848727,463.604227 23.6084873,464.694227 C-0.661512731,471.104227 -6.39151273,506.064227 7.21848727,527.124227 C20.8284873,548.184227 45.8784873,558.374227 69.3284873,567.354227 C35.3284873,578.354227 19.5484873,623.234227 34.6584873,655.614227 C49.7684873,687.994227 88.9884873,705.054227 124.338487,699.884227 C107.778487,731.194227 118.338487,770.354227 136.598487,800.694227 C150.598487,823.994227 170.408487,845.594227 196.498487,853.254227 C222.588487,860.914227 255.288487,850.004227 264.908487,824.574227 C265.668487,833.814227 274.608487,841.574227 283.908487,841.074227 C293.208487,840.574227 301.168487,831.794227 307.198487,818.164227 C327.198487,815.224227 337.538487,786.614227 324.048487,771.564227 C328.499685,775.107551 334.947167,774.539467 338.710194,770.272392 C342.473221,766.005316 342.230608,759.537404 338.158487,755.564227 C357.398487,764.324227 382.158487,758.754227 395.788487,742.564227 C405.028487,750.244227 419.788487,750.154227 428.948487,742.374227 C438.108487,734.594227 440.548487,720.014227 434.448487,709.664227 C440.928487,714.114227 451.328487,706.984227 449.538487,699.344227 C449.378487,705.684227 460.538487,707.684227 462.588487,701.684227 C475.508487,715.684227 501.938487,721.164227 519.998487,715.104227 C519.858487,730.804227 538.328487,741.764227 546.998487,753.174227 C556.508487,765.664227 584.308487,760.174227 582.388487,756.794227 C591.158487,757.304227 595.938487,751.624227 599.078487,743.414227 C602.218487,735.204227 609.438487,712.114227 602.548487,706.644227 C609.468487,717.814227 621.758487,732.244227 630.318487,722.284227 C636.538487,748.034227 656.978487,766.634227 681.978487,775.364227 C698.578487,781.164227 724.138487,781.624227 739.568487,773.194227 C745.798487,769.784227 762.808487,761.554227 767.568487,756.294227 C800.018487,720.464227 809.338487,661.084227 827.878487,617.834227 C830.458487,622.104227 845.558487,626.834227 849.968487,624.444227 C854.378487,622.054227 886.188487,618.944227 889.168487,607.744227 C901.078487,631.964227 913.618487,661.154227 939.238487,669.634227 C959.148487,676.234227 981.738487,677.844227 1000.54849,668.564227 C1019.35849,659.284227 1032.54849,637.034227 1026.70849,616.884227 C1033.83849,624.754227 1049.77849,618.524227 1049.70849,607.884227 C1050.47849,616.074227 1051.80849,624.524227 1056.32849,631.394227 C1060.84849,638.264227 1069.39849,643.104227 1077.32849,640.984227 C1074.32849,655.664227 1081.03849,669.884227 1087.45849,684.684227 C1101.33849,716.684227 1100.31849,698.014227 1144.39849,725.684227 C1154.80849,732.214227 1169.20849,728.014227 1177.96849,719.394227 C1186.72849,710.774227 1191.14849,698.824227 1205.06849,684.004227 Z" id="Path" fill="#F4F0F1" fill-rule="nonzero" stroke-linejoin="round"></path>
                <path d="M1270.52849,662.094227 C1265.96742,652.635893 1256.64974,646.382026 1246.16849,645.744227 C1243.48849,634.694227 1228.16849,629.194227 1219.04849,636.014227 C1202.26527,618.818753 1181.93721,605.486249 1159.47849,596.944227 C1152.80849,594.414227 1145.30849,592.334227 1138.67849,594.944227 C1132.04849,597.554227 1128.03849,607.034227 1133.01849,612.134227 L1104.31849,596.134227 C1102.31849,574.134227 1076.40849,558.024227 1055.79849,565.874227 C1071.07849,554.534227 1084.92849,538.554227 1085.79849,519.544227 C1086.66849,500.534227 1068.50849,480.704227 1050.24849,486.074227 C1057.63849,471.604227 1048.47849,451.394227 1032.73849,447.404227 C1039.8547,428.261986 1036.77569,406.816903 1024.5612,390.4501 C1012.34672,374.083297 992.664338,365.029243 972.288487,366.404227 C972.158487,359.024227 965.468487,352.404227 958.078487,352.284227 L955.078487,362.164227 C952.740314,358.12467 948.742447,355.319214 944.148487,354.494227 C942.868487,370.004227 956.318487,382.184227 967.448487,393.064227 C978.578487,403.944227 989.018487,420.634227 981.128487,434.064227 C975.888487,442.994227 964.808487,446.064227 955.418487,450.464227 C946.028487,454.864227 936.478487,463.974227 939.308487,473.884227 L922.958487,469.324227 C924.37375,479.709344 921.990937,490.256223 916.248487,499.024227 C907.918487,491.144227 906.938487,478.534227 904.428487,467.354227 C901.918487,456.174227 895.048487,443.664227 883.598487,443.184227 L886.858487,457.514227 L868.968487,447.954227 C858.538487,452.734227 874.388487,469.724227 868.668487,479.674227 C867.318487,482.024227 864.868487,483.574227 863.468487,485.894227 C862.068487,488.214227 862.558487,492.114227 865.228487,492.544227 C861.228487,485.314227 848.718487,489.474227 846.548487,497.434227 C844.378487,505.394227 848.878487,513.544227 853.628487,520.284227 C858.342261,526.974463 863.489988,533.348158 869.038487,539.364227 C871.038487,541.494227 873.168487,543.984227 872.858487,546.864227 C872.638487,548.864227 871.258487,550.514227 869.948487,552.034227 L855.418487,568.754227 C844.108487,567.324227 835.348487,558.614227 825.478487,552.884227 C815.608487,547.154227 800.868487,545.304227 794.588487,554.814227 C791.438487,559.584227 791.168487,566.314227 786.588487,569.724227 C784.318487,571.414227 781.398487,571.924227 778.908487,573.244227 C771.908487,576.934227 769.838487,585.694227 765.488487,592.244227 C761.138487,598.794227 749.618487,602.424227 746.408487,595.244227 C742.908487,605.584227 739.411821,615.91756 735.918487,626.244227 C748.118487,630.664227 752.218487,647.484227 746.358487,659.064227 C740.498487,670.644227 727.768487,677.224227 715.058487,679.884227 C702.058487,682.594227 683.608487,677.084227 684.788487,663.814227 C685.628487,654.484227 696.428487,648.384227 697.188487,639.044227 C698.188487,627.184227 683.568487,621.044227 671.928487,618.614227 C677.608487,613.244227 676.138487,602.364227 669.228487,598.694227 C662.318487,595.024227 652.488487,599.884227 651.228487,607.604227 C651.298487,600.794227 640.878487,599.454227 635.228487,603.284227 C629.578487,607.114227 625.558487,613.604227 618.988487,615.364227 C612.048487,617.234227 604.068487,612.044227 602.988487,604.934227 C594.528487,615.774227 583.988487,627.644227 570.288487,627.494227 C584.378487,640.384227 577.208487,664.714227 563.698487,678.204227 C550.188487,691.694227 531.818487,699.984227 519.988487,714.964227 C529.788487,735.614227 549.698487,761.274227 572.548487,761.054227 C572.548487,761.054227 574.658487,762.714227 574.448487,763.804227 L584.148487,757.384227 L578.688487,752.314227 C597.028487,753.804227 612.608487,731.564227 604.928487,714.844227 C610.778487,724.434227 625.208487,727.394227 634.348487,720.844227 C634.348487,734.264227 641.878487,746.904227 652.078487,755.624227 C662.278487,764.344227 674.998487,769.624227 687.838487,773.534227 C701.208487,777.614227 715.408487,780.394227 729.148487,777.784227 C751.718487,773.504227 768.948487,755.784227 784.598487,738.944227 C803.928487,718.144227 824.308487,695.104227 826.718487,666.814227 C827.898487,653.024227 824.778487,638.214227 831.128487,625.924227 L839.328487,638.634227 C844.057658,632.638394 846.932076,625.391523 847.598487,617.784227 C850.418487,624.634227 859.198487,627.354227 866.428487,625.714227 C873.658487,624.074227 879.658487,619.224227 885.368487,614.514227 C891.087726,637.734947 906.561845,657.351699 927.812412,668.32097 C949.06298,679.290242 974.016909,680.541931 996.258487,671.754227 C1018.51849,662.954227 1037.25849,642.164227 1037.79849,618.224227 L1051.71849,617.724227 C1049.16849,630.974227 1063.31849,644.394227 1076.41849,641.154227 C1075.29849,662.434227 1079.71849,685.064227 1093.94849,700.924227 C1106.01849,714.374227 1123.51849,721.364227 1140.35849,727.924227 C1143.93849,729.314227 1147.61849,730.724227 1151.44849,730.734227 C1155.27849,730.744227 1158.83849,729.404227 1162.26849,727.884227 C1182.80418,718.710259 1199.44682,702.588141 1209.26849,682.354227 C1211.98849,684.354227 1214.70849,686.354227 1215.87849,690.204227 C1228.67849,692.494227 1241.97849,694.774227 1254.52849,691.384227 C1267.07849,687.994227 1277.78849,677.594227 1270.52849,662.094227 Z" id="Path" fill="#E1B3C0" fill-rule="nonzero" stroke-linejoin="round"></path>
                <path d="M1062.60849,374.654227 C1093.69849,339.464227 1143.99849,327.764227 1190.95849,327.854227 C1200.58849,327.854227 1210.39849,328.334227 1219.46849,331.574227 C1228.53849,334.814227 1236.88849,341.224227 1240.46849,350.184227 C1234.89718,357.005528 1234.74403,366.761414 1240.09849,373.754227 C1222.02529,372.630148 1204.10726,377.687117 1189.28849,388.094227 C1184.28849,391.624227 1188.43849,404.184227 1187.19849,410.184227 C1185.95849,416.184227 1175.00849,408.004227 1169.09849,411.544227 C1163.18849,415.084227 1160.23849,422.394227 1160.54849,429.274227 C1160.85849,436.154227 1164.00849,442.634227 1167.98849,448.274227 L1119.84849,441.584227 C1120.9657,446.156555 1123.49977,450.258669 1127.08849,453.304227 C1107.51343,448.689173 1090.35027,436.967907 1078.92849,420.414227 C1075.75849,415.784227 1073.05849,410.804227 1069.38849,406.554227 C1061.77849,397.744227 1050.60849,392.794227 1042.18849,384.754227 C1031.18849,374.284227 1025.74849,359.434227 1021.57849,344.864227 C1017.19849,329.554227 1013.86849,313.424227 1016.69849,297.754227 C1019.52849,282.084227 1029.69849,266.854227 1044.96849,262.174227 C1045.87875,266.792742 1047.42691,271.262221 1049.56849,275.454227 L1052.56849,261.454227 C1057.30849,258.564227 1063.56849,260.764227 1067.92849,264.264227 C1072.28849,267.764227 1075.53849,272.474227 1080.17849,275.534227 C1084.81849,278.594227 1091.74849,279.464227 1095.44849,275.314227 C1082.26849,285.624227 1068.54849,296.604227 1062.02849,312.024227 C1054.45849,329.924227 1058.02849,350.344227 1061.64849,369.444227 C1062.14849,372.174227 1062.98849,375.354227 1062.60849,374.654227 Z" id="Path" fill="#E1B3C0" fill-rule="nonzero" stroke-linejoin="round"></path>
                <path d="M996.478487,199.944227 L974.168487,212.944227 C971.408487,214.544227 968.388487,216.494227 967.718487,219.624227 C966.608487,224.884227 972.798487,229.884227 971.088487,234.884227 C970.208487,237.504227 967.498487,239.004227 964.918487,240.014227 C952.145403,244.886242 937.840083,243.602526 926.138487,236.534227 C924.411412,235.290299 922.511177,234.306489 920.498487,233.614227 C914.198487,231.954227 907.688487,239.614227 910.318487,245.554227 C907.475877,246.898069 904.300324,247.374576 901.188487,246.924227 C908.801326,256.296841 911.348368,268.800503 908.008487,280.404227 C907.157485,283.641178 905.550066,286.629811 903.318487,289.124227 C898.078487,294.584227 889.388487,295.374227 883.818487,300.504227 C875.888487,307.804227 877.158487,320.504227 872.928487,330.504227 C868.998487,339.684227 860.028487,347.214227 860.288487,357.194227 C860.348487,359.384227 860.988487,361.724227 862.728487,363.054227 C867.118487,366.414227 872.728487,360.854227 875.418487,356.054227 L884.818487,339.234227 C887.468487,334.494227 890.428487,329.454227 895.368487,327.234227 C900.308487,325.014227 907.608487,327.354227 908.168487,332.754227 C907.618487,326.934227 908.108487,319.394227 913.648487,317.534227 C917.178487,316.354227 920.878487,318.274227 924.368487,319.534227 C927.858487,320.794227 932.578487,321.024227 934.478487,317.884227 C935.418487,316.324227 935.368487,314.384227 935.288487,312.574227 L933.808487,279.304227 C933.678487,276.434227 933.618487,273.304227 935.308487,270.994227 C938.688487,266.324227 946.308487,268.304227 950.398487,272.404227 C957.127179,279.532627 958.559534,290.158607 953.958487,298.814227 C951.958487,302.354227 948.958487,306.414227 950.898487,309.964227 C952.838487,313.514227 957.698487,313.194227 961.508487,312.344227 C974.168487,309.534227 987.308487,303.754227 993.508487,292.344227 C1003.44849,274.034227 991.778487,248.754227 1003.63849,231.634227 C1006.92849,232.154227 1008.41849,227.224227 1006.91849,224.244227 C1005.41849,221.264227 1002.43849,219.144227 1001.36849,215.994227 C999.278487,209.804227 1004.86849,201.284227 999.708487,197.274227 C997.478487,197.304227 995.358487,198.664227 996.478487,199.944227 Z" id="Path" fill="#E1B3C0" fill-rule="nonzero" stroke-linejoin="round"></path>
                <path d="M1056.73849,193.554227 C1048.27849,196.404227 1039.18849,197.434227 1031.11849,201.264227 C1023.04849,205.094227 1015.83849,212.934227 1016.62849,221.834227 C1016.93849,225.334227 1018.44849,228.654227 1018.62849,232.164227 C1019.19849,244.004227 1005.04849,251.924227 1003.55849,263.684227 C1003.10849,267.274227 1003.89849,270.894227 1004.68849,274.434227 L1006.80849,283.954227 C1006.31849,278.954227 1009.59849,274.484227 1012.70849,270.554227 C1019.22849,262.294227 1026.70849,253.434227 1037.12849,251.754227 C1048.86849,249.854227 1061.65849,257.754227 1072.26849,252.334227 C1078.52849,249.164227 1081.89849,242.194227 1083.71849,235.404227 C1086.71849,224.254227 1085.80849,210.524227 1076.55849,203.614227 C1074.45849,202.044227 1071.90849,200.784227 1070.78849,198.414227 C1069.78849,196.414227 1070.11849,193.944227 1069.04849,191.994227 C1067.63849,189.434227 1064.12849,188.564227 1061.35849,189.514227 C1058.58849,190.464227 1056.47849,192.824227 1056.73849,193.554227 Z" id="Path" fill="#E1B3C0" fill-rule="nonzero" stroke-linejoin="round"></path>
                <path d="M974.088487,74.9642268 C963.038487,80.2342268 950.258487,72.7942268 940.918487,64.8742268 C931.578487,56.9542268 921.278487,47.5942268 909.078487,48.7242268 C906.700879,48.8482389 904.413896,49.6767046 902.508487,51.1042268 C896.798487,55.7742268 899.418487,64.8742268 902.508487,71.5642268 C887.238487,74.5642268 877.408487,93.3842268 883.678487,107.564227 C873.207029,109.368579 864.955999,117.484085 862.978487,127.924227 C850.684568,126.292621 838.234238,129.454439 828.208487,136.754227 C823.278487,140.384227 818.788487,145.594227 818.788487,151.754227 C818.788487,156.154227 821.108487,160.264227 821.348487,164.664227 C821.562142,170.482291 818.182933,175.835022 812.838487,178.144227 C821.558487,183.584227 830.048487,191.454227 830.948487,201.694227 C831.478487,207.694227 829.238487,213.694227 826.718487,219.184227 C824.198487,224.674227 821.298487,230.184227 820.378487,236.184227 C819.458487,242.184227 820.948487,248.984227 825.778487,252.664227 C830.608487,256.344227 838.988487,255.054227 841.098487,249.364227 C842.238487,246.284227 841.418487,242.874227 841.168487,239.604227 C840.748159,233.710444 842.261322,227.840354 845.478487,222.884227 C845.909753,222.072238 846.620094,221.443586 847.478487,221.114227 C848.788487,220.754227 850.038487,221.724227 851.218487,222.384227 C855.948487,225.024227 862.218487,222.624227 865.578487,218.384227 C868.938487,214.144227 869.998487,208.564227 870.688487,203.194227 C871.659875,195.568116 872.057658,187.879866 871.878487,180.194227 C871.778487,175.844227 871.548487,171.194227 873.628487,167.404227 C875.708487,163.614227 881.028487,161.184227 884.478487,163.884227 C885.798487,164.884227 886.598487,166.424227 887.738487,167.634227 C890.798487,170.884227 896.108487,171.314227 900.148487,169.394227 C904.188487,167.474227 907.048487,163.634227 908.748487,159.504227 C910.018487,156.504227 911.978487,152.414227 915.198487,153.164227 C917.198487,153.634227 918.198487,155.854227 919.198487,157.684227 C923.415282,165.221139 931.749129,169.484693 940.328487,168.494227 C941.956685,168.415481 943.48783,167.696634 944.588487,166.494227 C945.312089,165.378639 945.662289,164.06189 945.588487,162.734227 C945.665687,156.28352 943.14269,150.073343 938.588487,145.504227 C934.758487,141.694227 929.738487,139.304227 925.708487,135.694227 C921.678487,132.084227 918.658487,126.374227 920.638487,121.344227 C923.478487,114.114227 933.478487,113.884227 941.148487,114.884227 C943.348487,112.184227 940.218487,108.354227 937.148487,106.694227 C934.078487,105.034227 930.198487,102.934227 930.488487,99.4642268 C930.708487,96.9142268 933.328487,95.1642268 935.868487,94.8542268 C938.408487,94.5442268 940.938487,95.2742268 943.468487,95.6242268 C955.858487,97.3542268 968.828487,88.7442268 974.088487,74.9642268 Z" id="Path" fill="#E1B3C0" fill-rule="nonzero" stroke-linejoin="round"></path>
                <path d="M497.478487,715.184227 C509.186794,709.693758 518.195792,699.726203 522.478487,687.524227 C513.670177,682.289712 503.624624,679.500432 493.378487,679.444227 C515.426369,653.897956 529.823941,622.652384 534.918487,589.294227 C556.408487,602.994227 586.298487,580.974227 589.638487,555.704227 C592.978487,530.434227 579.018487,506.354227 564.638487,485.284227 C550.258487,464.214227 534.478487,442.174227 533.218487,416.714227 C520.767555,426.839373 503.989162,429.860465 488.788487,424.714227 C506.888487,453.464227 510.458487,490.884227 498.128487,522.554227 C494.008487,533.114227 487.748487,543.554227 477.768487,548.884227 C471.768487,552.104227 464.698487,553.404227 459.648487,557.884227 C454.598487,562.364227 453.568487,572.334227 459.848487,574.884227 C453.118487,573.134227 446.068487,571.374227 439.298487,572.944227 C432.528487,574.514227 426.298487,580.594227 426.998487,587.504227 C428.138487,598.254227 444.488487,606.024227 439.628487,615.674227 L423.258487,618.884227 C438.019169,633.979491 446.239251,654.2818 446.138487,675.394227 C431.688487,670.394227 414.248487,675.764227 405.218487,688.114227 C403.378487,690.634227 401.688487,693.534227 398.828487,694.764227 C392.198487,697.584227 386.308487,689.914227 382.148487,684.034227 C370.780916,668.339949 352.616792,658.999778 333.238487,658.884227 C344.508487,670.884227 347.238487,690.124227 339.838487,704.824227 C335.638487,696.614227 331.088487,688.014227 323.288487,683.084227 C315.488487,678.154227 303.428487,678.714227 298.758487,686.664227 C296.828487,689.964227 296.448487,693.914227 295.368487,697.574227 C289.828487,716.404227 262.308487,724.034227 247.868487,710.734227 C240.938883,722.004939 236.407866,734.583534 234.558487,747.684227 C217.688487,744.364227 197.258487,735.094227 197.998487,717.914227 C198.228487,712.404227 200.818487,707.284227 202.088487,701.914227 C205.13395,689.072567 200.472766,675.628649 190.131747,667.428259 C179.790728,659.22787 165.638361,657.752712 153.828487,663.644227 C161.418487,675.774227 158.888487,691.444227 155.588487,705.364227 C151.948487,720.744227 147.648487,736.734227 151.258487,752.114227 C154.868487,767.494227 169.588487,781.634227 185.048487,778.334227 C174.558487,786.544227 185.808487,805.174227 199.128487,805.564227 C212.448487,805.954227 223.528487,796.144227 233.728487,787.564227 C243.928487,778.984227 256.928487,770.634227 269.728487,774.474227 L251.848487,797.014227 C256.343607,801.70023 262.575386,804.320327 269.068487,804.254227 C262.898487,814.174227 266.648487,835.114227 277.408487,839.664227 C288.168487,844.214227 303.198487,831.194227 308.988487,817.794227 C319.478487,812.274227 331.688487,803.614227 329.778487,791.884227 C328.328487,783.024227 333.698487,774.364227 338.778487,769.884227 C343.858487,765.404227 346.528487,758.664227 342.108487,753.484227 C354.638487,766.004227 369.348487,761.074227 385.108487,757.104227 C393.208487,755.054227 402.198487,749.264227 401.418487,740.954227 C405.498487,744.634227 409.778487,748.434227 415.068487,749.954227 C425.068487,752.754227 436.218487,745.574227 439.308487,735.674227 C442.398487,725.774227 438.308487,714.484227 430.608487,707.504227 C433.925391,711.753337 439.576406,713.424218 444.670694,711.662114 C449.764983,709.90001 453.175873,705.094634 453.158487,699.704227 C452.156709,704.801206 455.088148,709.851183 460.010992,711.509004 C464.933835,713.166826 470.322929,710.918879 472.608487,706.254227 C471.608487,710.924227 475.748487,715.434227 480.378487,716.624227 C486.058643,718.293216 492.157439,717.779633 497.478487,715.184227 L497.478487,715.184227 Z" id="Path" fill="#E1B3C0" fill-rule="nonzero" stroke-linejoin="round"></path>
                <path d="M149.148487,308.514227 C147.308487,311.084227 145.488487,313.824227 144.998487,316.954227 C143.998487,323.534227 149.458487,329.724227 155.768487,331.874227 C162.078487,334.024227 168.968487,333.124227 175.568487,332.214227 C137.600055,349.564011 103.375764,374.145312 74.8084873,404.584227 L93.0584873,415.744227 C79.5346926,428.092917 65.166534,439.48386 50.0584873,449.834227 C56.0584873,455.174227 52.2384873,465.264227 46.8284873,471.224227 C41.4184873,477.184227 34.2784873,483.174227 34.5084873,491.224227 C34.7384873,499.274227 42.4784873,504.994227 50.1584873,507.054227 C57.8384873,509.114227 66.0084873,508.654227 73.7084873,510.654227 C93.8984873,515.894227 106.708487,537.984227 105.708487,558.824227 C104.708487,579.664227 92.6184873,598.664227 77.1784873,612.684227 C70.4484873,618.794227 62.2384873,627.184227 66.0284873,635.444227 C69.0284873,641.914227 77.5284873,643.254227 84.6484873,643.114227 C113.812588,642.443161 141.879171,631.862645 164.228487,613.114227 C170.898487,607.474227 177.408487,600.224227 177.548487,591.484227 C177.688487,582.744227 167.648487,574.194227 160.238487,578.824227 C160.528487,567.824227 174.578487,563.574227 185.548487,563.044227 C196.518487,562.514227 210.478487,560.464227 213.248487,549.884227 C216.888487,536.134227 198.188487,528.234227 184.078487,526.534227 C188.828487,520.324227 195.358487,515.734227 202.078487,511.664227 C221.014139,500.115766 241.83536,491.991733 263.588487,487.664227 C272.338487,485.934227 282.418487,484.014227 286.808487,476.254227 C292.218487,466.684227 284.548487,453.984227 274.268487,450.064227 C263.988487,446.144227 252.528487,448.384227 241.778487,450.684227 C231.028487,452.984227 219.558487,455.244227 209.268487,451.364227 C204.878487,449.704227 200.658487,446.624227 199.268487,442.134227 C197.048487,434.874227 203.068487,427.604227 209.608487,423.734227 C216.148487,419.864227 223.848487,417.484227 228.818487,411.734227 C233.788487,405.984227 233.598487,394.954227 226.358487,392.674227 C242.358487,392.794227 255.088487,380.144227 266.948487,369.404227 C278.808487,358.664227 294.948487,348.474227 309.838487,354.404227 C317.058487,336.854227 296.698487,315.314227 278.768487,321.524227 C275.608487,310.884227 282.458487,299.764227 290.698487,292.314227 C298.938487,284.864227 308.968487,279.164227 315.388487,270.104227 C321.808487,261.044227 322.958487,246.634227 313.948487,240.104227 C309.228487,236.704227 302.168487,235.624227 300.028487,230.204227 C295.438487,218.524227 319.028487,214.514227 321.308487,202.204227 C323.758487,188.804227 301.998487,186.554227 293.038487,176.304227 C281.418487,163.024227 295.638487,142.894227 310.278487,133.044227 C331.407215,118.852705 355.142388,108.995624 380.108487,104.044227 C391.528487,101.784227 405.258487,98.9642268 409.328487,88.0442268 C412.328487,79.9142268 407.958487,70.4042268 400.938487,65.2942268 C393.918487,60.1842268 384.938487,58.6642268 376.238487,58.2942268 C342.521004,56.8698243 309.943993,70.6518249 287.48596,95.84179 C265.027927,121.031755 255.059656,154.970505 260.328487,188.304227 C261.238487,194.034227 262.488487,200.354227 259.448487,205.304227 C257.618487,208.304227 254.508487,210.234227 251.508487,212.054227 C237.998487,220.274227 228.508487,228.504227 214.998487,236.724227 C216.998487,242.444227 219.328487,246.314227 225.348487,245.554227 C213.158487,249.024227 169.058487,280.824227 149.148487,308.514227 Z" id="Path" fill="#E1B3C0" fill-rule="nonzero" stroke-linejoin="round"></path>
                <path d="M1121.64849,291.294227 C1097.36849,298.104227 1077.40849,318.534227 1071.15849,342.964227" id="Path"></path>
                <path d="M1003.41849,184.964227 C979.654907,192.88736 960.956534,211.456269 952.868487,235.164227" id="Path"></path>
            </g>
        </g>
    </g>
</svg>