<?xml version="1.0" encoding="UTF-8"?>
<svg width="134px" height="99px" viewBox="0 0 134 99" version="1.1" xmlns="http://www.w3.org/2000/svg" xmlns:xlink="http://www.w3.org/1999/xlink">
    <title>cloud_pink</title>
    <g id="Page-1" stroke="none" stroke-width="1" fill="none" fill-rule="evenodd" stroke-linecap="round" stroke-linejoin="round">
        <g id="clouds_all" transform="translate(-1408.000000, -445.000000)" fill="#E1B3C0" fill-rule="nonzero" stroke="#AC4351" stroke-width="5">
            <path d="M1506.15849,478.856744 C1513.98999,479.011326 1521.60689,481.443731 1528.07849,485.856744 C1531.49248,488.087655 1534.36839,491.048953 1536.49849,494.526744 C1541.81849,503.706744 1538.93849,516.436744 1530.84849,523.306744 C1522.75849,530.176744 1510.56849,531.206744 1500.84849,526.866744 C1499.47661,533.059247 1494.88236,538.036567 1488.8193,539.898941 C1482.75624,541.761315 1476.16008,540.221319 1471.54849,535.866744 C1468.01849,532.546744 1464.29849,527.276744 1459.75849,528.966744 C1458.16849,529.556744 1457.02849,530.966744 1455.75849,532.086744 C1446.30849,540.666744 1431.09849,535.716744 1420.45849,528.676744 C1416.38849,525.986744 1412.17849,522.566744 1411.36849,517.756744 C1410.10849,510.226744 1417.79849,504.206744 1425.07849,501.956744 C1415.99849,497.586744 1414.07849,484.676744 1418.38849,475.546744 C1424.93849,461.546744 1443.55849,454.776744 1457.56849,461.226744 C1455.68849,454.406744 1463.79849,448.886744 1470.84849,448.226744 C1488.12849,446.586744 1505.22849,461.136744 1506.15849,478.856744 Z" id="cloud_pink"></path>
        </g>
    </g>
</svg>