<svg xmlns="http://www.w3.org/2000/svg" viewBox="0 0 2781.16 955.25"><defs><style>.cls-1{fill:#e1b3c0;}.cls-1,.cls-2,.cls-3,.cls-4{stroke:#ac4351;stroke-width:5px;}.cls-1,.cls-2,.cls-4{stroke-linecap:round;}.cls-1,.cls-2{stroke-linejoin:round;}.cls-2,.cls-3{fill:#f4f0f1;}.cls-3,.cls-4{stroke-miterlimit:10;}.cls-4{fill:none;}</style></defs><g id="Layer_2" data-name="Layer 2"><g id="Layer_5" data-name="Layer 5"><g id="cloud_small_4"><path class="cls-1" d="M2402,670.92c-1.14-3.34-4.33-5.66-7.7-6.67s-7-1-10.51-.86a9.88,9.88,0,0,0-5.14,1.06c-1,.63-2,1.64-3.09,1.15a3.14,3.14,0,0,1-.79-.62c-2.81-2.61-7.28-2-10.88-.72s-7.3,3.13-11.07,2.47c-5.19-.89-9.57-6.37-14.64-5-1.9.54-3.82,2-5.64,1.26-2.89-1.24-2.19-6.89-5.31-7.23-1.54-.17-2.74,1.24-4.15,1.86-3,1.34-6.3-1.12-9.56-1.76-4.53-.89-8.9,1.84-12.72,4.43s-7.55,5.14-11.24,7.83c-2.51,1.83-5.28,4.74-4,7.58a6.08,6.08,0,0,0,1.8,2.11,22.79,22.79,0,0,0,9.81,4.71,7.76,7.76,0,0,1,3,1c2.31,1.63,1.68,5.11,2.05,7.9.61,4.49,4.55,8,8.95,9.16s9.08.13,13.23-1.7a11.31,11.31,0,0,0,4.73-3.36c.65-.89,1.07-1.93,1.72-2.83,2.17-3,6.26-3.75,9.95-4.06-.15,4.16,2.75,8,6.44,9.92s8.05,2.16,12.19,1.75c2.71-.27,5.76-1.06,7-3.48,1-2,.59-4.66,2.12-6.29s4.13-1.33,6.31-.91l10,1.92a10.1,10.1,0,0,0,4.88.12c1.57-.49,2.94-2.06,2.6-3.67s-2-3-1.16-4.34a9.59,9.59,0,0,0,10.61-3.75C2404,676.56,2403.7,671.74,2402,670.92Z"/><path class="cls-2" d="M2399.29,665.84c-4.87-8.52-15.85-11.23-25.66-11.67s-20.15.44-28.91-4c-3-1.52-5.68-3.61-8.71-5s-6.66-2.17-9.74-.81a15,15,0,0,1-2.33,1A8.73,8.73,0,0,1,2320,645a28.51,28.51,0,0,0-13.34.17c-4.67,1.28-8.82,3.95-12.88,6.58-4.33,2.8-9.22,6.74-8.53,11.84.33,2.39,1.9,4.55,1.65,7.72a19.82,19.82,0,0,0,10.94,2.36,15.11,15.11,0,0,1,2.77-.1,15.57,15.57,0,0,1,3.36,1c10.43,3.82,22-1.85,33-.3,4.58.64,9,2.53,13.58,2.78,5.83.33,11.51-2,17.35-2.29,5.68-.32,11.62,1.22,17-.78C2389.62,672.29,2394,667.81,2399.29,665.84Z"/></g><g id="cloud_small_3"><path class="cls-1" d="M2212.63,640.67a13.07,13.07,0,0,0-14.29-3,2.15,2.15,0,0,1-2.86-.31c-4.31-3.14-10.34-3.06-15.28-1.06-2.86,1.15-5.67,2.91-8.74,2.69s-5.41-2.21-7.67-4.12c-.81-.68-1.68-1.85-1-2.67a11.42,11.42,0,0,0-8.06,5.68,15.41,15.41,0,0,0-13,.13,3.62,3.62,0,0,0-1.51,1.16,4.2,4.2,0,0,0-.46,2.14c-.11,3.89.29,8.66,3.82,10.28,2.4,1.1,5.19.16,7.65-.78,1.53,4.81,7.27,6.59,12.19,7.67,2.14.47,4.74.79,6.17-.87a12,12,0,0,1,1.11-1.44,3,3,0,0,1,3.61.21,22.62,22.62,0,0,1,2.7,2.83,9.42,9.42,0,0,0,15.52-3.19c1.71,1.63,3.8,3.07,6.15,3.18s4.91-1.58,5-3.93a10.28,10.28,0,0,0,5.16.5c1.7-.44,3.21-2.12,2.8-3.82,2.3.71,4.5-1.92,4.35-4.31A11.29,11.29,0,0,0,2212.63,640.67Z"/><path class="cls-2" d="M2207.32,636.82c-.59-5.78-7.27-9.58-13-8.48a13.54,13.54,0,0,1-3.77.55c-2.09-.2-3.72-1.81-5.59-2.76a9.85,9.85,0,0,0-12.43,3.48c-3.68-4.84-11-5-16.8-3.11a8.27,8.27,0,0,0-4.25,2.56c-1,1.34-1.08,3.51.25,4.53-2.39-.17-4.36,2.43-4.09,4.82a6.91,6.91,0,0,0,4.42,5.26,19.39,19.39,0,0,0,7.07,1.13,279.11,279.11,0,0,0,28.34-.59,79,79,0,0,1,9.6-.35c2.68.13,5.53.55,7.95-.63S2208.83,638.4,2207.32,636.82Z"/></g><g id="cloud_small_2"><path class="cls-1" d="M2079.42,711c2,1.49,2.88,4.08,4.27,6.19s4.17,3.9,6.33,2.59a3.12,3.12,0,0,0,1.28,4,3.79,3.79,0,0,0,4.29-.6c.85-.79,1.36-1.91,2.31-2.57,2.06-1.45,4.92,0,6.7,1.81s3.43,4.05,5.92,4.46a4.85,4.85,0,0,0,5.28-5.41c4.23-4.4,12.58,1,17.5-2.66,1.95-1.43,2.77-3.91,3.47-6.22a7.49,7.49,0,0,0,.5-3.36c-.31-2.06-2.27-3.52-4.28-4.09a41.15,41.15,0,0,0-6.2-.71c-5.77-.68-10.86-4-16.39-5.78a32,32,0,0,0-24.62,2.19C2082,702.82,2078.37,706.25,2079.42,711Z"/><path class="cls-2" d="M2135.27,712.62c2.44-1.23,2.56-5,.79-7.07s-4.67-2.77-7.4-2.92-5.5.12-8.14-.55-5.12-2.3-7.65-3.53a29.43,29.43,0,0,0-32.87,5.56,3.9,3.9,0,0,0-1.45,2.75c.11,1.88,2.73,2.63,4.44,1.83s2.83-2.46,4.22-3.73,3.57-2.16,5.13-1.09c.64.44,1.06,1.14,1.71,1.55a4.73,4.73,0,0,0,1.89.53c4.06.54,8.23,1.08,12.19.06a2.63,2.63,0,0,1,1.27-.12c1.61.41,1,3.32,2.43,4.09l2.7-2a8.75,8.75,0,0,0,1.59,3.93,3,3,0,0,0,3.82.8c.89-.63,1.3-1.9,2.34-2.21,1.67-.49,2.81,1.88,4.51,2.26s3.1-1.35,4-2.86a6.18,6.18,0,0,0,2.22,2.64C2134.06,713.13,2135.61,712.87,2135.27,712.62Z"/></g><g id="cloud_med_2"><path class="cls-2" d="M1694.74,682.63c-11.48-1.86-20.68-13-20.3-24.66s10.29-22.18,21.87-23.28c-2.87-3.63-1.91-9.19.93-12.84s7.13-5.83,11.27-7.91c9.75-4.87,21.83-9.66,30.9-3.63,8.06,5.35,11.08,17.94,20.63,19.49,6.72,1.1,12.73-4.25,16.7-9.79s7.39-12,13.49-15,15.67.42,15.26,7.21c10.63-9.93,30.24-7.19,37.74,5.28,8.52-4.07,18.26-6.67,27.4-4.33S1887.78,624,1887,633.43c8.87-1.94,18.21-3.88,26.91-1.27s16.25,11.46,14.06,20.28c6-1.93,12-3.89,18.3-3.64s12.77,3.16,15.6,8.74c2.71,5.32,1.53,11.77-.38,17.43-3.63,10.77-11.64,21.91-23,22.22-5.51.16-11.44-2.24-16.26.41-2.73,1.5-4.42,4.3-6.42,6.68-10.71,12.72-30.5,12.94-46.29,7.77s-30.16-14.58-46.44-18c-17.38-3.61-35.33,0-53,1.06C1744.6,696.73,1720.72,686.84,1694.74,682.63Z"/><path class="cls-1" d="M1945,675.77a14.38,14.38,0,0,1-12.45,24.75v4.16l-5-.6a16.58,16.58,0,0,1-3.58,13c-3.15,3.79-8.21,6.57-9,11.45-.12.77-.18,1.68-.83,2.1a2.72,2.72,0,0,1-1.5.25c-7.16,0-12.44,8.12-19.6,7.94-5.48-.13-9.84-5.15-15.3-5.59-2.35-.18-4.72.51-7.06.25-8.41-.92-12.29-13-20.73-13.57-2.32-.16-4.68.62-7,.14-2.72-.57-4.72-2.79-6.87-4.55s-5.16-3.19-7.62-1.89c-1.65.86-2.58,2.74-4.23,3.6-4,2.07-7.88-2.76-9.77-6.8a6.57,6.57,0,0,1-6.64,2.87,5.82,5.82,0,0,1-4.57-5.44l-14,16.72a13.54,13.54,0,0,1-3.28,3.13c-1.3.78-2.84,1.11-4.14,1.89-2.24,1.35-3.48,3.82-5.06,5.9s-4.05,4-6.57,3.32c-1.47-.38-2.62-1.56-4.08-2-3-.88-5.78,1.59-8.36,3.35a21.54,21.54,0,0,1-25.27-1.33,11.57,11.57,0,0,0-3.29-2.34c-2.38-.88-5.09.33-7.56-.26-6.43-1.54-6-13-12.47-14.43-1.85-.42-3.92.16-5.6-.73-4.31-2.3-.36-9.64-3.19-13.61-1.15-1.61-3.16-2.28-4.92-3.15-4.64-2.28-8.32-6.75-9-11.87s2.12-10.69,6.89-12.67a13.89,13.89,0,0,0,3.14-1.41c3.82-2.86.57-8.85.88-13.62a8.5,8.5,0,0,1,15.72-3.9c1-4.67,7.75-7.1,11.11-3.7,2.15,2.18,3.25,6.27,6.32,6.13,2-.09,3.62-2.15,5.55-1.75,1.31.27,2.11,1.55,2.92,2.61a13.06,13.06,0,0,0,8.54,4.91c3,.4,6.24-.25,9,1s4.26,5.73,1.56,7.14a4,4,0,0,0,4.93-1.78c1.1,5.73,8.16,7.69,13.94,8.49a5.35,5.35,0,0,0,2.64-.08c2.22-.85,2.28-4,1.47-6.25,1.43-2.54,2.92-5.16,5.25-6.91s5.75-2.41,8.16-.76c1.72,1.17,2.69,3.31,4.59,4.16,5.7,2.57,9.93-8.51,16.1-7.45,4.64.8,5.13,7.17,7.53,11.22,3.74,6.32,14.71,6,18.12-.48l6.13,4.86a4.43,4.43,0,0,0,1.72,1c2.23.47,3.62-2.46,5.73-3.33,3.52-1.46,6.44,3.14,7.15,6.88s1.91,8.57,5.71,8.93,6.85-4.54,10.57-3.63,4,6.76,7.35,8.74c3.08,1.82,7.29-.88,8.17-4.35s-.59-7.1-2.41-10.18c-.76-1.29-1.62-2.75-1.21-4.18a4.55,4.55,0,0,1,2.76-2.59,16.77,16.77,0,0,1,19.65,5c-.7-5.19,1.24-11.05,5.81-13.63s11.55-.3,12.6,4.84a7,7,0,0,1,7-4.94C1940.78,670.92,1943,674,1945,675.77Z"/></g><path id="cloud_pink" class="cls-1" d="M1508.68,481.38a40.32,40.32,0,0,1,21.92,7,27.54,27.54,0,0,1,8.42,8.67c5.32,9.18,2.44,21.91-5.65,28.78s-20.28,7.9-30,3.56a17.62,17.62,0,0,1-29.3,9c-3.53-3.32-7.25-8.59-11.79-6.9-1.59.59-2.73,2-4,3.12-9.45,8.58-24.66,3.63-35.3-3.41-4.07-2.69-8.28-6.11-9.09-10.92-1.26-7.53,6.43-13.55,13.71-15.8-9.08-4.37-11-17.28-6.69-26.41,6.55-14,25.17-20.77,39.18-14.32-1.88-6.82,6.23-12.34,13.28-13C1490.65,449.11,1507.75,463.66,1508.68,481.38Z"/><g id="cloud_med_1"><path class="cls-2" d="M1622.5,719.86c-1-17.53-24.26-29.2-38.92-19.54,7.41-17.9-8.61-39.21-27.75-42.16-6.58-1-13.33-.42-19.87-1.63-9-1.66-16.93-6.56-24.89-11-14.18-7.9-29.92-14.73-46.09-13.23s-32.29,14-32.64,30.22c-.09,4.06.43,8.93-2.82,11.35-2,1.45-4.59,1.39-7,1.58-7.39.58-14.77,4.4-18.31,10.9s-2.31,15.64,3.66,20A34.76,34.76,0,0,0,1377,726.11c-1.94,4.2-3,9.19-1,13.39s7.72,6.7,11.45,4c-4.16,10,7.6,20.44,18.39,20s20-7.34,29.33-12.8,21.1-9.62,30.6-4.49c3.8,2.06,6.76,5.41,10.47,7.65,11,6.63,25.15,2,36.71-3.58,3.24-1.57,7-3.23,10.31-1.75,2,.88,3.28,2.71,4.68,4.33,12.33,14.35,37.12,15.32,50.53,2,6.24,3.43,13.52,5.84,20.46,4.21s12.94-8.49,11.56-15.48C1617,751.87,1624.36,752.13,1622.5,719.86Z"/><path class="cls-1" d="M1522.83,799.76l13.68,3-1.59-13.62a181.73,181.73,0,0,0,25.24,7.45c.88,5.24,10.08,5.72,11.5.6.86,6.93,7.13,12.52,14,13.5s14-2.2,18.71-7.39c7.3,4.8,18.36-5.12,14.37-12.9,10.58-2.09,12.67-16.13,12.34-26.91,9.17-7.39,11-22.31,3.89-31.69s-22-11.65-31.56-4.82c-10.82-10.18-31.69-4.73-36.15,9.44-4.72-3.52-9.75-7.17-15.6-7.81s-12.62,3-13.13,8.88c-2.57-12.65-19.31-15.2-32.22-14.89-6,.14-13.35,1.19-15.46,6.8-5.65-8.07-12-16.68-21.49-19.44s-22,4.43-20.28,14.14a57.08,57.08,0,0,0-42-1.74c-4.61,1.63-9.46,7.82-5.31,10.4a28.28,28.28,0,0,0-24.34,21.63l8.72,3.41c-5.07.8-10.24,2.39-13.9,6s-5.31,9.62-2.67,14c1.33,2.22,3.53,3.76,5.2,5.73,3.8,4.49,4.62,10.84,7.93,15.69s11.89,7.1,14.46,1.81c-3,11.23,8.13,22.62,19.75,23.11s22.25-7,29.46-16.17c-.9,6.64,9.71,10.91,13.66,5.49a17.23,17.23,0,0,0,30.72,9.86l-3.35,6.36a23.89,23.89,0,0,0,29-1.86C1524.21,820.78,1526.12,808.18,1522.83,799.76Z"/></g><g id="cloud_med_0"><path class="cls-2" d="M1398.87,263.65a27.27,27.27,0,0,0,19-18.7c1.83-6.54-1.94-16.12-8.53-14.49,6.95-6,12.3-15,10.7-24.05s-12.6-16.13-20.47-11.4a14.23,14.23,0,0,0-20.48-19.44c-4-16.52-24.35-26.83-40.05-20.31-2.48,1-5.43,2.37-7.64.84s-2-4.49-2.43-7c-1.66-10.1-14.86-15-24.32-11.07s-15.18,13.76-18,23.6c-11-10-31.75-4.44-36.16,9.76-12.39-5.68-26.52-11.43-39.19-6.41-6,2.39-10.91,7-15.21,11.86-4.86,5.5-9.31,11.71-10.73,18.91s.88,15.54,7.09,19.43c-9.16,2.58-18.4,7.22-23.12,15.49s-2.83,20.69,5.77,24.77c-5.54,4.55-11.46,10-11.86,17.17-.44,8,6.58,14.79,14.26,16.91s15.86.68,23.7-.77c-5.59,5.92-8.81,15-5.17,22.31s15.82,9.25,20.41,2.59c11.2-.29,19.26-11.28,30.1-14.09,7.8-2,16,.43,24.06-.09,15.46-1,27.9-12.48,41.88-19.16s29.8-8.57,45.25-10.35C1370,268.55,1382.38,267.93,1398.87,263.65Z"/><path class="cls-1" d="M1398.87,261.33,1397.18,247a23.25,23.25,0,0,0-10.2-.17,8.64,8.64,0,0,0-16.88-3.51c-1.29-3.63-2.94-7.33-6-9.65s-7.9-2.71-10.5.12-.66,8.65,3.17,8.43c-5.74-.09-9.15,8.52-4.91,12.39a11.54,11.54,0,0,0-19.93,11.07,23.1,23.1,0,0,0-23,2.06c-4.27-3.37-9.4-6.95-14.68-5.64s-6.94,10.69-1.57,11.57c-3.2-.65-6.65-1.28-9.63.06s-4.83,5.54-2.67,8a10.17,10.17,0,1,0-20.3-1c-4.6-.92-9.41-1.85-13.92-.56s-8.55,5.53-7.92,10.17c-4.93-3.29-12-1.42-16.24,2.68s-6.48,9.86-8.52,15.42a12.69,12.69,0,0,0-1.1,5.18c.44,5.77,8,7.92,13.7,7.06a33.53,33.53,0,0,0,13.74-5.38c5.7,8.58,21.05,7.35,25.31-2,3.2,6.64,14.3,7.08,18,.73,2,10.07,16.63,14.76,24.11,7.72,2.78-2.62,4.79-6.49,8.49-7.42,4.17-1,8.07,2.22,12.2,3.42,9,2.61,18.9-7.51,16.07-16.46a22.62,22.62,0,0,0,35.8-17.16c3.29,2.69,6.83,5.49,11.05,6s9.13-2.42,9.06-6.67c0-1.8-.91-3.48-1-5.26-.22-2.92,1.53-5.61,2-8.49S1399.07,263,1398.87,261.33Z"/></g><g id="cloud_small_1"><path class="cls-2" d="M1097.3,140.27c3.58-.05,6.54-3.37,7-6.92s-1.12-7.11-3.43-9.85a11.27,11.27,0,0,0-4.44-3.43c4-3.91,3.16-11.19-.91-15.06s-10.31-4.73-15.81-3.58A38.31,38.31,0,0,0,1049,83.11c-3.74-.15-8.06.59-10,3.81a11.21,11.21,0,0,0-15,1.31c-4-2.86-9.13-4.56-14-3.61s-9.24,5-9.62,9.92a26,26,0,0,0-15.61,1.86c-4.78,2.34-8.65,6.83-9.49,12.09a12.54,12.54,0,0,0,7.16,13.45c8.75,4,19.16.27,28.62,2.18,6.6,1.33,12.38,5.37,18.91,7,13.52,3.33,28.64-4,41.3,1.75,4.07,1.86,7.46,4.94,11.35,7.17S1090.54,140.37,1097.3,140.27Z"/><path class="cls-1" d="M1095.49,140.75l.64-5.31a9.22,9.22,0,0,0-9.85-1.48,9.44,9.44,0,0,0-16.59-8c-.48.62-1,1.35-1.73,1.54a3.66,3.66,0,0,1-2.18-.5,10.47,10.47,0,0,0-9.25.58,8.09,8.09,0,0,0-15.7,1.36,20.11,20.11,0,0,0-14.95-3.61c1.34-3.12-2.23-7-5.46-6a5.68,5.68,0,0,0-3.51-7,10.54,10.54,0,0,0-3.41-.35l-11.18,0a7.19,7.19,0,0,0-10.07-4c-1.59-2-4.41-4.06-6.29-2.37-.79.7-6.37,4.06-7.42,4.12-3.69.23-5.53,9.26,3.79,13.88.77.38-.22,1.85.41,2.42a2.34,2.34,0,0,0,1.68.43,13.6,13.6,0,0,0,10.11-4.93,20.15,20.15,0,0,0,18.9,9.79,7.78,7.78,0,0,0,12.3,6.55,14.3,14.3,0,0,0,17.53,7c2-.79,3.88-2.07,6-2.26,3-.28,5.81,1.65,8.81,2.14s6.94-2,5.65-4.8a29.1,29.1,0,0,0,13.88,3.77c3.74.05,7.74-.58,11,1.23,1.36.75,2.49,1.88,3.91,2.5a5.39,5.39,0,0,0,6.62-1.83C1100.47,143.48,1099.35,140.17,1095.49,140.75Z"/></g><g id="cloud_small_0"><path class="cls-2" d="M628.37,109.38c5.75,1.81,12.53-3.27,12.4-9.3,2.33,2.77,7.22,2.23,9.48-.59s2.13-7.06.38-10.24c-1.33-2.42-3.94-4.49-6.65-4,3.64-.63,4.18-6.35,1.36-8.74s-7.06-2.05-10.53-.8c-2.6-5.79-11.56-7.27-15.88-2.64-3.53-5.08-13.14-2.93-14.17,3.17a4.21,4.21,0,0,0-.8,8.35,10.69,10.69,0,0,0-15-.07C585.13,81,582,76.7,577.77,73.76s-10.37-4.17-14.49-1a2,2,0,0,0-1,1.67c.09.67,1.19,1,1.44.4a15.7,15.7,0,0,0-13.62,3,6,6,0,0,0-2,2.48,7.48,7.48,0,0,0-.13,3.3l1.25,11c-6.43-.49-12.37,6.14-11.18,12.48-2.25-1.84-6.25,1-4.23,7.12a13.37,13.37,0,0,0,11.26,3.6c-2.5,3.68.73,9,5,10.33s8.81-.13,13-1.55c5,3.05,10.83,5.95,16.4,4.24,3.46-1.07,6.18-3.77,9.48-5.27,6.35-2.88,14.63-1.25,19.76-6,1-.88,1.82-2,3.07-2.4,2.84-.91,6.29,2.26,8.65.43C619.56,114,623.54,107.85,628.37,109.38Z"/><path class="cls-1" d="M629.27,110.25c-2-1.77-4.09-3.6-6.68-4.24s-5.78.33-6.75,2.81a9.66,9.66,0,0,0-13.32,3.3c-.76-1.83-3.65-.13-4.07,1.81s-.37,4.47-2.21,5.22-3.38-.84-5-1.62c-2.8-1.32-6.26-.41-8.73,1.47s-4.17,4.58-5.81,7.21a11.79,11.79,0,0,0-2.78-3.5,18,18,0,0,1-7.18,3.06c2-.87,2.12-4,.42-5.33a4.1,4.1,0,0,0-5.62,1.15c.5-4.44-5.89-7.74-9.22-4.77a7.16,7.16,0,0,0-7.93-2.58c.57-1.67-.8-3.49-2.46-4.08a10.2,10.2,0,0,0-5.23.06c-1.14.21-2.46.56-2.9,1.64-.6,1.49-1.78,7.4-.47,8.35,5,3.62,3.91,9.24,15.47,8.78,3.35-.14-1.55,6.78,5.35,8.43a4.67,4.67,0,1,0,4.33,8.28c2.11-1.18,3-3.74,3.47-6.1a8,8,0,0,0,14.32-5.48,14.15,14.15,0,0,0,10.38,2.13c3-.57,6.74-2,8.85.32a6.27,6.27,0,0,0-.26-6l12.07-.84L606,122.43c3.07.94,6.39,1.46,9.48.57s5.87-3.43,6.23-6.62a7.48,7.48,0,0,0,7.42-1.39C628.61,113.88,628.06,112.77,629.27,110.25Z"/></g><g id="cloud_big_1"><path class="cls-3" d="M2577.89,104.65c22.82,5.14,40.36,27.8,39.63,51.17,28.79-5.62,60.46-10.82,86,3.66,15.42,8.76,26.29,23.57,36.67,38,13.07,18.09,26.33,36.55,33.41,57.71,18.42,55-15,121.86-70.09,140.12,20,5.08,34.38,26.64,31.34,47.08s-23,36.89-43.67,35.94c26.63,14.73,31.87,54.44,15.18,79.89s-49.11,37.1-79.53,36.2-59.45-12.43-87.21-24.91c-76.89,55.61-191.57,51.23-264-10.08A92.33,92.33,0,0,1,2151,476.51c-19.7,25.22-57.57,34.17-86.3,19.65,1.91,35.19-34.19,63-69.35,65.33S1926.66,548,1895,532.63c-19.13-9.3-40.69-21.82-43.48-42.91-1.13-8.49,1.09-17.49-2-25.49-5.68-14.71-24.68-17.54-40.18-20.43-51.94-9.69-108-44.11-118.16-95.73-60.16,27-151.64-6.63-179.9-66.23s4.33-135.5,51.5-181.6c29.41-28.74,69.77-47.27,110.88-46.08s82,23.71,101.21,60.08c20.86-32.69,64.88-48.49,101.78-36.53,16.6,5.39,32.3,15.8,49.74,15,17.64-.84,32.42-13,45.86-24.43,31.86-27.2,65.85-54.87,106.84-63.55s90.61,8.44,104.55,47.94c23.93-27.88,72.42-29.21,97.84-2.68C2293,62,2301.82,79.56,2318.31,82.13c12.88,2,24.78-6.29,36-12.94C2423.77,28,2522.32,45.68,2577.89,104.65Z"/><path class="cls-1" d="M2598.69,187.78,2580.62,196c.28,17,.6,34.27,5.55,50.55s15.22,31.72,30.61,39c6.61,3.11,14.64,5.22,18,11.73,2.46,4.83,1.47,10.59,1.47,16,0,19.95,16.45,38.59,36.25,41.11,7-9,20.19-9.21,31.56-10.25s25-6.18,26.15-17.53c.79-7.64-4.71-14.44-6.27-22-2.45-11.75,4.83-24.56.18-35.63-3.63-8.63-13.09-12.89-21.15-17.64s-16.26-12.78-14.42-22c1.18-5.85,6.32-11.74,3.48-17l-19.51.9a51.93,51.93,0,0,0-31.83-30.22C2626.28,178.36,2610.84,182.25,2598.69,187.78Z"/><path class="cls-1" d="M2658.61,397.17l-30.27-47.07A79.42,79.42,0,0,0,2608,326.77a6.9,6.9,0,0,0,4.67-5.61,19.17,19.17,0,0,0-20-.38c2.21-2.16.73-6.25-2-7.74s-6-1.22-9.08-1a110.17,110.17,0,0,1-47.9-7.78l33.75,34.89c-22,5.71-44.59-4.71-64.9-14.86l29,33.66a32.67,32.67,0,0,0-21.79,2l14.06,12.94a29.86,29.86,0,0,0-21.45,23.55c12.86.17,23.72-8.78,34.49-15.83s25.24-12.45,36-5.36c3.17,2.09,5.79,5.17,9.4,6.32,5.5,1.75,11.24-1.48,17-2.15,11.16-1.33,20.83,6.91,30.15,13.19S2652.26,403.17,2658.61,397.17Z"/><path class="cls-1" d="M2709.75,541.67c-8.14-18.41-34.88-27.07-49.7-15.93-4.43-10-19.78-12.8-27.46-5,3.19-3.17,2.38-11.34,5.57-14.51-9.29-1.45-6.86-2.24-6.92-11.64,17.1-7.13,33.13-18.87,40.18-29.7,3.53-5.42,9.54-22.86,7.61-29.14-3.6-11.71-19.7-17.15-31.21-13.56-2.85-15.63-30.22-26.77-47-28.59-50.56-5.45-50.65,15.39-67.09,19.32-12.24,2.92-26.49-12.29-45.35,1.93-31.77,23.93-43.25,2-61.75,19-3-14.26-25.74-18.49-33.62-6.24-3.86-15.91-20.46-27.64-36.74-26,15.39-12.85,15.65-39.77.51-52.91s-41.76-9.11-52.32,7.93l-17.21,5.49L2284.15,378l-22.08,2.58c4.07-28.63-16.14-52.34-26.77-79.23-3.58-9-1.11-14.66-12.08-18.84s-24.09,9.3-34.76-4.23c-8.87-11.26-18.51-4.73-32.8-2.48-31-30.57-76.75-26.2-111.17-8.79-13.9-.86-30.19,4-39.41,14.37-11.48,13-21.65,33.67-20.89,52.71-2.94-4.61-8.88-21.21-11.81-25.82-10.19.8-4.52,18.39-8.28,23.09-3.75-13.75-7.48-25-16.07-27.73-5.56,4.21-12.77,13.92-12.81,23.61,0,8.7,7.26,17.18.73,24.9-10.85,12.8-2.44,31.62-11.17,45.49-21.94-4-27.8-19.79-51.83-16-5,1.87-24.11,7.74-29.17,9.61-7.56-13.52-24.19-21.31-39.42-18.48,10-13.05,7.39-30.52,3.49-46.5-4.85-19.91-16.62-27.07-41.22-21.8l1.28-13.49c-13-10-27-9.17-50.71.24,2-20.56.93-35.13,2.9-55.69l-25.93,13.59,2.61-11.35-29.1,9.47c12.29-13,6-38-10.87-43.68,7.91-9,26-17.91,23.75-27.12-19.31-2.12-12.92-3.34-33.77,3.87-20.17,7-23.29-7.5-32.57-18.71-1.39-1.68-10.16-16.48-12.37-16.7-17.77-1.71-48.18,21.34-43.3,37.31-9,5.73-10.29,3.85-28.07,11.41-17.48,7.43-12.6,4-21,20.72-9.1,25.78-1.38,47.76,7.9,70.81s39,47.25,62.13,56.31c17.23,6.74,40.61,12.59,60.93,13.13,22.94.61,42.24-4.71,49.5-7.68,3-1.25,5.49,20.89,17.83,39s34.6,32.19,49.23,38.83c24,10.86,59.82,20.27,88.1,28.67,14.5,4.31,5.05,26,10.48,43.16,3.59,11.34,18.93,21.11,29,28,34.5,23.53,67.56,35.26,100,35.26,32.21,0,66.61-14.3,78.9-44.3,11.53-28.14,29.86-8.21,49.49-14.44s44.71-36.93,42.91-25c-6.81,45.16,23.56,65,56.08,81.94,31.45,16.36,52.87.34,68.78-4.06,5.59-1.55,8.62,18.46,60.14,37.91,38.22,14.43,50.63,15.9,108.83,15.9,39.53,0,60.73-19.3,96.69-35.71C2638.11,609.41,2684.42,592.71,2709.75,541.67Z"/><path class="cls-1" d="M1604.42,99.38c-8.76,3.49-17.76,7.13-24.49,13.73-7.88,7.73-12.79,19.51-23.32,22.8-4.35,1.36-9.25,1.05-13.21,3.33s-6.3,7.06-6.83,11.73.42,9.36,1.35,14c10.24-4.27,17.94-12.88,27-19.29s19.27-10.57,29.46-14.72c5.38-2.18,12.42-4,16.28.3,3.54,3.95,2.45,11.43,7.24,13.71,1.89.89,4.23.62,6,1.74,2.53,1.6,3.16,5.57,6,6.43,2.17.65,4.48-1,5.33-3.14s.62-4.45.38-6.7a14.81,14.81,0,0,0,15.8-9.83c.57-1.8.81-3.78,2-5.27a9.08,9.08,0,0,1,3.4-2.45,35.21,35.21,0,0,1,13.85-3.43c3.55-.14,8.11-.38,9.23-3.76,1.33-4-4.12-7-8.37-6.87s-9.12,1.36-12.32-1.45c-1.61-1.42-2.4-3.63-4.09-4.94-4.48-3.49-10.85,1.36-16.48.72-3.47-.39-6.28-2.84-9.26-4.64C1620.81,96.18,1609.91,97.2,1604.42,99.38Z"/><path class="cls-4" d="M2168.47,355.37a194.54,194.54,0,0,1,10.89,39.5c1.14,6.93,1.9,14,.79,20.94-1,6.5-3.69,12.63-6.31,18.67l-21.06,48.45"/><path class="cls-4" d="M2262.57,380.3c2.48,14.16-8,29.34-22.08,32.08"/></g><g id="cloud_big_0"><path class="cls-2" d="M1207.59,781.12c26.08,5.82,60.17,8.25,72.65-15.38,5.58-10.57,4.66-23.61,10-34.3,5.73-11.45,17.6-18.32,26.19-27.82a65.45,65.45,0,0,0,13-22.17c10.1-28.71.27-63.3-23.44-82.39s-59.6-21.33-85.5-5.34l3.38-20.27a53.8,53.8,0,0,0-15.34-6.9c39.41-1.73,70.3-36.48,79.24-74.9s-12-73.93-50.65-99.46c-32.94-21.72-78-19.8-113.75-3,6.88-10.71-8.57-26.4-19.39-19.69,16.38-23.27,5.46-58.3-17.69-74.85s-54.22-17.8-82-11.84c7-17.84-10.29-40.09-29.31-37.73,10.17-5.32,5.59-24.39-5.89-24.51,11.67-19.9,53-20.66,48.07-43.18-1-4.66-4.27-8.49-7.54-12-43.28-45.95-113.45-64.46-173.77-45.85-9.81-15.56-29.16-24.53-47.38-22s-34.34,16.52-39.48,34.2c-44.88-28.08-113.5-1.14-127.3,50-6.71-10.2-26.41-3.32-25.31,8.84-11.71-21.48-36.47-35.13-60.89-33.56l-5.82,13.75c-42.34-52-118.46-73.59-181.79-51.47S238.29,205.67,237.56,272.75c-.09,7.81.23,16.2-4.08,22.72-3.9,5.9-10.79,9-17.31,11.73C165.68,328.59,107,360.13,103.79,414.87c-.4,6.75.07,13.85-2.92,19.92-2.66,5.41-7.69,9.19-12.54,12.77L39.41,483.61c-14,10.33-28.8,21.69-34.35,38.2s3.69,38.91,21.07,40c-24.27,6.41-30,41.37-16.39,62.43s38.66,31.25,62.11,40.23c-34,11-49.78,55.88-34.67,88.26S91.51,802.17,126.86,797c-16.56,31.31-6,70.47,12.26,100.81,14,23.3,33.81,44.9,59.9,52.56s58.79-3.25,68.41-28.68c.76,9.24,9.7,17,19,16.5s17.26-9.28,23.29-22.91c20-2.94,30.34-31.55,16.85-46.6a10.68,10.68,0,0,0,14.11-16c19.24,8.76,44,3.19,57.63-13,9.24,7.68,24,7.59,33.16-.19s11.6-22.36,5.5-32.71c6.48,4.45,16.88-2.68,15.09-10.32-.16,6.34,11,8.34,13.05,2.34,12.92,14,39.35,19.48,57.41,13.42-.14,15.7,18.33,26.66,27,38.07,9.51,12.49,37.31,7,35.39,3.62,8.77.51,13.55-5.17,16.69-13.38s10.36-31.3,3.47-36.77c6.92,11.17,19.21,25.6,27.77,15.64,6.22,25.75,26.66,44.35,51.66,53.08,16.6,5.8,42.16,6.26,57.59-2.17,6.23-3.41,23.24-11.64,28-16.9,32.45-35.83,41.77-95.21,60.31-138.46,2.58,4.27,17.68,9,22.09,6.61s36.22-5.5,39.2-16.7c11.91,24.22,24.45,53.41,50.07,61.89,19.91,6.6,42.5,8.21,61.31-1.07s32-31.53,26.16-51.68c7.13,7.87,23.07,1.64,23-9,.77,8.19,2.1,16.64,6.62,23.51s13.07,11.71,21,9.59c-3,14.68,3.71,28.9,10.13,43.7,13.88,32,12.86,13.33,56.94,41,10.41,6.53,24.81,2.33,33.57-6.29S1193.67,795.94,1207.59,781.12Z"/><path class="cls-1" d="M1273.05,759.21a29,29,0,0,0-24.36-16.35c-2.68-11.05-18-16.55-27.12-9.73A165.41,165.41,0,0,0,1162,694.06c-6.67-2.53-14.17-4.61-20.8-2s-10.64,12.09-5.66,17.19l-28.7-16c-2-22-27.91-38.11-48.52-30.26,15.28-11.34,29.13-27.32,30-46.33s-17.29-38.84-35.55-33.47c7.39-14.47-1.77-34.68-17.51-38.67a60.17,60.17,0,0,0-60.45-81c-.13-7.38-6.82-14-14.21-14.12l-3,9.88a15.87,15.87,0,0,0-10.93-7.67c-1.28,15.51,12.17,27.69,23.3,38.57s21.57,27.57,13.68,41c-5.24,8.93-16.32,12-25.71,16.4S939,561.09,941.83,571l-16.35-4.56a43.49,43.49,0,0,1-6.71,29.7c-8.33-7.88-9.31-20.49-11.82-31.67s-9.38-23.69-20.83-24.17l3.26,14.33-17.89-9.56c-10.43,4.78,5.42,21.77-.3,31.72-1.35,2.35-3.8,3.9-5.2,6.22s-.91,6.22,1.76,6.65c-4-7.23-16.51-3.07-18.68,4.89s2.33,16.11,7.08,22.85a187.07,187.07,0,0,0,15.41,19.08c2,2.13,4.13,4.62,3.82,7.5-.22,2-1.6,3.65-2.91,5.17l-14.53,16.72C846.63,664.44,837.87,655.73,828,650s-24.61-7.58-30.89,1.93c-3.15,4.77-3.42,11.5-8,14.91-2.27,1.69-5.19,2.2-7.68,3.52-7,3.69-9.07,12.45-13.42,19s-15.87,10.18-19.08,3q-5.25,15.51-10.49,31c12.2,4.42,16.3,21.24,10.44,32.82S730.29,774.34,717.58,777c-13,2.71-31.45-2.8-30.27-16.07.84-9.33,11.64-15.43,12.4-24.77,1-11.86-13.62-18-25.26-20.43,5.68-5.37,4.21-16.25-2.7-19.92s-16.74,1.19-18,8.91c.07-6.81-10.35-8.15-16-4.32s-9.67,10.32-16.24,12.08c-6.94,1.87-14.92-3.32-16-10.43-8.46,10.84-19,22.71-32.7,22.56,14.09,12.89,6.92,37.22-6.59,50.71s-31.88,21.78-43.71,36.76c9.8,20.65,29.71,46.31,52.56,46.09,0,0,2.11,1.66,1.9,2.75l9.7-6.42-5.46-5.07c18.34,1.49,33.92-20.75,26.24-37.47,5.85,9.59,20.28,12.55,29.42,6,0,13.42,7.53,26.06,17.73,34.78s22.92,14,35.76,17.91c13.37,4.08,27.57,6.86,41.31,4.25,22.57-4.28,39.8-22,55.45-38.84,19.33-20.8,39.71-43.84,42.12-72.13,1.18-13.79-1.94-28.6,4.41-40.89l8.2,12.71a39.19,39.19,0,0,0,8.27-20.85c2.82,6.85,11.6,9.57,18.83,7.93s13.23-6.49,18.94-11.2a82.85,82.85,0,0,0,110.89,57.24c22.26-8.8,41-29.59,41.54-53.53l13.92-.5c-2.55,13.25,11.6,26.67,24.7,23.43-1.12,21.28,3.3,43.91,17.53,59.77,12.07,13.45,29.57,20.44,46.41,27,3.58,1.39,7.26,2.8,11.09,2.81s7.39-1.33,10.82-2.85a95.58,95.58,0,0,0,47-45.53c2.72,2,5.44,4,6.61,7.85,12.8,2.29,26.1,4.57,38.65,1.18S1280.31,774.71,1273.05,759.21Z"/><path class="cls-1" d="M1065.13,471.77c31.09-35.19,81.39-46.89,128.35-46.8,9.63,0,19.44.48,28.51,3.72s17.42,9.65,21,18.61a19,19,0,0,0-.37,23.57,79.79,79.79,0,0,0-50.81,14.34c-5,3.53-.85,16.09-2.09,22.09s-12.19-2.18-18.1,1.36-8.86,10.85-8.55,17.73,3.46,13.36,7.44,19l-48.14-6.69a22.32,22.32,0,0,0,7.24,11.72,81.13,81.13,0,0,1-48.16-32.89c-3.17-4.63-5.87-9.61-9.54-13.86-7.61-8.81-18.78-13.76-27.2-21.8-11-10.47-16.44-25.32-20.61-39.89-4.38-15.31-7.71-31.44-4.88-47.11s13-30.9,28.27-35.58a50.77,50.77,0,0,0,4.6,13.28l3-14c4.74-2.89,11-.69,15.36,2.81s7.61,8.21,12.25,11.27,11.57,3.93,15.27-.22c-13.18,10.31-26.9,21.29-33.42,36.71-7.57,17.9-4,38.32-.38,57.42C1064.67,469.29,1065.51,472.47,1065.13,471.77Z"/><path class="cls-1" d="M999,297.06l-22.31,13c-2.76,1.6-5.78,3.55-6.45,6.68C969.13,322,975.32,327,973.61,332c-.88,2.62-3.59,4.12-6.17,5.13a44.4,44.4,0,0,1-38.78-3.48,21.76,21.76,0,0,0-5.64-2.92c-6.3-1.66-12.81,6-10.18,11.94a16,16,0,0,1-9.13,1.37,36.91,36.91,0,0,1,6.82,33.48,21.14,21.14,0,0,1-4.69,8.72c-5.24,5.46-13.93,6.25-19.5,11.38-7.93,7.3-6.66,20-10.89,30-3.93,9.18-12.9,16.71-12.64,26.69.06,2.19.7,4.53,2.44,5.86,4.39,3.36,10-2.2,12.69-7l9.4-16.82c2.65-4.74,5.61-9.78,10.55-12s12.24.12,12.8,5.52c-.55-5.82-.06-13.36,5.48-15.22,3.53-1.18,7.23.74,10.72,2S935.1,418.14,937,415c.94-1.56.89-3.5.81-5.31l-1.48-33.27c-.13-2.87-.19-6,1.5-8.31,3.38-4.67,11-2.69,15.09,1.41a22.85,22.85,0,0,1,3.56,26.41c-2,3.54-5,7.6-3.06,11.15s6.8,3.23,10.61,2.38c12.66-2.81,25.8-8.59,32-20,9.94-18.31-1.73-43.59,10.13-60.71,3.29.52,4.78-4.41,3.28-7.39s-4.48-5.1-5.55-8.25c-2.09-6.19,3.5-14.71-1.66-18.72C1000,294.42,997.88,295.78,999,297.06Z"/><path class="cls-1" d="M1059.26,290.67c-8.46,2.85-17.55,3.88-25.62,7.71s-15.28,11.67-14.49,20.57c.31,3.5,1.82,6.82,2,10.33.57,11.84-13.58,19.76-15.07,31.52-.45,3.59.34,7.21,1.13,10.75l2.12,9.52c-.49-5,2.79-9.47,5.9-13.4,6.52-8.26,14-17.12,24.42-18.8,11.74-1.9,24.53,6,35.14.58,6.26-3.17,9.63-10.14,11.45-16.93,3-11.15,2.09-24.88-7.16-31.79-2.1-1.57-4.65-2.83-5.77-5.2-1-2-.67-4.47-1.74-6.42-1.41-2.56-4.92-3.43-7.69-2.48S1059,289.94,1059.26,290.67Z"/><path class="cls-1" d="M976.61,172.08c-11.05,5.27-23.83-2.17-33.17-10.09s-19.64-17.28-31.84-16.15a12,12,0,0,0-6.57,2.38c-5.71,4.67-3.09,13.77,0,20.46-15.27,3-25.1,21.82-18.83,36a25.47,25.47,0,0,0-20.7,20.36,48.28,48.28,0,0,0-34.77,8.83c-4.93,3.63-9.42,8.84-9.42,15,0,4.4,2.32,8.51,2.56,12.91a14.12,14.12,0,0,1-8.51,13.48c8.72,5.44,17.21,13.31,18.11,23.55.53,6-1.71,12-4.23,17.49s-5.42,11-6.34,17,.57,12.8,5.4,16.48,13.21,2.39,15.32-3.3c1.14-3.08.32-6.49.07-9.76A27.16,27.16,0,0,1,848,320a3.81,3.81,0,0,1,2-1.77c1.31-.36,2.56.61,3.74,1.27,4.73,2.64,11,.24,14.36-4s4.42-9.82,5.11-15.19a153.68,153.68,0,0,0,1.19-23c-.1-4.35-.33-9,1.75-12.79S883.55,258.3,887,261c1.32,1,2.12,2.54,3.26,3.75,3.06,3.25,8.37,3.68,12.41,1.76s6.9-5.76,8.6-9.89c1.27-3,3.23-7.09,6.45-6.34,2,.47,3,2.69,4,4.52a21.4,21.4,0,0,0,21.13,10.81,6.18,6.18,0,0,0,4.26-2,6.27,6.27,0,0,0,1-3.76,24,24,0,0,0-7-17.23c-3.83-3.81-8.85-6.2-12.88-9.81s-7.05-9.32-5.07-14.35C926,211.23,936,211,943.67,212c2.2-2.7-.93-6.53-4-8.19s-6.95-3.76-6.66-7.23c.22-2.55,2.84-4.3,5.38-4.61s5.07.42,7.6.77C958.38,194.47,971.35,185.86,976.61,172.08Z"/><path class="cls-1" d="M500,812.3a48.17,48.17,0,0,0,25-27.66,57.58,57.58,0,0,0-29.1-8.08,179.44,179.44,0,0,0,41.54-90.15c21.49,13.7,51.38-8.32,54.72-33.59s-10.62-49.35-25-70.42S537,539.29,535.74,513.83a46.69,46.69,0,0,1-44.43,8c18.1,28.75,21.67,66.17,9.34,97.84-4.12,10.56-10.38,21-20.36,26.33-6,3.22-13.07,4.52-18.12,9s-6.08,14.45.2,17c-6.73-1.75-13.78-3.51-20.55-1.94s-13,7.65-12.3,14.56c1.14,10.75,17.49,18.52,12.63,28.17L425.78,716a80.28,80.28,0,0,1,22.88,56.51c-14.45-5-31.89.37-40.92,12.72-1.84,2.52-3.53,5.42-6.39,6.65-6.63,2.82-12.52-4.85-16.68-10.73A60.84,60.84,0,0,0,335.76,756c11.27,12,14,31.24,6.6,45.94-4.2-8.21-8.75-16.81-16.55-21.74s-19.86-4.37-24.53,3.58c-1.93,3.3-2.31,7.25-3.39,10.91-5.54,18.83-33.06,26.46-47.5,13.16a96.23,96.23,0,0,0-13.31,36.95c-16.87-3.32-37.3-12.59-36.56-29.77.23-5.51,2.82-10.63,4.09-16a34,34,0,0,0-48.26-38.27c7.59,12.13,5.06,27.8,1.76,41.72-3.64,15.38-7.94,31.37-4.33,46.75s18.33,29.52,33.79,26.22c-10.49,8.21.76,26.84,14.08,27.23s24.4-9.42,34.6-18,23.2-16.93,36-13.09l-17.88,22.54a23.53,23.53,0,0,0,17.22,7.24c-6.17,9.92-2.42,30.86,8.34,35.41s25.79-8.47,31.58-21.87C322,909.39,334.21,900.73,332.3,889c-1.45-8.86,3.92-17.52,9-22s7.75-11.22,3.33-16.4c12.53,12.52,27.24,7.59,43,3.62,8.1-2.05,17.09-7.84,16.31-16.15,4.08,3.68,8.36,7.48,13.65,9,10,2.8,21.15-4.38,24.24-14.28s-1-21.19-8.7-28.17a12.61,12.61,0,0,0,22.55-7.8,10.35,10.35,0,0,0,19.45,6.55c-1,4.67,3.14,9.18,7.77,10.37A23.74,23.74,0,0,0,500,812.3Z"/><path class="cls-1" d="M151.67,405.63c-1.84,2.57-3.66,5.31-4.15,8.44-1,6.58,4.46,12.77,10.77,14.92s13.2,1.25,19.8.34A321.35,321.35,0,0,0,77.33,501.7l18.25,11.16a394.07,394.07,0,0,1-43,34.09c6,5.34,2.18,15.43-3.23,21.39s-12.55,11.95-12.32,20S45,602.11,52.68,604.17s15.85,1.6,23.55,3.6c20.19,5.24,33,27.33,32,48.17S95.14,695.78,79.7,709.8c-6.73,6.11-14.94,14.5-11.15,22.76,3,6.47,11.5,7.81,18.62,7.67a128.42,128.42,0,0,0,79.58-30c6.67-5.64,13.18-12.89,13.32-21.63s-9.9-17.29-17.31-12.66c.29-11,14.34-15.25,25.31-15.78S213,657.58,215.77,647c3.64-13.75-15.06-21.65-29.17-23.35,4.75-6.21,11.28-10.8,18-14.87a188.93,188.93,0,0,1,61.51-24c8.75-1.73,18.83-3.65,23.22-11.41,5.41-9.57-2.26-22.27-12.54-26.19s-21.74-1.68-32.49.62-22.22,4.56-32.51.68c-4.39-1.66-8.61-4.74-10-9.23-2.22-7.26,3.8-14.53,10.34-18.4s14.24-6.25,19.21-12,4.78-16.78-2.46-19.06c16,.12,28.73-12.53,40.59-23.27s28-20.93,42.89-15c7.22-17.55-13.14-39.09-31.07-32.88-3.16-10.64,3.69-21.76,11.93-29.21s18.27-13.15,24.69-22.21,7.57-23.47-1.44-30c-4.72-3.4-11.78-4.48-13.92-9.9-4.59-11.68,19-15.69,21.28-28,2.45-13.4-19.31-15.65-28.27-25.9-11.62-13.28,2.6-33.41,17.24-43.26a192.35,192.35,0,0,1,69.83-29c11.42-2.26,25.15-5.08,29.22-16,3-8.13-1.37-17.64-8.39-22.75s-16-6.63-24.7-7A112.54,112.54,0,0,0,262.85,285.42c.91,5.73,2.16,12.05-.88,17-1.83,3-4.94,4.93-7.94,6.75-13.51,8.22-23,16.45-36.51,24.67,2,5.72,4.33,9.59,10.35,8.83C215.68,346.14,171.58,377.94,151.67,405.63Z"/><path class="cls-4" d="M1124.17,388.41c-24.28,6.81-44.24,27.24-50.49,51.67"/><path class="cls-4" d="M1005.94,282.08a80.22,80.22,0,0,0-50.55,50.2"/></g></g></g></svg>