<?xml version="1.0" encoding="UTF-8"?>
<svg width="295px" height="146px" viewBox="0 0 295 146" version="1.1" xmlns="http://www.w3.org/2000/svg" xmlns:xlink="http://www.w3.org/1999/xlink">
    <title>cloud_med_2</title>
    <g id="Page-1" stroke="none" stroke-width="1" fill="none" fill-rule="evenodd" stroke-linecap="round" stroke-linejoin="round">
        <g id="clouds_all" transform="translate(-1669.000000, -598.000000)" fill-rule="nonzero" stroke="#AC4351" stroke-width="5">
            <g id="cloud_med_2" transform="translate(1671.907125, 601.392788)">
                <path d="M20.3113624,78.713956 C8.83136241,76.853956 -0.368637594,65.713956 0.0113624062,54.053956 C0.391362406,42.393956 10.3013624,31.873956 21.8813624,30.773956 C19.0113624,27.143956 19.9713624,21.583956 22.8113624,17.933956 C25.6513624,14.283956 29.9413624,12.103956 34.0813624,10.023956 C43.8313624,5.153956 55.9113624,0.363955999 64.9813624,6.393956 C73.0413624,11.743956 76.0613624,24.333956 85.6113624,25.883956 C92.3313624,26.983956 98.3413624,21.633956 102.311362,16.093956 C106.281362,10.553956 109.701362,4.093956 115.801362,1.093956 C121.901362,-1.906044 131.471362,1.513956 131.061362,8.303956 C141.691362,-1.626044 161.301362,1.113956 168.801362,13.583956 C177.321362,9.513956 187.061362,6.913956 196.201362,9.253956 C205.341362,11.593956 213.351362,20.083956 212.571362,29.513956 C221.441362,27.573956 230.781362,25.633956 239.481362,28.243956 C248.181362,30.853956 255.731362,39.703956 253.541362,48.523956 C259.541362,46.593956 265.541362,44.633956 271.841362,44.883956 C278.141362,45.133956 284.611362,48.043956 287.441362,53.623956 C290.151362,58.943956 288.971362,65.393956 287.061362,71.053956 C283.431362,81.823956 275.421362,92.963956 264.061362,93.273956 C258.551362,93.433956 252.621362,91.033956 247.801362,93.683956 C245.071362,95.183956 243.381362,97.983956 241.381362,100.363956 C230.671362,113.083956 210.881362,113.303956 195.091362,108.133956 C179.301362,102.963956 164.931362,93.553956 148.651362,90.133956 C131.271362,86.523956 113.321362,90.133956 95.6513624,91.193956 C70.1713624,92.813956 46.2913624,82.923956 20.3113624,78.713956 Z" id="Path" fill="#F4F0F1"></path>
                <path d="M270.571362,71.853956 C275.348305,76.1962354 276.646061,83.1897449 273.745064,88.9567876 C270.844067,94.7238304 264.455387,97.8508298 258.121362,96.603956 L258.121362,100.763956 L253.121362,100.163956 C253.823554,104.808777 252.522451,109.533454 249.541362,113.163956 C246.391362,116.953956 241.331362,119.733956 240.541362,124.613956 C240.421362,125.383956 240.361362,126.293956 239.711362,126.713956 C239.2453,126.938206 238.724962,127.02493 238.211362,126.963956 C231.051362,126.963956 225.771362,135.083956 218.611362,134.903956 C213.131362,134.773956 208.771362,129.753956 203.311362,129.313956 C200.961362,129.133956 198.591362,129.823956 196.251362,129.563956 C187.841362,128.643956 183.961362,116.563956 175.521362,115.993956 C173.201362,115.833956 170.841362,116.613956 168.521362,116.133956 C165.801362,115.563956 163.801362,113.343956 161.651362,111.583956 C159.501362,109.823956 156.491362,108.393956 154.031362,109.693956 C152.381362,110.553956 151.451362,112.433956 149.801362,113.293956 C145.801362,115.363956 141.921362,110.533956 140.031362,106.493956 C138.591338,108.692652 135.979515,109.821558 133.391362,109.363956 C130.809524,108.79865 128.932766,106.56461 128.821362,103.923956 L114.821362,120.643956 C113.911719,121.864223 112.802844,122.922388 111.541362,123.773956 C110.241362,124.553956 108.701362,124.883956 107.401362,125.663956 C105.161362,127.013956 103.921362,129.483956 102.341362,131.563956 C100.761362,133.643956 98.2913624,135.563956 95.7713624,134.883956 C94.3013624,134.503956 93.1513624,133.323956 91.6913624,132.883956 C88.6913624,132.003956 85.9113624,134.473956 83.3313624,136.233956 C75.5079862,141.306672 65.3090204,140.769885 58.0613624,134.903956 C57.1103111,133.937167 55.9966939,133.145111 54.7713624,132.563956 C52.3913624,131.683956 49.6813624,132.893956 47.2113624,132.303956 C40.7813624,130.763956 41.2113624,119.303956 34.7413624,117.873956 C32.8913624,117.453956 30.8213624,118.033956 29.1413624,117.143956 C24.8313624,114.843956 28.7813624,107.503956 25.9513624,103.533956 C24.8013624,101.923956 22.7913624,101.253956 21.0313624,100.383956 C16.3913624,98.103956 12.7113624,93.633956 12.0313624,88.513956 C11.3513624,83.393956 14.1513624,77.823956 18.9213624,75.843956 C20.0224408,75.5059615 21.0772041,75.0323258 22.0613624,74.433956 C25.8813624,71.573956 22.6313624,65.583956 22.9413624,60.813956 C23.1834704,57.1222598 25.7856389,54.0111441 29.3764105,53.1203038 C32.9671822,52.2294635 36.7217786,53.7635192 38.6613624,56.913956 C39.6613624,52.243956 46.4113624,49.813956 49.7713624,53.213956 C51.9213624,55.393956 53.0213624,59.483956 56.0913624,59.343956 C58.0913624,59.253956 59.7113624,57.193956 61.6413624,57.593956 C62.9513624,57.863956 63.7513624,59.143956 64.5613624,60.203956 C66.6579813,62.8926252 69.7229142,64.6547821 73.1013624,65.113956 C76.1013624,65.513956 79.3413624,64.863956 82.1013624,66.113956 C84.8613624,67.363956 86.3613624,71.843956 83.6613624,73.253956 C85.5186781,73.9699452 87.6198384,73.2113112 88.5913624,71.473956 C89.6913624,77.203956 96.7513624,79.163956 102.531362,79.963956 C103.404219,80.1583433 104.311878,80.1308384 105.171362,79.883956 C107.391362,79.033956 107.451362,75.883956 106.641362,73.633956 C108.071362,71.093956 109.561362,68.473956 111.891362,66.723956 C114.221362,64.973956 117.641362,64.313956 120.051362,65.963956 C121.771362,67.133956 122.741362,69.273956 124.641362,70.123956 C130.341362,72.693956 134.571362,61.613956 140.741362,62.673956 C145.381362,63.473956 145.871362,69.843956 148.271362,73.893956 C152.011362,80.213956 162.981362,79.893956 166.391362,73.413956 L172.521362,78.273956 C173.011459,78.7333889 173.599625,79.0753454 174.241362,79.273956 C176.471362,79.743956 177.861362,76.813956 179.971362,75.943956 C183.491362,74.483956 186.411362,79.083956 187.121362,82.823956 C187.831362,86.563956 189.031362,91.393956 192.831362,91.753956 C196.631362,92.113956 199.681362,87.213956 203.401362,88.123956 C207.121362,89.033956 207.401362,94.883956 210.751362,96.863956 C213.831362,98.683956 218.041362,95.983956 218.921362,92.513956 C219.801362,89.043956 218.331362,85.413956 216.511362,82.333956 C215.751362,81.043956 214.891362,79.583956 215.301362,78.153956 C215.801586,76.9307789 216.808895,75.9855145 218.061362,75.563956 C224.991365,72.6338452 233.02465,74.6779381 237.711362,80.563956 C237.011362,75.373956 238.951362,69.513956 243.521362,66.933956 C248.091362,64.353956 255.071362,66.633956 256.121362,71.773956 C257.056853,68.7248991 259.935109,66.6936728 263.121362,66.833956 C266.351362,67.003956 268.571362,70.083956 270.571362,71.853956 Z" id="Path" fill="#E1B3C0"></path>
            </g>
        </g>
    </g>
</svg>