<?xml version="1.0" encoding="UTF-8"?>
<svg width="82px" height="43px" viewBox="0 0 82 43" version="1.1" xmlns="http://www.w3.org/2000/svg" xmlns:xlink="http://www.w3.org/1999/xlink">
    <title>cloud_small_3</title>
    <g id="Page-1" stroke="none" stroke-width="1" fill="none" fill-rule="evenodd" stroke-linecap="round" stroke-linejoin="round">
        <g id="clouds_all" transform="translate(-2134.000000, -620.000000)" fill-rule="nonzero" stroke="#AC4351" stroke-width="5">
            <g id="cloud_small_3" transform="translate(2137.223081, 622.661114)">
                <path d="M72.8854062,15.4856302 C69.1768131,11.670058 63.5253289,10.4836023 58.5954062,12.4856302 C57.7031681,13.1292421 56.4690184,12.9954706 55.7354062,12.1756302 C51.4254062,9.03563016 45.3954062,9.11563016 40.4554062,11.1156302 C37.5954062,12.2656302 34.7854062,14.0256302 31.7154062,13.8056302 C28.6454062,13.5856302 26.3054062,11.5956302 24.0454062,9.68563016 C23.2354062,9.00563016 22.3654062,7.83563016 23.0454062,7.01563016 C19.6376662,7.59179787 16.6741729,9.68021501 14.9854062,12.6956302 C10.8449952,10.8194663 6.08746973,10.8670415 1.98540623,12.8256302 C1.3875756,13.0706196 0.86620521,13.4711426 0.475406226,13.9856302 C0.135619614,14.6457667 -0.0231041988,15.3841775 0.0154062258,16.1256302 C-0.0945937742,20.0156302 0.305406226,24.7856302 3.83540623,26.4056302 C6.23540623,27.5056302 9.02540623,26.5656302 11.4854062,25.6256302 C13.0154062,30.4356302 18.7554062,32.2156302 23.6754062,33.2956302 C25.8154062,33.7656302 28.4154062,34.0856302 29.8454062,32.4256302 C30.1784583,31.9182506 30.5495231,31.4368692 30.9554062,30.9856302 C32.0704619,30.2410491 33.5442067,30.3267795 34.5654062,31.1956302 C35.5454302,32.0592354 36.4488066,33.0061077 37.2654062,34.0256302 C39.5060159,36.3161452 42.7572863,37.3106591 45.8958576,36.6655533 C49.0344288,36.0204475 51.629865,33.8241943 52.7854062,30.8356302 C54.4954062,32.4656302 56.5854062,33.9056302 58.9354062,34.0156302 C61.2854062,34.1256302 63.8454062,32.4356302 63.9354062,30.0856302 C65.5844473,30.6903767 67.3609355,30.862517 69.0954062,30.5856302 C70.7954062,30.1456302 72.3054062,28.4656302 71.8954062,26.7656302 C74.1954062,27.4756302 76.3954062,24.8456302 76.2454062,22.4556302 C75.9813731,19.8090494 74.7914446,17.3406561 72.8854062,15.4856302 Z" id="Path" fill="#E1B3C0"></path>
                <path d="M67.5754062,11.6356302 C66.9854062,5.85563016 60.3054062,2.05563016 54.5754062,3.15563016 C53.3509427,3.51573234 52.0817142,3.7008983 50.8054062,3.70563016 C48.7154062,3.50563016 47.0854062,1.89563016 45.2154062,0.945630159 C40.7833685,-1.14903078 35.4855353,0.334192026 32.7854062,4.42563016 C29.1054062,-0.414369841 21.7854062,-0.574369841 15.9854062,1.31563016 C14.3401225,1.71388302 12.85668,2.60743897 11.7354062,3.87563016 C10.7354062,5.21563016 10.6554062,7.38563016 11.9854062,8.40563016 C9.59540623,8.23563016 7.62540623,10.8356302 7.89540623,13.2256302 C8.33093063,15.639088 10.0130465,17.6408819 12.3154062,18.4856302 C14.5814959,19.2979016 16.9790269,19.6810996 19.3854062,19.6156302 C28.8359684,19.8990972 38.2948302,19.7021767 47.7254062,19.0256302 C50.9153436,18.7143318 54.1212691,18.5974491 57.3254062,18.6756302 C60.0054062,18.8056302 62.8554062,19.2256302 65.2754062,18.0456302 C67.6954062,16.8656302 69.0854062,13.2156302 67.5754062,11.6356302 Z" id="Path" fill="#F4F0F1"></path>
            </g>
        </g>
    </g>
</svg>