<?xml version="1.0" encoding="UTF-8"?>
<svg width="263px" height="195px" viewBox="0 0 263 195" version="1.1" xmlns="http://www.w3.org/2000/svg" xmlns:xlink="http://www.w3.org/1999/xlink">
    <title>cloud_med_0</title>
    <g id="Page-1" stroke="none" stroke-width="1" fill="none" fill-rule="evenodd" stroke-linecap="round" stroke-linejoin="round">
        <g id="clouds_all" transform="translate(-1158.000000, -131.000000)" fill-rule="nonzero" stroke="#AC4351" stroke-width="5">
            <g id="cloud_med_0" transform="translate(1160.698845, 134.151858)">
                <path d="M235.649642,126.974886 C244.805815,124.472995 252.002356,117.390084 254.649642,108.274886 C256.479642,101.734886 252.709642,92.1548857 246.119642,93.7848857 C253.069642,87.7848857 258.419642,78.7848857 256.819642,69.7348857 C255.219642,60.6848857 244.219642,53.6048857 236.349642,58.3348857 C240.59909,52.5573534 239.88482,44.5203556 234.68309,39.5827758 C229.48136,34.645196 221.418073,34.3503721 215.869642,38.8948857 C211.869642,22.3748857 191.519642,12.0648857 175.819642,18.5848857 C173.339642,19.5848857 170.389642,20.9548857 168.179642,19.4248857 C165.969642,17.8948857 166.179642,14.9348857 165.749642,12.4248857 C164.089642,2.32488567 150.889642,-2.57511433 141.429642,1.35488567 C131.969642,5.28488567 126.249642,15.1148857 123.429642,24.9548857 C112.429642,14.9548857 91.6796418,20.5148857 87.2696418,34.7148857 C74.8796418,29.0348857 60.7496418,23.2848857 48.0796418,28.3048857 C42.0796418,30.6948857 37.1696418,35.3048857 32.8696418,40.1648857 C28.0096418,45.6648857 23.5596418,51.8748857 22.1396418,59.0748857 C20.7196418,66.2748857 23.0196418,74.6148857 29.2296418,78.5048857 C20.0696418,81.0848857 10.8296418,85.7248857 6.10964183,93.9948857 C1.38964183,102.264886 3.27964183,114.684886 11.8796418,118.764886 C6.33964183,123.314886 0.419641826,128.764886 0.0196418264,135.934886 C-0.420358174,143.934886 6.59964183,150.724886 14.2796418,152.844886 C21.9596418,154.964886 30.1396418,153.524886 37.9796418,152.074886 C32.3896418,157.994886 29.1696418,167.074886 32.8096418,174.384886 C36.4496418,181.694886 48.6296418,183.634886 53.2196418,176.974886 C64.4196418,176.684886 72.4796418,165.694886 83.3196418,162.884886 C91.1196418,160.884886 99.3196418,163.314886 107.379642,162.794886 C122.839642,161.794886 135.279642,150.314886 149.259642,143.634886 C163.239642,136.954886 179.059642,135.064886 194.509642,133.284886 C206.779642,131.874886 219.159642,131.254886 235.649642,126.974886 Z" id="Path" fill="#F4F0F1"></path>
                <path d="M235.649642,124.654886 L233.959642,110.324886 C230.614153,109.51381 227.130301,109.455746 223.759642,110.154886 C224.38456,105.651283 221.412133,101.433967 216.960601,100.508323 C212.509069,99.5826785 208.101842,102.265481 206.879642,106.644886 C205.589642,103.014886 203.939642,99.3148857 200.879642,96.9948857 C197.819642,94.6748857 192.979642,94.2848857 190.379642,97.1148857 C187.779642,99.9448857 189.719642,105.764886 193.549642,105.544886 C187.809642,105.454886 184.399642,114.064886 188.639642,117.934886 C185.142069,113.460635 178.909059,112.196188 173.944416,114.95377 C168.979773,117.711351 166.759433,123.671161 168.709642,129.004886 C161.225143,125.535366 152.458465,126.320555 145.709642,131.064886 C141.439642,127.694886 136.309642,124.114886 131.029642,125.424886 C125.749642,126.734886 124.089642,136.114886 129.459642,136.994886 C126.259642,136.344886 122.809642,135.714886 119.829642,137.054886 C116.849642,138.394886 114.999642,142.594886 117.159636,145.054886 C117.487699,141.341576 115.757897,137.746366 112.651626,135.685452 C109.545354,133.624538 105.560481,133.428238 102.266695,135.173879 C98.972908,136.91952 96.8981308,140.327311 96.8596418,144.054886 C92.2596418,143.134886 87.4496418,142.204886 82.9396418,143.494886 C78.4296418,144.784886 74.3896418,149.024886 75.0196418,153.664886 C70.0896418,150.374886 63.0196418,152.244886 58.7796418,156.344886 C54.5396418,160.444886 52.2996418,166.204886 50.2596418,171.764886 C49.5327794,173.394984 49.1596361,175.160076 49.1596361,176.944886 C49.5996418,182.714886 57.1596361,184.864886 62.8596418,184.004886 C67.7823176,183.254078 72.47596,181.416247 76.5996418,178.624886 C82.2996418,187.204886 97.6496418,185.974886 101.909642,176.624886 C105.109642,183.264886 116.209642,183.704886 119.909642,177.354886 C121.909642,187.424886 136.539642,192.114886 144.019642,185.074886 C146.799642,182.454886 148.809642,178.584886 152.509642,177.654886 C156.679642,176.654886 160.579642,179.874886 164.709642,181.074886 C173.709642,183.684886 183.609642,173.564886 180.779642,164.614886 C187.49379,169.446247 196.309664,170.227477 203.768786,166.652098 C211.227909,163.07672 216.140614,155.714976 216.579642,147.454886 C219.869642,150.144886 223.409642,152.944886 227.629642,153.454886 C231.849642,153.964886 236.759642,151.034886 236.689642,146.784886 C236.689642,144.984886 235.779642,143.304886 235.689642,141.524886 C235.469642,138.604886 237.219642,135.914886 237.689642,133.034886 C238.159636,130.154886 235.849642,126.324886 235.649642,124.654886 Z" id="Path" fill="#E1B3C0"></path>
            </g>
        </g>
    </g>
</svg>