<?xml version="1.0" encoding="UTF-8"?>
<svg width="1284px" height="612px" viewBox="0 0 1284 612" version="1.1" xmlns="http://www.w3.org/2000/svg" xmlns:xlink="http://www.w3.org/1999/xlink">
    <title>cloud_big_1</title>
    <g id="Page-1" stroke="none" stroke-width="1" fill="none" fill-rule="evenodd">
        <g id="clouds_all" transform="translate(-1495.000000, 3.000000)" stroke="#AC4351" stroke-width="5">
            <g id="cloud_big_1" transform="translate(1498.241834, 0.000000)">
                <path d="M1077.12665,102.126744 C1099.94665,107.266744 1117.48665,129.926744 1116.75665,153.296744 C1145.54665,147.676744 1177.21665,142.476744 1202.75665,156.956744 C1218.17665,165.716744 1229.04665,180.526744 1239.42665,194.956744 C1252.49665,213.046744 1265.75665,231.506744 1272.83665,252.666744 C1291.25665,307.666744 1257.83665,374.526744 1202.74665,392.786744 C1222.74665,397.866744 1237.12665,419.426744 1234.08665,439.866744 C1231.04665,460.306744 1211.08665,476.756744 1190.41665,475.806744 C1217.04665,490.536744 1222.28665,530.246744 1205.59665,555.696744 C1188.90665,581.146744 1156.48665,592.796744 1126.06665,591.896744 C1095.64665,590.996744 1066.61665,579.466744 1038.85665,566.986744 C961.966653,622.596744 847.286653,618.216744 774.856653,556.906744 C747.093462,567.295678 716.030425,563.722616 691.351101,547.301419 C666.671777,530.880222 651.377709,503.608066 650.236653,473.986744 C630.536653,499.206744 592.666653,508.156744 563.936653,493.636744 C565.846653,528.826744 529.746653,556.636744 494.586653,558.966744 C459.426653,561.296744 425.896653,545.476744 394.236653,530.106744 C375.106653,520.806744 353.546653,508.286744 350.756653,487.196744 C349.626653,478.706744 351.846653,469.706744 348.756653,461.706744 C343.076653,446.996744 324.076653,444.166744 308.576653,441.276744 C256.636653,431.586744 200.576653,397.166744 190.416653,345.546744 C130.256653,372.546744 38.776653,338.916744 10.516653,279.316744 C-17.743347,219.716744 14.846653,143.816744 62.016653,97.7167439 C91.426653,68.9767439 131.786653,50.4467439 172.896653,51.6367439 C214.006653,52.8267439 254.896653,75.3467439 274.106653,111.716744 C294.966653,79.0267439 338.986653,63.2267439 375.886653,75.1867439 C392.486653,80.5767439 408.186653,90.9867439 425.626653,90.1867439 C443.266653,89.3467439 458.046653,77.1867439 471.486653,65.7567439 C503.346653,38.5567439 537.336653,10.8867439 578.326653,2.20674385 C619.316653,-6.47325615 668.936653,10.6467439 682.876653,50.1467439 C706.806653,22.2667439 755.296653,20.9367439 780.716653,47.4667439 C792.236653,59.4767439 801.056653,77.0367439 817.546653,79.6067439 C830.426653,81.6067439 842.326653,73.3167439 853.546653,66.6667439 C923.006653,25.4767439 1021.55665,43.1567439 1077.12665,102.126744 Z" id="Path" fill="#F4F0F1" fill-rule="nonzero"></path>
                <path d="M1097.92665,185.256744 L1079.85665,193.476744 C1080.13665,210.476744 1080.45665,227.746744 1085.40665,244.026744 C1090.35665,260.306744 1100.62665,275.746744 1116.01665,283.026744 C1122.62665,286.136744 1130.65665,288.246744 1134.01665,294.756744 C1136.47665,299.586744 1135.48665,305.346744 1135.48665,310.756744 C1135.48665,330.706744 1151.93665,349.346744 1171.73665,351.866744 C1178.73665,342.866744 1191.92665,342.656744 1203.29665,341.616744 C1214.66665,340.576744 1228.29665,335.436744 1229.44665,324.086744 C1230.23665,316.446744 1224.73665,309.646744 1223.17665,302.086744 C1220.72665,290.336744 1228.00665,277.526744 1223.35665,266.456744 C1219.72665,257.826744 1210.26665,253.566744 1202.20665,248.816744 C1194.14665,244.066744 1185.94665,236.036744 1187.78665,226.816744 C1188.96665,220.966744 1194.10665,215.076744 1191.26665,209.816744 L1171.75665,210.716744 C1166.1342,196.434362 1154.48139,185.370969 1139.92665,180.496744 C1125.51665,175.836744 1110.07665,179.726744 1097.92665,185.256744 Z" id="Path" fill="#E1B3C0" fill-rule="nonzero" stroke-linecap="round" stroke-linejoin="round"></path>
                <path d="M1157.84665,394.646744 L1127.57665,347.576744 C1122.39229,338.541394 1115.48107,330.614214 1107.23665,324.246744 C1109.73598,323.420624 1111.54752,321.244447 1111.90665,318.636744 C1105.83978,314.766108 1098.11617,314.619359 1091.90665,318.256744 C1094.11665,316.096744 1092.63665,312.006744 1089.90665,310.516744 C1087.17665,309.026744 1083.90665,309.296744 1080.82665,309.516744 C1064.48019,310.515855 1048.1166,307.858052 1032.92665,301.736744 L1066.67665,336.626744 C1044.67665,342.336744 1022.08665,331.916744 1001.77665,321.766744 L1030.77665,355.426744 C1023.49936,353.568873 1015.80416,354.275179 1008.98665,357.426744 L1023.04665,370.366744 C1011.9569,373.429003 1003.61281,382.589994 1001.59665,393.916744 C1014.45665,394.086744 1025.31665,385.136744 1036.08665,378.086744 C1046.85665,371.036744 1061.32665,365.636744 1072.08665,372.726744 C1075.25665,374.816744 1077.87665,377.896744 1081.48665,379.046744 C1086.98665,380.796744 1092.72665,377.566744 1098.48665,376.896744 C1109.64665,375.566744 1119.31665,383.806744 1128.63665,390.086744 C1137.95665,396.366744 1151.49665,400.646744 1157.84665,394.646744 Z" id="Path" fill="#E1B3C0" fill-rule="nonzero" stroke-linecap="round" stroke-linejoin="round"></path>
                <path d="M1208.98665,539.146744 C1200.84665,520.736744 1174.10665,512.076744 1159.28665,523.216744 C1154.85665,513.216744 1139.50665,510.416744 1131.82665,518.216744 C1135.01665,515.046744 1134.20665,506.876744 1137.39665,503.706744 C1128.10665,502.256744 1130.53665,501.466744 1130.47665,492.066744 C1147.57665,484.936744 1163.60665,473.196744 1170.65665,462.366744 C1174.18665,456.946744 1180.19665,439.506744 1178.26665,433.226744 C1174.66665,421.516744 1158.56665,416.076744 1147.05665,419.666744 C1144.20665,404.036744 1116.83665,392.896744 1100.05665,391.076744 C1049.49665,385.626744 1049.40665,406.466744 1032.96665,410.396744 C1020.72665,413.316744 1006.47665,398.106744 987.616653,412.326744 C955.846653,436.256744 944.366653,414.326744 925.866653,431.326744 C922.866653,417.066744 900.126653,412.836744 892.246653,425.086744 C888.386653,409.176744 871.786653,397.446744 855.506653,399.086744 C870.896653,386.236744 871.156653,359.316744 856.016653,346.176744 C840.876653,333.036744 814.256653,337.066744 803.696653,354.106744 L786.486653,359.596744 L783.386653,375.476744 L761.306653,378.056744 C765.376653,349.426744 745.166653,325.716744 734.536653,298.826744 C730.956653,289.826744 733.426653,284.166744 722.456653,279.986744 C711.486653,275.806744 698.366653,289.286744 687.696653,275.756744 C678.826653,264.496744 669.186653,271.026744 654.896653,273.276744 C623.896653,242.706744 578.146653,247.076744 543.726653,264.486744 C529.826653,263.626744 513.536653,268.486744 504.316653,278.856744 C492.836653,291.856744 482.666653,312.526744 483.426653,331.566744 C480.486653,326.956744 474.546653,310.356744 471.616653,305.746744 C461.426653,306.546744 467.096653,324.136744 463.336653,328.836744 C459.586653,315.086744 455.856653,303.836744 447.266653,301.106744 C441.706653,305.316744 434.496653,315.026744 434.456653,324.716744 C434.456653,333.416744 441.716653,341.896744 435.186653,349.616744 C424.336653,362.416744 432.746653,381.236744 424.016653,395.106744 C402.076653,391.106744 396.216653,375.316744 372.186653,379.106744 C367.186653,380.976744 348.076653,386.846744 343.016653,388.716744 C335.456653,375.196744 318.826653,367.406744 303.596653,370.236744 C313.596653,357.186744 310.986653,339.716744 307.086653,323.736744 C302.236653,303.826744 290.466653,296.666744 265.866653,301.936744 L267.146653,288.446744 C254.146653,278.446744 240.146653,279.276744 216.436653,288.686744 C218.436653,268.126744 217.366653,253.556744 219.336653,232.996744 L193.406653,246.586744 L196.016653,235.236744 L166.916653,244.706744 C179.206653,231.706744 172.916653,206.706744 156.046653,201.026744 C163.956653,192.026744 182.046653,183.116744 179.796653,173.906744 C160.486653,171.786744 166.876653,170.566744 146.026653,177.776744 C125.856653,184.776744 122.736653,170.276744 113.456653,159.066744 C112.066653,157.386744 103.296653,142.586744 101.086653,142.366744 C83.316653,140.656744 52.906653,163.706744 57.786653,179.676744 C48.786653,185.406744 47.496653,183.526744 29.716653,191.086744 C12.236653,198.516744 17.116653,195.086744 8.716653,211.806744 C-0.383347004,237.586744 7.336653,259.566744 16.616653,282.616744 C25.896653,305.666744 55.616653,329.866744 78.746653,338.926744 C95.976653,345.666744 119.356653,351.516744 139.676653,352.056744 C162.616653,352.666744 181.916653,347.346744 189.176653,344.376744 C192.176653,343.126744 194.666653,365.266744 207.006653,383.376744 C219.346653,401.486744 241.606653,415.566744 256.236653,422.206744 C280.236653,433.066744 316.056653,442.476744 344.336653,450.876744 C358.836653,455.186744 349.386653,476.876744 354.816653,494.036744 C358.406653,505.376744 373.746653,515.146744 383.816653,522.036744 C418.316653,545.566744 451.376653,557.296744 483.816653,557.296744 C516.026653,557.296744 550.426653,542.996744 562.716653,512.996744 C574.246653,484.856744 592.576653,504.786744 612.206653,498.556744 C631.836653,492.326744 656.916653,461.626744 655.116653,473.556744 C648.306653,518.716744 678.676653,538.556744 711.196653,555.496744 C742.646653,571.856744 764.066653,555.836744 779.976653,551.436744 C785.566653,549.886744 788.596653,569.896744 840.116653,589.346744 C878.336653,603.776744 890.746653,605.246744 948.946653,605.246744 C988.476653,605.246744 1009.67665,585.946744 1045.63665,569.536744 C1137.34665,606.886744 1183.65665,590.186744 1208.98665,539.146744 Z" id="Path" fill="#E1B3C0" fill-rule="nonzero" stroke-linecap="round" stroke-linejoin="round"></path>
                <path d="M103.656653,96.8567439 C94.896653,100.346744 85.896653,103.986744 79.166653,110.586744 C71.286653,118.316744 66.376653,130.096744 55.846653,133.386744 C51.496653,134.746744 46.596653,134.436744 42.636653,136.716744 C38.676653,138.996744 36.336653,143.776744 35.806653,148.446744 C35.276653,153.116744 36.226653,157.806744 37.156653,162.446744 C47.396653,158.176744 55.096653,149.566744 64.156653,143.156744 C73.216653,136.746744 83.426653,132.586744 93.616653,128.436744 C98.996653,126.256744 106.036653,124.436744 109.896653,128.736744 C113.436653,132.686744 112.346653,140.166744 117.136653,142.446744 C119.026653,143.336744 121.366653,143.066744 123.136653,144.186744 C125.666653,145.786744 126.296653,149.756744 129.136653,150.616744 C131.306653,151.266744 133.616653,149.616744 134.466653,147.476744 C135.316653,145.336744 135.086653,143.026744 134.846653,140.776744 C141.771315,141.630923 148.353007,137.536111 150.646653,130.946744 C151.216653,129.146744 151.456653,127.166744 152.646653,125.676744 C153.573442,124.606133 154.737785,123.767122 156.046653,123.226744 C160.380849,121.150167 165.09428,119.982869 169.896653,119.796744 C173.446653,119.656744 178.006653,119.416744 179.126653,116.036744 C180.456653,112.036744 175.006653,109.036744 170.756653,109.166744 C166.506653,109.296744 161.636653,110.526744 158.436653,107.716744 C156.826653,106.296744 156.036653,104.086744 154.346653,102.776744 C149.866653,99.2867439 143.496653,104.136744 137.866653,103.496744 C134.396653,103.106744 131.586653,100.656744 128.606653,98.8567439 C120.046653,93.6567439 109.146653,94.6767439 103.656653,96.8567439 Z" id="Path" fill="#E1B3C0" fill-rule="nonzero" stroke-linecap="round" stroke-linejoin="round"></path>
                <path d="M667.706653,352.846744 C672.716969,365.593364 676.367209,378.833448 678.596653,392.346744 C679.736653,399.276744 680.496653,406.346744 679.386653,413.286744 C678.386653,419.786744 675.696653,425.916744 673.076653,431.956744 L652.016653,480.406744" id="Path" stroke-linecap="round"></path>
                <path d="M761.806653,377.776744 C764.286653,391.936744 753.806653,407.116744 739.726653,409.856744" id="Path" stroke-linecap="round"></path>
            </g>
        </g>
    </g>
</svg>