<?xml version="1.0" encoding="UTF-8"?>
<svg width="277px" height="207px" viewBox="0 0 277 207" version="1.1" xmlns="http://www.w3.org/2000/svg" xmlns:xlink="http://www.w3.org/1999/xlink">
    <title>cloud_med_1</title>
    <g id="Page-1" stroke="none" stroke-width="1" fill="none" fill-rule="evenodd" stroke-linecap="round" stroke-linejoin="round">
        <g id="clouds_all" transform="translate(-1363.000000, -627.000000)" fill-rule="nonzero" stroke="#AC4351" stroke-width="5">
            <g id="cloud_med_1" transform="translate(1365.763807, 629.568525)">
                <path d="M254.214681,87.7682188 C253.214681,70.2382188 229.954681,58.5682188 215.294681,68.2282188 C222.704681,50.3282188 206.684681,29.0182188 187.544681,26.0682188 C180.964681,25.0682188 174.214681,25.6482188 167.674681,24.4382188 C158.674681,22.7782188 150.744681,17.8782188 142.784681,13.4382188 C128.604681,5.53821875 112.864681,-1.29178125 96.6946808,0.20821875 C80.5246808,1.70821875 64.4046808,14.2082188 64.0546808,30.4282188 C63.9646808,34.4882188 64.4846808,39.3582188 61.2346808,41.7782188 C59.2346808,43.2282188 56.6446808,43.1682188 54.2346808,43.3582188 C46.8446808,43.9382188 39.4646808,47.7582188 35.9246808,54.2582188 C32.3846808,60.7582188 33.6146808,69.8982188 39.5846808,74.2582188 C26.3758801,74.4438979 14.4139392,82.1007801 8.71468076,94.0182188 C6.77468076,98.2182188 5.71468076,103.208219 7.71468076,107.408219 C9.71468076,111.608219 15.4346808,114.108219 19.1646808,111.408219 C15.0046808,121.408219 26.7646808,131.848219 37.5546808,131.408219 C48.3446808,130.968219 57.5546808,124.068219 66.8846808,118.608219 C76.2146808,113.148219 87.9846808,108.988219 97.4846808,114.118219 C101.284681,116.178219 104.244681,119.528219 107.954681,121.768219 C118.954681,128.398219 133.104681,123.768219 144.664681,118.188219 C147.904681,116.618219 151.664681,114.958219 154.974681,116.438219 C156.974681,117.318219 158.254681,119.148219 159.654681,120.768219 C171.984681,135.118219 196.774681,136.088219 210.184681,122.768219 C216.424681,126.198219 223.704681,128.608219 230.644681,126.978219 C237.584681,125.348219 243.584681,118.488219 242.204681,111.498219 C248.714681,119.778219 256.074681,120.038219 254.214681,87.7682188 Z" id="Path" fill="#F4F0F1"></path>
                <path d="M154.544681,167.668219 L168.224681,170.668219 L166.634681,157.048219 C174.856915,160.138262 183.29236,162.628122 191.874681,164.498219 C192.754681,169.738219 201.954681,170.218219 203.374681,165.098219 C204.234681,172.028219 210.504681,177.618219 217.374681,178.598219 C224.244681,179.578219 231.374681,176.398219 236.084681,171.208219 C243.384681,176.008219 254.444681,166.088219 250.454681,158.308219 C261.034681,156.218219 263.124681,142.178219 262.794681,131.398219 C271.964681,124.008219 273.794681,109.088219 266.684681,99.7082188 C259.574681,90.3282188 244.684681,88.0582188 235.124681,94.8882188 C224.304681,84.7082188 203.434681,90.1582188 198.974681,104.328219 C194.254681,100.808219 189.224681,97.1582188 183.374681,96.5182188 C177.524681,95.8782188 170.754681,99.5182188 170.244681,105.398219 C167.674681,92.7482188 150.934681,90.1982188 138.024681,90.5082188 C132.024681,90.6482188 124.674681,91.6982188 122.564681,97.3082188 C116.914681,89.2382188 110.564681,80.6282188 101.074681,77.8682188 C91.5846808,75.1082188 79.0746808,82.2982188 80.7946808,92.0082188 C67.5257619,86.1065568 52.5062871,85.4843215 38.7946808,90.2682188 C34.1846808,91.8982188 29.3346808,98.0882188 33.4846808,100.668219 C21.6179933,102.01541 11.8768127,110.672013 9.14468076,122.298219 L17.8646808,125.708219 C12.7946808,126.508219 7.62468076,128.098219 3.96468076,131.708219 C0.304680757,135.318219 -1.34531924,141.328219 1.29468076,145.708219 C2.62468076,147.928219 4.82468076,149.468219 6.49468076,151.438219 C10.2946808,155.928219 11.1146808,162.278219 14.4246808,167.128219 C17.7346808,171.978219 26.3146808,174.228219 28.8846808,168.938219 C25.8846808,180.168219 37.0146808,191.558219 48.6346808,192.048219 C60.2546808,192.538219 70.8846808,185.048219 78.0946808,175.878219 C77.1946808,182.518219 87.8046808,186.788219 91.7546808,181.368219 C92.1020107,188.540831 96.861433,194.74594 103.698892,196.940515 C110.53635,199.13509 118.017959,196.858905 122.474681,191.228219 L119.124681,197.588219 C128.100503,203.594591 139.989719,202.832041 148.124681,195.728219 C155.924681,188.688219 157.834681,176.088219 154.544681,167.668219 Z" id="Path" fill="#E1B3C0"></path>
            </g>
        </g>
    </g>
</svg>