<svg xmlns="http://www.w3.org/2000/svg" viewBox="0 0 420 512"><defs><style>.cls-1{fill:#ffd697;}.cls-2{fill:#f4f3ff;}.cls-3{fill:#55527c;}</style></defs><g id="Layer_2" data-name="Layer 2"><g id="Layer_1-2" data-name="Layer 1"><path class="cls-1" d="M370,462H50a20,20,0,0,0,0,40H370a20,20,0,0,0,0-40Z"/><path class="cls-2" d="M410,210a199.38,199.38,0,0,1-57.17,140H67.17A199.38,199.38,0,0,1,10,210C10,99.54,99.54,10,210,10S410,99.54,410,210Z"/><path class="cls-2" d="M50,390H370v72H50Z"/><path class="cls-1" d="M370,350a20,20,0,0,1,0,40H50a20,20,0,0,1,0-40Z"/><path class="cls-1" d="M150.57,248.36l-26.66,13.33-13.34,26.67L97.24,261.69,70.57,248.36,97.24,235l13.33-26.67L123.91,235Z"/><path class="cls-1" d="M350.5,159.29l-45,15-15,45-15-45-45-15,45-15,15-45,15,45Z"/><path class="cls-3" d="M360,230a10,10,0,1,1-10-10A10,10,0,0,1,360,230Z"/><path class="cls-3" d="M240,90a10,10,0,1,1-10-10A10,10,0,0,1,240,90Z"/><path class="cls-3" d="M220,462a10,10,0,1,1-10-10A10,10,0,0,1,220,462Z"/><path class="cls-3" d="M180,310a10,10,0,1,1-10-10A10,10,0,0,1,180,310Z"/><path class="cls-3" d="M220.5,159.29a10,10,0,0,0,6.84,9.49l40.25,13.42L281,222.45a10,10,0,0,0,19,0l13.42-40.25,40.25-13.42a10,10,0,0,0,0-19l-40.25-13.42L300,96.13a10,10,0,0,0-19,0l-13.42,40.25L227.34,149.8A10,10,0,0,0,220.5,159.29Zm58.16-5.51a10,10,0,0,0,6.33-6.33l5.51-16.54L296,147.45a10,10,0,0,0,6.33,6.33l16.54,5.51-16.54,5.51a10,10,0,0,0-6.33,6.33l-5.51,16.54L285,171.13a10,10,0,0,0-6.33-6.33l-16.54-5.51Z"/><path class="cls-3" d="M210,0C94.21,0,0,94.21,0,210A208.64,208.64,0,0,0,45.35,340.36,30,30,0,0,0,40,398.28v55.44A30,30,0,0,0,50,512H370a30,30,0,0,0,10-58.28V398.3a30,30,0,0,0-5.35-57.94A208.64,208.64,0,0,0,420,210C420,94.21,325.79,0,210,0Zm0,20c104.77,0,190,85.23,190,190a188.92,188.92,0,0,1-51.44,130H71.44A188.92,188.92,0,0,1,20,210C20,105.23,105.23,20,210,20ZM370,492H50a10,10,0,0,1,0-20H170a10,10,0,0,0,0-20H60V400H360v52H250a10,10,0,0,0,0,20H370a10,10,0,0,1,0,20Zm10-122a10,10,0,0,1-10,10H50a10,10,0,0,1,0-20H370A10,10,0,0,1,380,370Z"/><path class="cls-3" d="M89.79,269.14l11.84,23.69a10,10,0,0,0,8.94,5.53h0a10,10,0,0,0,8.94-5.52l11.85-23.7L155,257.3a10,10,0,0,0,0-17.88l-23.68-11.84-11.85-23.69a10,10,0,0,0-8.94-5.53h0a10,10,0,0,0-8.94,5.53L89.79,227.58,66.1,239.42a10,10,0,0,0,0,17.89ZM101.71,244a9.94,9.94,0,0,0,4.47-4.48l4.39-8.78,4.4,8.78a9.94,9.94,0,0,0,4.47,4.48l8.77,4.38-8.77,4.39a9.87,9.87,0,0,0-4.47,4.47l-4.4,8.78-4.39-8.78a9.92,9.92,0,0,0-4.47-4.47l-8.77-4.39Z"/><path class="cls-3" d="M90,140h10v10a10,10,0,0,0,20,0V140h10a10,10,0,0,0,0-20H120V110a10,10,0,0,0-20,0v10H90a10,10,0,0,0,0,20Z"/><path class="cls-3" d="M290,280H280V270a10,10,0,0,0-20,0v10H250a10,10,0,0,0,0,20h10v10a10,10,0,0,0,20,0V300h10a10,10,0,0,0,0-20Z"/></g></g></svg>