<svg xmlns="http://www.w3.org/2000/svg" width="909.13" height="255.449" viewBox="0 0 909.13 255.449">
  <path id="Subtraction_7" data-name="Subtraction 7" d="M667.35,382.449a38.66,38.66,0,0,1-38.642-39.74v-.7c.12-6.734.1-67.365.068-117.042a37.538,37.538,0,0,0-73.837,9.559v32.564h-.321c0,30.257.029,47.334.08,50.754v.576a38.656,38.656,0,0,1-77.282,0v-.7c.146-8.106.091-95.052.046-146.158a37.286,37.286,0,0,0-23.855-25.592,37.958,37.958,0,0,0-12.407-2.063,37.379,37.379,0,0,0-37.551,36.5v.668c.071,4.466.1,33.406.074,86.014h-.365c0,26.781.032,42,.081,45.237a3.637,3.637,0,0,1,0,.576,38.658,38.658,0,1,1-77.315,0v-.7c.065-3.627.1-22.966.093-57.479a37.538,37.538,0,0,0-74.144-4.768c-.022,55.036,0,85.3.073,89.958v.575a38.656,38.656,0,1,1-77.313,0v-.667c.1-6.6.09-63.195.063-109.513a37.566,37.566,0,0,0-74.648-1.979c-.029,47.715-.041,105.991.062,112.644v.545a38.111,38.111,0,1,1-76.191,0v-.664c0-.14,0-.3.007-.49v-.051l0-.153a70.144,70.144,0,0,1-.026-7.954c0-.9.009-111.712.008-205.214H933.138v47.986a37.567,37.567,0,0,0-74.553,5.425,3.457,3.457,0,0,0,0,.668c.072,4.518.1,33.457.073,86.014h-.363c.007,25.177.033,38.894.08,41.933v.545a38.657,38.657,0,1,1-77.283,0v-.666c.059-3.294.091-20.058.094-49.825a37.567,37.567,0,0,0-74.894,3.041v4.972h-.378c-.013,45.5.012,70.745.077,75.039v.576a38.661,38.661,0,0,1-38.642,39.74Z" transform="translate(-24.008 -127)"/>
</svg>
