<svg xmlns="http://www.w3.org/2000/svg" width="909.13" height="186" viewBox="0 0 909.13 186">
  <path id="Subtraction_7" data-name="Subtraction 7" d="M667.35,313a50.148,50.148,0,0,1-19.64-3.9c-12.115-5.2-19.4-14.794-19-25.032v-.507c.12-4.9.1-49.05.068-85.222-4.341-11.993-19.268-20.369-36.3-20.369-20.7,0-37.536,12.26-37.536,27.329v23.711h-.321c0,22.031.029,34.465.08,36.955v.419a21.876,21.876,0,0,1-3.342,10.7,29.981,29.981,0,0,1-8.35,8.691c-7.256,5.138-16.827,7.968-26.949,7.968a51.143,51.143,0,0,1-14.784-2.133,41.92,41.92,0,0,1-12.165-5.835,29.982,29.982,0,0,1-8.35-8.691,21.874,21.874,0,0,1-3.342-10.7v-.507c.146-5.9.091-69.21.046-106.422a24.46,24.46,0,0,0-5.036-8.079A33.123,33.123,0,0,0,464.246,145a43.081,43.081,0,0,0-10.638-4.181,50.979,50.979,0,0,0-12.407-1.5c-20.473,0-36.967,11.673-37.551,26.575v.486c.071,3.252.1,24.324.074,62.629h-.365c0,19.5.032,30.582.081,32.938a1.931,1.931,0,0,1,0,.419A21.6,21.6,0,0,1,400.4,273.32a29.49,29.49,0,0,1-8.285,8.947,41.573,41.573,0,0,1-12.288,6.032,52.283,52.283,0,0,1-30.094,0,41.569,41.569,0,0,1-12.288-6.032,29.492,29.492,0,0,1-8.285-8.947,21.6,21.6,0,0,1-3.038-10.956v-.507c.065-2.641.1-16.722.093-41.853-1.533-14.1-17.969-25.15-37.416-25.15-17.641,0-33.087,9.117-36.727,21.679-.022,40.073,0,62.111.073,65.5v.419a21.6,21.6,0,0,1-3.038,10.956,29.488,29.488,0,0,1-8.284,8.947,41.566,41.566,0,0,1-12.287,6.032,52.281,52.281,0,0,1-30.094,0,41.574,41.574,0,0,1-12.288-6.032,29.491,29.491,0,0,1-8.285-8.947,21.6,21.6,0,0,1-3.038-10.956v-.486c.1-4.8.09-46.014.063-79.74-1.016-8.815-7.873-16.765-18.343-21.265a49.912,49.912,0,0,0-38.18,0,38.97,38.97,0,0,0-6.823,3.754,31.811,31.811,0,0,0-5.4,4.693,25.76,25.76,0,0,0-3.82,5.426,21.6,21.6,0,0,0-2.083,5.951c-.029,34.743-.041,77.175.062,82.02v.4c.39,10.095-6.789,19.553-18.734,24.683a50.632,50.632,0,0,1-38.729,0C30.9,302.754,23.728,293.3,24.121,283.2v-.484c0-.1,0-.221.007-.357v-.037l0-.112a37.218,37.218,0,0,1-.026-5.792c0-.659.009-81.341.008-149.422H933.138v34.94c-3.138-13.11-18.7-22.625-37-22.625-20.472,0-36.966,11.673-37.55,26.575a1.837,1.837,0,0,0,0,.486c.072,3.29.1,24.361.073,62.629h-.363c.007,18.332.033,28.32.08,30.533v.4c.393,10.236-6.888,19.827-19,25.032a51.371,51.371,0,0,1-39.28,0c-12.115-5.205-19.4-14.8-19-25.032v-.485c.059-2.4.091-14.6.094-36.279-2.047-13.889-18.1-24.362-37.344-24.362-20.472,0-36.966,11.674-37.55,26.576v3.62h-.378c-.013,33.128.012,51.511.077,54.638v.419c.393,10.238-6.888,19.83-19,25.032A50.143,50.143,0,0,1,667.35,313Z" transform="translate(-24.008 -127)"/>
</svg>
