<svg xmlns="http://www.w3.org/2000/svg" viewBox="0 0 300 141.5"><defs><style>.cls-1{fill:#fff;}</style></defs><g id="Layer_2" data-name="Layer 2"><g id="Layer_1-2" data-name="Layer 1"><rect class="cls-1" width="299.75" height="45.89"/><rect x="0.18" y="59.55" width="299.75" height="81.95"/><path class="cls-1" d="M24.77,88.14A12.39,12.39,0,0,1,0,88.14v-.22c.07-3.81,0-61,0-61H24.77s-.06,57.15,0,61A1.09,1.09,0,0,1,24.77,88.14Z"/><path class="cls-1" d="M75,61.19a12.39,12.39,0,0,1-24.77,0V61c.07-3.81,0-61,0-61H75S75,57.15,75,61Z"/><path class="cls-1" d="M124.92,70.29a12.38,12.38,0,1,1-24.76,0v-.22c.07-3.81,0-61,0-61h24.76s0,57.14,0,61Z"/><path class="cls-1" d="M174.82,88.14a12.39,12.39,0,0,1-24.77,0c0-.07,0-.15,0-.22.06-3.81,0-61,0-61h24.77s-.06,57.15,0,61Z"/><path class="cls-1" d="M225.08,62.64a12.38,12.38,0,1,1-24.76,0v-.21c.06-3.82,0-61,0-61h24.76s-.05,57.15,0,61Z"/><path class="cls-1" d="M275,70.29a12.39,12.39,0,1,1-24.77,0v-.22c.07-3.81,0-61,0-61H275s-.06,57.14,0,61Z"/><path d="M274.87,35A12.57,12.57,0,1,1,300,35v.22c-.07,3.87,0,61.87,0,61.87H274.87s.06-58,0-61.91Z"/><path d="M224.79,35.34a12.75,12.75,0,1,1,25.5,0c0,.07,0,.15,0,.22-.06,3.93,0,62.77,0,62.77h-25.5s.06-58.83,0-62.8Z"/><path d="M174.89,44.44a12.75,12.75,0,0,1,25.5,0v.23c-.07,3.92,0,62.76,0,62.76h-25.5s.06-58.83,0-62.8A1.15,1.15,0,0,1,174.89,44.44Z"/><path d="M125,42.62a12.75,12.75,0,0,1,25.49,0v.23c-.07,3.92,0,62.76,0,62.76H125s.06-58.83,0-62.8Z"/><path d="M75.1,34.61a12.75,12.75,0,1,1,25.49,0v.23c-.07,3.92,0,62.76,0,62.76H75.1s.06-58.83,0-62.8Z"/><path d="M24.84,45.54a12.75,12.75,0,1,1,25.49,0v.22c-.07,3.93,0,62.76,0,62.76H24.84s.06-58.83,0-62.8Z"/></g></g></svg>