<svg xmlns="http://www.w3.org/2000/svg" viewBox="0 0 55.11 48.71"><g id="Layer_2" data-name="Layer 2"><g id="Capa_1" data-name="Capa 1"><path d="M18.55,26.71c-2.76,0-5,2.69-5,6s2.24,6,5,6,5-2.69,5-6S21.31,26.71,18.55,26.71Zm0,10c-1.66,0-3-1.8-3-4s1.34-4,3-4,3,1.79,3,4S20.2,36.71,18.55,36.71Z"/><path d="M37.55,26.71c-2.76,0-5,2.69-5,6s2.24,6,5,6,5-2.69,5-6S40.31,26.71,37.55,26.71Zm0,10c-1.66,0-3-1.8-3-4s1.34-4,3-4,3,1.79,3,4S39.2,36.71,37.55,36.71Z"/><path d="M39.07,21.71h-.14c-.93,0-1.86.05-2.78.09s-1.69.07-2.54.08l-1.46,0C29.61,22,27,22,24.4,22c-1.18,0-2.35-.05-3.52-.09-1.6-.06-3.25-.13-4.89-.08A8.43,8.43,0,0,0,10.31,24h0c-2.5,2.29-3.53,5.33-3.15,9.29C7.7,39,10,42,15.16,43.41a42.92,42.92,0,0,0,12.32,1.28h2.45c.51,0,1,0,1.52,0A32.43,32.43,0,0,0,41.09,43a9.47,9.47,0,0,0,6.26-6.17A14.55,14.55,0,0,0,48,30.2C47.55,26.65,44.45,21.71,39.07,21.71Zm6.39,14.53a7.46,7.46,0,0,1-5,4.91,30.51,30.51,0,0,1-9,1.54c-.89,0-1.78,0-2.67,0H27.47a41,41,0,0,1-11.76-1.2c-4.32-1.22-6.1-3.5-6.56-8.4-.31-3.29.51-5.78,2.51-7.62A6.46,6.46,0,0,1,16,23.84c1.57,0,3.19,0,4.76.08,1.2,0,2.39.09,3.59.09,2.61,0,5.25,0,7.8-.1l1.46,0c.86,0,1.72-.05,2.58-.08s1.82-.08,2.73-.09h.11c4.13,0,6.6,4,7,6.77A12.69,12.69,0,0,1,45.46,36.24Z"/><path d="M51.87,15.36a2.83,2.83,0,0,1-.79-2.18,23.41,23.41,0,0,0-.32-5.49V7.57A26.43,26.43,0,0,0,48.88.75L48.56,0,47.08.31a20.37,20.37,0,0,0-6.11,2c-1.28.74-2.56,1.53-3.79,2.3L34.69,6.13a.47.47,0,0,1-.16,0h0a41.55,41.55,0,0,0-13.81,0,.77.77,0,0,1-.4-.11c-.51-.31-1-.64-1.52-1S17.63,4.3,17,4A25.68,25.68,0,0,0,7.28.17L6.55.08,6.16.92c-.07.16-.13.29-.18.43a32,32,0,0,0-1.93,9.08,15.93,15.93,0,0,0,0,3.38c0,.38,0,.45-.14.64A16.88,16.88,0,0,0,1,19.82,24.34,24.34,0,0,0,.37,31.14a21.45,21.45,0,0,0,3,8.86c3.19,5,8.12,7.83,14.65,8.39,3.27.27,6.58.32,9.82.32h4.82A28.09,28.09,0,0,0,43.18,47,17.23,17.23,0,0,0,53.85,35.28a31.44,31.44,0,0,0,1.24-9.94A17.64,17.64,0,0,0,51.87,15.36Zm.06,19.35a15.13,15.13,0,0,1-9.47,10.4,25.85,25.85,0,0,1-9.82,1.59H29.9c-3.86,0-7.85,0-11.73-.31-6-.5-10.25-3-13.13-7.46a19.64,19.64,0,0,1-2.69-8.08,22.1,22.1,0,0,1,.53-10.41A14.86,14.86,0,0,1,5.49,15.7a2.59,2.59,0,0,0,.56-2.17,14.88,14.88,0,0,1,0-3.06,29.75,29.75,0,0,1,1.72-8.2A25.18,25.18,0,0,1,16,5.67c.57.34,1.12.7,1.68,1.07s1.05.69,1.59,1A2.72,2.72,0,0,0,21,8.13a39.21,39.21,0,0,1,13.15,0,2.39,2.39,0,0,0,1.53-.31c.84-.5,1.67-1,2.51-1.54C39.47,5.54,40.71,4.77,42,4A17.88,17.88,0,0,1,47.35,2.3a24.48,24.48,0,0,1,1.42,5.54V8a22.06,22.06,0,0,1,.31,5,4.78,4.78,0,0,0,1.16,3.54,15.44,15.44,0,0,1,2.84,8.87A28.93,28.93,0,0,1,51.93,34.71Z"/></g></g></svg>