<svg xmlns="http://www.w3.org/2000/svg" viewBox="0 0 110.4 110.4"><defs><style>.cls-1{fill:#007ab9;stroke:#fff;stroke-miterlimit:10;stroke-width:3px;}.cls-2{fill:#f1f2f2;}</style></defs><g id="Layer_2" data-name="Layer 2"><g id="Capa_1" data-name="Capa 1"><circle class="cls-1" cx="55.2" cy="55.2" r="53.7"/><path class="cls-2" d="M87.29,59.52V81.66H74.45V61c0-5.19-1.85-8.73-6.5-8.73A7,7,0,0,0,61.37,57a8.75,8.75,0,0,0-.43,3.13V81.66H48.1s.18-35,0-38.6H60.94v5.47s-.06.08-.08.12h.08v-.12a12.75,12.75,0,0,1,11.57-6.38c8.45,0,14.78,5.52,14.78,17.37ZM34.68,24.45c-4.4,0-7.27,2.88-7.27,6.67s2.79,6.67,7.1,6.67h.08c4.48,0,7.26-3,7.26-6.67s-2.78-6.67-7.17-6.67ZM28.17,81.66H41V43.06H28.17Z"/></g></g></svg>