<svg id="infoCardIcon yellowCardBackground" width="50" height="48" fill="none" xmlns="http://www.w3.org/2000/svg">
  <path class="paintBucket" d="M23.414 6.444L9.272 20.586a3.99 3.99 0 00-1.165 3.065c.008.128.016.252.028.373 0 .033 25.95.033 25.95.033l3.471-3.471L23.414 6.444zm2.828-2.829l14.143 14.142a4 4 0 010 5.657L26.243 37.556a8 8 0 01-11.314 0l-8.486-8.485a8 8 0 010-11.314L20.587 3.615a4 4 0 015.657 0z" fill="#FFC261"/>
  <path class="paintDrop" opacity=".5" fill-rule="evenodd" clip-rule="evenodd" d="M42 44a6 6 0 006-6c0-2.21-2-5.542-6-10-4 4.458-6 7.79-6 10a6 6 0 006 6z" fill="#FFC261"/>
</svg>
