<svg xmlns="http://www.w3.org/2000/svg" xmlns:xlink="http://www.w3.org/1999/xlink" viewBox="0 0 591.5 369.81"><defs><style>.cls-1{fill:none;}.cls-2{clip-path:url(#clip-path);}.cls-3{fill:#cdcaff;fill-rule:evenodd;}</style><clipPath id="clip-path" transform="translate(-92.51 -446.32)"><rect class="cls-1" width="684.41" height="621.93"/></clipPath></defs><g id="Layer_2" data-name="Layer 2"><g id="Layer_1-2" data-name="Layer 1"><g class="cls-2"><g id="Wave_Header" data-name="Wave Header"><path id="Path_45" data-name="Path 45" class="cls-3" d="M328.29,447.34C273.69,455.78,268.68,509.1,228,535,189.6,559.38,119.1,560.36,98.9,593.18S111,661.94,129.46,695.05c17.43,31.18,35.17,63.43,73.6,84.51,38.08,20.87,88.3,26.3,137,31,49,4.68,101.62,11.55,145.37-4,43.18-15.34,54.41-52.07,84.77-77.75,35.13-29.74,94.45-48.13,107.6-85,14-39.27,5.33-86.79-35.93-116.18-41-29.19-113.94-16.08-169.81-30.37C420.61,484,382,439,328.29,447.34Z" transform="translate(-92.51 -446.32)"/></g></g></g></g></svg>