<svg xmlns="http://www.w3.org/2000/svg" viewBox="0 0 468.03 539.96"><defs><style>.cls-1{fill:#cdcaff;fill-rule:evenodd;}.cls-2{fill:#ffcdcf;}</style></defs><g id="Layer_2" data-name="Layer 2"><g id="Layer_1-2" data-name="Layer 1"><g id="Wave_Header" data-name="Wave Header"><path id="Path_45" data-name="Path 45" class="cls-1" d="M33.83,371C58.36,417.1,105.3,405.4,140.21,433.8c33,26.82,56.22,89.35,90.54,97.4s54.66-31.61,76.94-58.13c21-25,42.79-50.57,48.5-91.21,5.66-40.26-5.68-86.66-17.19-131.46-11.59-45.09-22.46-94.07-49.58-128.34-26.76-33.82-61.58-32.69-93.06-51.95C159.9,47.82,125.42.54,89.86,0,52-.55,14.34,21.58,2.46,67.25-9.36,112.63,25,173.66,30.57,227.78,35.71,277.62,9.72,325.71,33.83,371Z"/></g><path class="cls-2" d="M225.53,486a7.43,7.43,0,1,0-7.43-7.43A7.62,7.62,0,0,0,225.53,486Z"/><path class="cls-2" d="M225.53,540a7.43,7.43,0,1,0-7.43-7.43A7.62,7.62,0,0,0,225.53,540Z"/><path class="cls-2" d="M166.83,486a7.43,7.43,0,1,0-7.44-7.43A7.62,7.62,0,0,0,166.83,486Z"/><path class="cls-2" d="M166.83,540a7.43,7.43,0,1,0-7.44-7.43A7.62,7.62,0,0,0,166.83,540Z"/><path class="cls-2" d="M108.12,486a7.43,7.43,0,1,0-7.43-7.43A7.45,7.45,0,0,0,108.12,486Z"/><path class="cls-2" d="M108.12,540a7.43,7.43,0,1,0-7.43-7.43A7.45,7.45,0,0,0,108.12,540Z"/><path class="cls-2" d="M225.53,324.46A7.43,7.43,0,1,0,218.1,317,7.62,7.62,0,0,0,225.53,324.46Z"/><path class="cls-2" d="M225.53,378.46A7.43,7.43,0,1,0,218.1,371C218.35,375,221.57,378.46,225.53,378.46Z"/><path class="cls-2" d="M225.53,432.21a7.43,7.43,0,1,0-7.43-7.43A7.62,7.62,0,0,0,225.53,432.21Z"/><path class="cls-2" d="M166.83,324.46a7.43,7.43,0,1,0-7.44-7.43A7.62,7.62,0,0,0,166.83,324.46Z"/><path class="cls-2" d="M166.83,378.46a7.43,7.43,0,1,0-7.44-7.43C159.64,375,162.86,378.46,166.83,378.46Z"/><path class="cls-2" d="M166.83,432.21a7.43,7.43,0,1,0-7.44-7.43A7.62,7.62,0,0,0,166.83,432.21Z"/><path class="cls-2" d="M108.12,324.46a7.43,7.43,0,1,0-7.43-7.43A7.45,7.45,0,0,0,108.12,324.46Z"/><path class="cls-2" d="M108.12,378.46a7.43,7.43,0,1,0-7.43-7.43A7.62,7.62,0,0,0,108.12,378.46Z"/><path class="cls-2" d="M108.12,432.21a7.43,7.43,0,1,0-7.43-7.43A7.45,7.45,0,0,0,108.12,432.21Z"/><path class="cls-2" d="M460.6,486a7.43,7.43,0,1,0-7.43-7.43A7.3,7.3,0,0,0,460.6,486Z"/><path class="cls-2" d="M460.6,540a7.43,7.43,0,1,0-7.43-7.43A7.3,7.3,0,0,0,460.6,540Z"/><path class="cls-2" d="M401.9,486a7.43,7.43,0,1,0-7.43-7.43A7.3,7.3,0,0,0,401.9,486Z"/><path class="cls-2" d="M401.9,540a7.43,7.43,0,1,0-7.43-7.43A7.3,7.3,0,0,0,401.9,540Z"/><path class="cls-2" d="M343.19,486a7.43,7.43,0,1,0-7.43-7.43A7.3,7.3,0,0,0,343.19,486Z"/><path class="cls-2" d="M343.19,540a7.43,7.43,0,1,0-7.43-7.43A7.3,7.3,0,0,0,343.19,540Z"/><path class="cls-2" d="M278.29,482.74a7.29,7.29,0,0,0,6.2,3.22,12.8,12.8,0,0,0,3-.49,8.75,8.75,0,0,0,2.23-1.49,7.72,7.72,0,0,0,2.23-5.2,6.75,6.75,0,0,0-2.23-5.2,5.89,5.89,0,0,0-2.23-1.49,5.77,5.77,0,0,0-3-.5,8.41,8.41,0,0,0-4.22,1.24,7.76,7.76,0,0,0-2,2,5.28,5.28,0,0,0-1,2.73c0,.5-.25,1-.25,1.49a3.09,3.09,0,0,0,.25,1.48A4.46,4.46,0,0,0,278.29,482.74Z"/><path class="cls-2" d="M278.29,536.74a7.29,7.29,0,0,0,6.2,3.22,12.8,12.8,0,0,0,3-.49,9,9,0,0,0,2.23-1.49,7.72,7.72,0,0,0,2.23-5.2,6.75,6.75,0,0,0-2.23-5.2,5.89,5.89,0,0,0-2.23-1.49,5.77,5.77,0,0,0-3-.5,8.41,8.41,0,0,0-4.22,1.24,7.76,7.76,0,0,0-2,2,5.28,5.28,0,0,0-1,2.73c0,.49-.25,1-.25,1.49a3.09,3.09,0,0,0,.25,1.48A5.64,5.64,0,0,0,278.29,536.74Z"/><path class="cls-2" d="M460.6,324.46a7.43,7.43,0,1,0-7.43-7.43A7.3,7.3,0,0,0,460.6,324.46Z"/><path class="cls-2" d="M460.6,378.46a7.43,7.43,0,1,0-7.43-7.43A7.45,7.45,0,0,0,460.6,378.46Z"/><path class="cls-2" d="M460.6,432.21a7.43,7.43,0,1,0-7.43-7.43A7.3,7.3,0,0,0,460.6,432.21Z"/><path class="cls-2" d="M401.9,324.46a7.43,7.43,0,1,0-7.43-7.43A7.3,7.3,0,0,0,401.9,324.46Z"/><path class="cls-2" d="M401.9,378.46a7.43,7.43,0,1,0-7.43-7.43A7.45,7.45,0,0,0,401.9,378.46Z"/><path class="cls-2" d="M401.9,432.21a7.43,7.43,0,1,0-7.43-7.43A7.3,7.3,0,0,0,401.9,432.21Z"/><path class="cls-2" d="M343.19,324.46a7.43,7.43,0,1,0-7.43-7.43A7.3,7.3,0,0,0,343.19,324.46Z"/><path class="cls-2" d="M343.19,378.46a7.43,7.43,0,1,0-7.43-7.43A7.45,7.45,0,0,0,343.19,378.46Z"/><path class="cls-2" d="M343.19,432.21a7.43,7.43,0,1,0-7.43-7.43A7.3,7.3,0,0,0,343.19,432.21Z"/><path class="cls-2" d="M278.29,321.24a7.61,7.61,0,0,0,2,2,7.72,7.72,0,0,0,4.22,1.24,12.31,12.31,0,0,0,3-.5,8.75,8.75,0,0,0,2.23-1.48,7.72,7.72,0,0,0,2.23-5.2,6.78,6.78,0,0,0-2.23-5.21,6,6,0,0,0-2.23-1.48,10.59,10.59,0,0,0-3-.5,8.41,8.41,0,0,0-4.22,1.24,7.76,7.76,0,0,0-2,2,5.28,5.28,0,0,0-1,2.73c0,.49-.25,1-.25,1.48a3.13,3.13,0,0,0,.25,1.49A4.5,4.5,0,0,0,278.29,321.24Z"/><path class="cls-2" d="M278.29,375.24a7.29,7.29,0,0,0,6.2,3.22,12.31,12.31,0,0,0,3-.5,8.75,8.75,0,0,0,2.23-1.48,7.72,7.72,0,0,0,2.23-5.2,6.78,6.78,0,0,0-2.23-5.21,5.85,5.85,0,0,0-2.23-1.48,10.59,10.59,0,0,0-3-.5,8.41,8.41,0,0,0-4.22,1.24,7.76,7.76,0,0,0-2,2,5.25,5.25,0,0,0-1,2.73c0,.49-.25,1-.25,1.48a3.13,3.13,0,0,0,.25,1.49A5.7,5.7,0,0,0,278.29,375.24Z"/><path class="cls-2" d="M278.29,429a7.61,7.61,0,0,0,2,2,7.72,7.72,0,0,0,4.22,1.24,12.31,12.31,0,0,0,3-.5,5,5,0,0,0,2.23-1.48,7.72,7.72,0,0,0,2.23-5.2,6.79,6.79,0,0,0-2.23-5.21,6,6,0,0,0-2.23-1.48,5.77,5.77,0,0,0-3-.5,8.41,8.41,0,0,0-4.22,1.24,7.76,7.76,0,0,0-2,2,5.28,5.28,0,0,0-1,2.73c0,.49-.25,1-.25,1.48a3.11,3.11,0,0,0,.25,1.49A5.64,5.64,0,0,0,278.29,429Z"/></g></g></svg>