<?xml version="1.0" encoding="utf-8"?>
<!-- Generator: Adobe Illustrator 25.2.0, SVG Export Plug-In . SVG Version: 6.00 Build 0)  -->
<svg version="1.1" id="Layer_1" xmlns="http://www.w3.org/2000/svg" xmlns:xlink="http://www.w3.org/1999/xlink" x="0px" y="0px"
	 viewBox="0 0 390.2 471.6" style="enable-background:new 0 0 390.2 471.6;" xml:space="preserve">
<style type="text/css">
	.st0{fill:#663822;}
	.st1{fill:#522814;}
	.st2{fill:#FFCBBE;}
	.st3{fill:#EAAC9D;}
	.st4{fill:#E49090;}
	.st5{fill:#555555;stroke:#000000;stroke-width:16;stroke-linecap:round;stroke-linejoin:round;stroke-miterlimit:10;}
	
		.st6{clip-path:url(#SVGID_2_);fill:#F490B9;stroke:#000000;stroke-width:5;stroke-linecap:round;stroke-linejoin:round;stroke-miterlimit:10;}
	.st7{fill:#FFD697;stroke:#000000;stroke-width:9;stroke-linecap:round;stroke-linejoin:round;stroke-miterlimit:10;}
	.st8{display:none;}
	.st9{display:inline;fill:#B4B2C5;stroke:#555555;stroke-width:3;stroke-miterlimit:10;}
	.st10{display:inline;fill:#383A3A;stroke:#555555;stroke-width:4;stroke-miterlimit:10;}
	.st11{display:inline;fill:#555555;stroke:#000000;stroke-width:3;stroke-miterlimit:10;}
	.st12{display:inline;fill:#555555;stroke:#000000;stroke-width:4;stroke-miterlimit:10;}
	.st13{display:inline;fill:#E6F7FF;stroke:#000000;stroke-miterlimit:10;}
	.st14{display:inline;fill:#F8979B;stroke:#000000;stroke-miterlimit:10;}
	.st15{display:inline;fill:#F8F8FA;stroke:#000000;stroke-miterlimit:10;}
	.st16{display:inline;fill:#5C98FF;}
	.st17{display:inline;fill:#797A7A;stroke:#555555;stroke-width:4;stroke-miterlimit:10;}
	.st18{display:inline;fill:#383A3A;stroke:#555555;stroke-width:3;stroke-miterlimit:10;}
	.st19{display:inline;fill:none;stroke:#555555;stroke-width:4;stroke-miterlimit:10;}
	.st20{fill:none;stroke:#FFCBBE;stroke-width:2;stroke-linecap:round;stroke-miterlimit:10;}
	.st21{fill:none;stroke:#EAAC9D;stroke-linecap:round;stroke-miterlimit:10;}
	.st22{fill:#D9F4FF;}
	.st23{fill:none;stroke:#000000;stroke-width:16;stroke-linecap:round;stroke-linejoin:round;stroke-miterlimit:10;}
	.st24{fill:none;stroke:#96BDCE;stroke-width:16;stroke-linecap:round;stroke-miterlimit:10;}
	.st25{fill:none;stroke:#FFCBBE;stroke-width:25;stroke-linecap:round;stroke-miterlimit:10;}
	.st26{fill:none;stroke:#000000;stroke-width:16;stroke-linecap:round;stroke-miterlimit:10;}
	.st27{fill:none;stroke:#000000;stroke-width:16;stroke-miterlimit:10;}
</style>
<g id="Layer_2_1_">
	<g id="Layer_1-2">
		<g id="Layer_1-3">
			<path class="st0" d="M177.5,15.1h35.3c74.9,0,135.7,60.7,135.7,135.7c0,0,0,0,0,0v221.8H41.8V150.9
				C41.8,75.9,102.5,15.2,177.5,15.1z"/>
			<path class="st1" d="M188.3,15.1c-29.1,0-52.7,60.8-52.7,135.7v221.8H41.8V150.9c0-74.9,60.7-135.7,135.7-135.7c0,0,0,0,0,0
				L188.3,15.1z"/>
			<path class="st2" d="M226.6,358.4v26.2c0,8.7-14.1,15.7-31.4,15.7s-31.4-7-31.4-15.7v-26.2H226.6z"/>
			<path class="st3" d="M205.4,398.6c-16.4,5.6-34.3-3.1-39.9-19.5c-1.1-3.3-1.7-6.7-1.7-10.2v-52.4h20.5v52.4
				C184.2,382.3,192.7,394.2,205.4,398.6L205.4,398.6z"/>
			<path class="st3" d="M64.1,272.9c-22.6,0-41-18.4-41-41l0,0c0-3.1,0.3-6.1,1-9.1c5.3-23.5,40-19.7,40,4.5h262.2
				c0-24.1,34.6-28,40-4.5c0.7,3,1,6,1,9.1c0,22.6-18.4,41-41,41l0,0"/>
			<path class="st3" d="M163.8,316.5h62.8v48.3h-62.8L163.8,316.5z"/>
			<path class="st2" d="M326.3,180.6v72c0,52.8-42.8,95.6-95.6,95.6l0,0h-71.1c-52.8,0-95.6-42.8-95.6-95.6v0v-71.2
				c16.3-0.5,38.7-3.2,62.8-8.1c49.4-10,106.2-29,132.6-55.4C259.4,117.9,285.5,171.2,326.3,180.6z"/>
			<path class="st3" d="M222.4,348.2h-62.8c-52.8,0-95.6-42.8-95.6-95.6v0v-71.2c16.3-0.5,38.7-3.2,62.8-8.1v79.3
				C126.8,305.4,169.6,348.2,222.4,348.2z"/>
			<ellipse class="st4" cx="272.4" cy="259.4" rx="21.5" ry="13"/>
			<ellipse class="st4" cx="118" cy="259.4" rx="21.5" ry="13"/>
			<path d="M182.4,244.8h25.5c3.9,0,7.1-3.2,7.1-7.1c0-3.9-3.2-7.1-7.1-7.1c0,0,0,0,0,0h-25.5c-3.9,0-7.1,3.2-7.1,7.1
				C175.3,241.6,178.4,244.8,182.4,244.8L182.4,244.8z"/>
			<path d="M171.5,379.7l-14.3-3.7c3.9,20.9,24,34.6,44.8,30.8c15.6-2.9,27.8-15.1,30.8-30.8l-0.9,3.7 M290.2,379.7h58.4
				c3.9,0,7.1-3.2,7.1-7.1v-48c0-3.9-3.2-7.1-7.1-7.1s-7.1,3.2-7.1,7.1v41h-75c-7.1-2.5-14.5-3.7-22-3.7h-10.9v-6.6
				c45.1-1.4,84-31.9,96-75.4c4-0.3,7.9-1.1,11.7-2.3v18.8c0,3.9,3.2,7.1,7.1,7.1s7.1-3.2,7.1-7.1v-26.3c11.8-9.1,18.7-23.1,18.7-38
				c0-3.6-0.4-7.1-1.2-10.6c-1.9-9.3-8.6-16.8-17.5-19.9v-50.5c0-78.7-64.1-142.8-142.8-142.8h-35.3C98.7,8.3,34.6,72.4,34.6,151.1
				v50.3c-8.7,2.9-15.3,10.1-17.5,19.9c-0.8,3.5-1.2,7-1.2,10.6c0,14.9,6.9,28.9,18.7,38v102.7c0,3.9,3.2,7.1,7.1,7.1H100
				 M319.2,252.6c-0.1,48.9-39.6,88.4-88.5,88.5h-71.1c-48.9-0.1-88.4-39.6-88.5-88.5v-64.4c49.5-3,143.1-23.7,186.3-59.1
				c8.9,15.1,30.7,46.9,61.7,56.9L319.2,252.6L319.2,252.6z M360.2,231.9c0,16.3-11.6,30.2-27.6,33.3c0.5-4.2,0.8-8.4,0.8-12.6v-9.8
				c2.2-2.4,7-6.7,12-4.7c3.6,1.6,7.7,0,9.3-3.6s0-7.7-3.6-9.3c-0.1-0.1-0.3-0.1-0.5-0.2c-5.5-2.2-11.8-2.1-17.2,0.4
				c0.8-7.4,6.6-10.6,11.6-11.2c5.4-0.6,12.4,1.7,14.3,10.2C359.9,226.9,360.1,229.4,360.2,231.9L360.2,231.9z M212.8,22.2
				c70.9,0,128.6,57.7,128.6,128.6v49.6c-2.8,0.5-5.5,1.4-8.1,2.7v-22.6c0-3.3-2.3-6.2-5.5-6.9c-36.9-8.5-61.9-58.5-62.1-59
				c-1-2.1-2.9-3.5-5.2-3.9c-2.3-0.4-4.6,0.4-6.2,2c-16.4,16.4-48.7,32.1-90.7,44.2c-34.1,9.8-73.2,16.6-99.8,17.3
				c-3.8,0.1-6.9,3.2-6.9,7.1v21.8c-2.5-1.3-5.3-2.2-8.1-2.7v-49.6c0-70.9,57.7-128.6,128.6-128.6L212.8,22.2z M31,224.4
				c1.9-8.5,8.9-10.8,14.3-10.2c5,0.6,10.7,3.8,11.6,11.2c-5.4-2.5-11.7-2.7-17.2-0.4c-3.6,1.6-5.2,5.8-3.6,9.3
				c1.5,3.4,5.4,5,8.9,3.8c5-2,9.7,2.2,12,4.6v9.8c0,4.2,0.3,8.4,0.8,12.6c-16-3.1-27.6-17-27.6-33.3
				C30.2,229.3,30.5,226.8,31,224.4L31,224.4z M123.8,365.6H48.9v-88.1c3.8,1.2,7.7,2,11.7,2.3c12.1,43.5,51,74,96.1,75.4v6.6h-10.9
				C138.3,361.9,130.8,363.2,123.8,365.6z M195.2,398.7c-13.4,0-24.3-10.9-24.3-24.3v-13.7h48.6v13.7
				C219.4,387.8,208.6,398.7,195.2,398.7L195.2,398.7z"/>
			<path class="st5" d="M155.8,268.9h78.3c0,0,1.6,38.7-39.2,38.7C155.8,307.7,155.8,268.9,155.8,268.9z"/>
			<g>
				<defs>
					<path id="SVGID_1_" d="M155.9,265.2h78.3c0,0,1.6,38.7-39.2,38.7C155.9,304,155.9,265.2,155.9,265.2z"/>
				</defs>
				<clipPath id="SVGID_2_">
					<use xlink:href="#SVGID_1_"  style="overflow:visible;"/>
				</clipPath>
				<ellipse class="st6" cx="195" cy="297.8" rx="25.1" ry="13.3"/>
			</g>
			<polygon class="st7" points="289.4,244.2 261,230.5 232.8,244.6 238,215 215,194.3 246.6,189.7 260.6,162.8 274.9,189.6 
				306.5,193.7 283.8,214.7 			"/>
			<polygon class="st7" points="158.2,244.3 129.8,230.5 101.6,244.6 106.8,215.1 83.8,194.3 115.4,189.8 129.4,162.8 143.7,189.6 
				175.3,193.7 152.6,214.8 			"/>
		</g>
		<g id="Layer_2-2" class="st8">
			<path class="st9" d="M401.4,258.2l-1.7-0.2c-0.7-0.1-1.2-0.7-1.1-1.4c0,0,0,0,0,0l0.4-3.2c0.1-0.7,0.7-1.2,1.4-1.1c0,0,0,0,0,0
				l1.7,0.2c0.7,0.1,1.2,0.7,1.1,1.4c0,0,0,0,0,0l-0.4,3.2C402.7,257.8,402,258.3,401.4,258.2z"/>
			<path class="st10" d="M378.7,429l-2.1-0.3c-1.4-0.2-2.5-1.5-2.3-2.9c0,0,0-0.1,0-0.1l0.3-1.9c0.2-1.4,1.5-2.5,2.9-2.3
				c0,0,0.1,0,0.1,0l2.1,0.3c1.4,0.2,2.5,1.5,2.3,2.9c0,0,0,0.1,0,0.1l-0.3,1.9C381.5,428.2,380.2,429.2,378.7,429
				C378.7,429,378.7,429,378.7,429z"/>
			<path class="st11" d="M-63.9,269l20.3,118.6c0.1,0.7-0.4,1.5-1.1,1.6l-5.9,1c-0.7,0.1-1.5-0.4-1.6-1.1l-20.4-118.6
				c-0.1-0.7,0.4-1.5,1.1-1.6l5.9-1C-64.9,267.7-64.1,268.2-63.9,269C-63.9,269-63.9,269-63.9,269z"/>
			<path class="st12" d="M-0.8,225.3l31.1,181.6c0.3,1.9-1,3.8-2.9,4.2l-61.6,10.5c-1.9,0.3-3.8-1-4.2-2.9L-69.5,237
				c-0.3-1.9,1-3.8,2.9-4.2L-5,222.4c1.9-0.4,3.8,0.9,4.2,2.8C-0.9,225.2-0.8,225.3-0.8,225.3z"/>
			<path class="st13" d="M2.1,264.8L20.3,371c0.1,0.7-0.4,1.5-1.1,1.6l-9.4,1.6c-1,0.2-2-0.5-2.2-1.6c0,0,0,0,0,0L-10.5,267
				c-0.2-1,0.5-2,1.6-2.2c0,0,0,0,0,0l8.9-1.5c1-0.2,1.9,0.4,2.1,1.4C2.1,264.7,2.1,264.8,2.1,264.8z"/>
			<path class="st14" d="M21.3,376.6l2.1,12.1c0.1,0.7-0.4,1.5-1.1,1.6l-9.9,1.7c-0.7,0.1-1.5-0.4-1.6-1.1l-2.1-12.1
				c-0.1-0.7,0.4-1.5,1.1-1.6l9.9-1.7C20.4,375.4,21.1,375.8,21.3,376.6C21.3,376.6,21.3,376.6,21.3,376.6z"/>
			<path class="st14" d="M-1,246.4l2.1,12.1c0.1,0.7-0.4,1.5-1.1,1.6l-9.9,1.7c-0.7,0.1-1.5-0.4-1.6-1.1l-2.1-12.1
				c-0.1-0.7,0.4-1.5,1.1-1.6l9.9-1.7C-1.9,245.2-1.2,245.7-1,246.4z"/>
			<path class="st15" d="M-24.4,402.7l2.1,12.1c0.1,0.7-0.4,1.5-1.1,1.6l-9.9,1.7c-0.7,0.1-1.5-0.4-1.6-1.1l-2.1-12.1
				c-0.1-0.7,0.4-1.5,1.1-1.6l9.9-1.7C-25.3,401.5-24.6,402-24.4,402.7z"/>
			<path class="st14" d="M-9.3,396.4l2.7,15.8c0.1,0.7-0.4,1.5-1.1,1.6l-9.9,1.7c-0.7,0.1-1.5-0.4-1.6-1.1l-2.7-15.8
				c-0.1-0.7,0.4-1.5,1.1-1.6l9.9-1.7C-10.2,395.2-9.5,395.7-9.3,396.4z"/>
			<path class="st14" d="M5.8,390.7L9,409.5c0.1,0.7-0.4,1.5-1.1,1.6l-9.9,1.7c-0.7,0.1-1.5-0.4-1.6-1.1l-3.2-18.8
				c-0.1-0.7,0.4-1.5,1.1-1.6l9.9-1.7C4.9,389.5,5.6,389.9,5.8,390.7C5.8,390.7,5.8,390.7,5.8,390.7z"/>
			<path class="st15" d="M-51,247.4l-2.1-12.1c-0.1-0.7-0.7-1.2-1.5-1.1c0,0-0.1,0-0.1,0l-9.9,1.7c-0.7,0.1-1.2,0.7-1.1,1.5
				c0,0,0,0.1,0,0.1l2.1,12.1c0.1,0.7,0.7,1.2,1.5,1.1c0,0,0.1,0,0.1,0l9.9-1.7C-51.4,248.9-50.9,248.2-51,247.4z"/>
			<path class="st14" d="M-33.6,254.4l-3.8-21.9c-0.1-0.7-0.7-1.2-1.5-1.1c0,0-0.1,0-0.1,0l-9.9,1.7c-0.7,0.1-1.2,0.7-1.1,1.5
				c0,0,0,0.1,0,0.1l3.7,21.9c0.1,0.7,0.7,1.2,1.5,1.1c0,0,0.1,0,0.1,0l9.9-1.7C-34.1,255.9-33.5,255.2-33.6,254.4
				C-33.6,254.5-33.6,254.4-33.6,254.4z"/>
			<path class="st14" d="M-18.5,248.7l-3.2-18.8c-0.1-0.7-0.7-1.2-1.5-1.1c0,0-0.1,0-0.1,0l-9.9,1.7c-0.7,0.1-1.2,0.7-1.1,1.5
				c0,0,0,0.1,0,0.1l3.2,18.8c0.1,0.7,0.7,1.2,1.5,1.1c0,0,0.1,0,0.1,0l9.9-1.7C-18.9,250.1-18.5,249.4-18.5,248.7z"/>
			<path class="st15" d="M-17.3,255.9l2.1,12.1c0.1,0.7-0.4,1.5-1.1,1.6l-9.9,1.7c-0.7,0.1-1.5-0.4-1.6-1.1l-2.1-12.1
				c-0.1-0.7,0.4-1.5,1.1-1.6l9.9-1.7c0.7-0.2,1.4,0.3,1.6,1C-17.3,255.8-17.3,255.9-17.3,255.9z"/>
			<path class="st15" d="M-14,275.2l2.1,12.1c0.1,0.7-0.4,1.5-1.1,1.6l-9.9,1.7c-0.7,0.1-1.5-0.4-1.6-1.1l-2.1-12.1
				c-0.1-0.7,0.4-1.5,1.1-1.6l9.9-1.7c0.7-0.2,1.4,0.3,1.6,1C-14,275.1-14,275.2-14,275.2z"/>
			<path class="st15" d="M-10.6,294.8l2.1,12.1c0.1,0.7-0.4,1.5-1.1,1.6l-9.9,1.7c-0.7,0.1-1.5-0.4-1.6-1.1l-2.1-12.1
				c-0.1-0.7,0.4-1.5,1.1-1.6l9.9-1.7c0.7-0.2,1.4,0.3,1.6,1C-10.7,294.7-10.6,294.8-10.6,294.8z"/>
			<path class="st15" d="M-7.3,314.1l2.1,12.1c0.1,0.7-0.4,1.5-1.1,1.6l-9.9,1.7c-0.7,0.1-1.5-0.4-1.6-1.1l-2.1-12.1
				c-0.1-0.7,0.4-1.5,1.1-1.6l9.9-1.7c0.7-0.2,1.4,0.3,1.6,1C-7.4,314-7.3,314.1-7.3,314.1z"/>
			<path class="st15" d="M-4.1,333l2.1,12.1c0.1,0.7-0.4,1.5-1.1,1.6l-9.9,1.7c-0.7,0.1-1.5-0.4-1.6-1.1l-2.1-12.1
				c-0.1-0.7,0.4-1.5,1.1-1.6l9.9-1.7c0.7-0.2,1.4,0.2,1.6,0.9C-4.2,332.9-4.2,332.9-4.1,333z"/>
			<path class="st15" d="M-0.7,352.5l2.1,12.1c0.1,0.7-0.4,1.5-1.1,1.6l-9.9,1.7c-0.7,0.1-1.5-0.4-1.6-1.1l-2.1-12.1
				c-0.1-0.7,0.4-1.5,1.1-1.6l9.9-1.7C-1.6,351.3-0.9,351.8-0.7,352.5z"/>
			<path class="st15" d="M2.6,371.8l2.1,12.1c0.1,0.7-0.4,1.5-1.1,1.6l-9.9,1.7c-0.7,0.1-1.5-0.4-1.6-1.1L-10,374
				c-0.1-0.7,0.4-1.5,1.1-1.6l9.9-1.7C1.7,370.6,2.4,371.1,2.6,371.8z"/>
			<path class="st15" d="M-32.3,262l2.1,12.1c0.1,0.7-0.4,1.5-1.1,1.6l-9.9,1.7c-0.7,0.1-1.5-0.4-1.6-1.1l-2.1-12.1
				c-0.1-0.7,0.4-1.5,1.1-1.6l9.9-1.7C-33.2,260.8-32.5,261.2-32.3,262C-32.3,262-32.3,262-32.3,262z"/>
			<path class="st15" d="M-29,281.3l2.1,12.1c0.1,0.7-0.4,1.5-1.1,1.6l-9.9,1.7c-0.7,0.1-1.5-0.4-1.6-1.1l-2.2-12.2
				c-0.1-0.7,0.4-1.5,1.1-1.6l9.9-1.7C-29.9,280-29.2,280.5-29,281.3z"/>
			<path class="st15" d="M-25.7,300.9l2.1,12.1c0.1,0.7-0.4,1.5-1.1,1.6l-9.9,1.7c-0.7,0.1-1.5-0.4-1.6-1.1l-2.1-12.1
				c-0.1-0.7,0.4-1.5,1.1-1.6l9.9-1.7c0.7-0.2,1.4,0.3,1.6,1C-25.8,300.8-25.7,300.9-25.7,300.9z"/>
			<path class="st15" d="M-22.4,320.2l2.1,12.1c0.1,0.7-0.4,1.5-1.1,1.6l-9.9,1.7c-0.7,0.1-1.5-0.4-1.6-1.1l-2.1-12.1
				c-0.1-0.7,0.4-1.5,1.1-1.6l9.9-1.7c0.7-0.2,1.4,0.2,1.6,0.9C-22.5,320.1-22.4,320.1-22.4,320.2z"/>
			<path class="st15" d="M-19.2,339l2.1,12.1c0.1,0.7-0.4,1.5-1.1,1.6l-9.9,1.7c-0.7,0.1-1.5-0.4-1.6-1.1l-2.1-12.1
				c-0.1-0.7,0.4-1.5,1.1-1.6l9.9-1.7C-20.1,337.8-19.4,338.3-19.2,339z"/>
			<path class="st15" d="M-15.8,358.6l2.1,12.1c0.1,0.7-0.4,1.5-1.1,1.6l-9.9,1.7c-0.7,0.1-1.5-0.4-1.6-1.1l-2.1-12.1
				c-0.1-0.7,0.4-1.5,1.1-1.6l9.9-1.7C-16.7,357.4-16,357.8-15.8,358.6C-15.8,358.6-15.8,358.6-15.8,358.6z"/>
			<path class="st15" d="M-12.5,377.9l2.1,12.1c0.1,0.7-0.4,1.5-1.1,1.6l-9.9,1.8c-0.7,0.1-1.5-0.4-1.6-1.1l-2.1-12.1
				c-0.1-0.7,0.4-1.5,1.1-1.6l9.9-1.7c0.7-0.2,1.4,0.1,1.6,0.8C-12.6,377.8-12.5,377.8-12.5,377.9z"/>
			<path class="st15" d="M-49.6,253l2.1,12.1c0.1,0.7-0.4,1.5-1.1,1.6l-9.9,1.7c-0.7,0.1-1.5-0.4-1.6-1.1l-2.1-12.1
				c-0.1-0.7,0.4-1.5,1.1-1.6l9.9-1.7c0.7-0.2,1.4,0.2,1.6,0.9C-49.7,252.9-49.6,253-49.6,253z"/>
			<path class="st15" d="M-46.4,271.8l2.1,12.1c0.1,0.7-0.4,1.5-1.1,1.6l-9.9,1.7c-0.7,0.1-1.5-0.4-1.6-1.1L-59,274
				c-0.1-0.7,0.4-1.5,1.1-1.6l9.9-1.7c0.7-0.2,1.4,0.3,1.6,1C-46.4,271.7-46.4,271.8-46.4,271.8z"/>
			<path class="st15" d="M-43.2,290.7l2.1,12.1c0.1,0.7-0.4,1.5-1.1,1.6l-9.9,1.7c-0.7,0.1-1.5-0.4-1.6-1.1l-2.1-12.1
				c-0.1-0.7,0.4-1.5,1.1-1.6l9.9-1.7c0.7-0.2,1.4,0.2,1.6,0.9C-43.3,290.5-43.2,290.6-43.2,290.7z"/>
			<path class="st15" d="M-39.9,309.5l2.1,12.1c0.1,0.7-0.4,1.5-1.1,1.6l-9.9,1.7c-0.7,0.1-1.5-0.4-1.6-1.1l-2.1-12.1
				c-0.1-0.7,0.4-1.5,1.1-1.6l9.9-1.7C-40.8,308.3-40.1,308.7-39.9,309.5C-39.9,309.5-39.9,309.5-39.9,309.5z"/>
			<path class="st15" d="M-36.7,328.3l2.1,12.1c0.1,0.7-0.4,1.5-1.1,1.6l-9.9,1.7c-0.7,0.1-1.5-0.4-1.6-1.1l-2.1-12.1
				c-0.1-0.7,0.4-1.5,1.1-1.6l9.9-1.7C-37.6,327.1-36.9,327.6-36.7,328.3z"/>
			<path class="st15" d="M-33.5,347.2l2.1,12.1c0.1,0.7-0.4,1.5-1.1,1.6l-9.9,1.7c-0.7,0.1-1.5-0.4-1.6-1.1l-2.1-12.1
				c-0.1-0.7,0.4-1.5,1.1-1.6l9.9-1.7c0.7-0.2,1.4,0.2,1.6,0.9C-33.6,347-33.5,347.1-33.5,347.2z"/>
			<path class="st15" d="M-30.3,366l2.1,12.1c0.1,0.7-0.4,1.5-1.1,1.6l-9.9,1.7c-0.7,0.1-1.5-0.4-1.6-1.1l-2.1-12.1
				c-0.1-0.7,0.4-1.5,1.1-1.6l9.9-1.7c0.7-0.2,1.4,0.2,1.6,0.9C-30.4,365.9-30.3,365.9-30.3,366z"/>
			<path class="st15" d="M-27,384.8l2.1,12.1c0.1,0.7-0.4,1.5-1.1,1.6l-9.9,1.7c-0.7,0.1-1.5-0.4-1.6-1.1l-2.1-12.1
				c-0.1-0.7,0.4-1.5,1.1-1.6l9.9-1.7C-27.9,383.6-27.2,384.1-27,384.8z"/>
			<circle class="st16" cx="-61.1" cy="270.7" r="1.1"/>
		</g>
		<g id="Layer_3" class="st8">
			<path class="st17" d="M382,422.1l-6.8-0.9c-3.5-0.5-5.1-2.6-4.6-6l15.5-137.1c0.5-3.5,6.5-20.3,10-19.8l8.7,1.2
				c3.5,0.5,4.9,18.3,4.4,21.8l-21.1,136.3C387.6,421,385.5,422.6,382,422.1z"/>
			<path class="st18" d="M393.7,318.2l-2.4-0.3c-0.7-0.1-1.2-0.7-1.1-1.5c0,0,0-0.1,0-0.1l3.1-14L394,288c0-0.7,0.6-1.3,1.3-1.3
				c0.1,0,0.1,0,0.2,0l2.4,0.3c0.7,0.1,1.2,0.7,1.1,1.5c0,0,0,0.1,0,0.1l-3.1,14l-0.7,14.3c0,0.7-0.6,1.3-1.3,1.3
				C393.8,318.2,393.7,318.2,393.7,318.2z"/>
			<line class="st19" x1="386.3" y1="277.1" x2="409.1" y2="280.1"/>
			<line class="st19" x1="370.9" y1="412.4" x2="388.5" y2="414.8"/>
		</g>
		<line class="st20" x1="187" y1="379.1" x2="217.9" y2="379.7"/>
		<line class="st21" x1="171.9" y1="379.7" x2="185.7" y2="379.7"/>
	</g>
</g>
<g>
	<polygon class="st22" points="166.1,378.5 48.8,378.5 48.8,314 25.3,306.5 14.6,314 14.6,401.4 17.8,416.3 104.2,419.6 
		103.7,464.9 287.7,464.9 279.2,419 372.7,417.9 379.4,398.2 379.4,310.8 349.8,304.1 339.4,378.5 226.6,378.5 193,390.1 	"/>
	<path class="st23" d="M230.5,370.5h107.7l0-64c1.4-4.7,4.5-8.3,10.4-10.4c7.6-1.1,15.2-1.1,22.7,0c4.5,1.7,7.6,4.9,9.5,9.5v93.7
		c-0.8,5.3-5.1,9.1-11.7,11.7h-35.7"/>
	<line class="st24" x1="118.6" y1="414.8" x2="114.1" y2="461.7"/>
	<path class="st23" d="M158.5,370.5H50.2v-65.1c-2.5-4.7-5.7-8.2-9.6-10.7c-7.3-1.6-14.2-1.6-20.8,0c-5,2.7-8.6,6.3-10.7,10.7v93.3
		c2.3,5.4,6.4,9.7,12.8,12.8H103l-4.8,50.1h191.5l-5.3-50.1H310"/>
	<line class="st25" x1="29.7" y1="309.3" x2="29.7" y2="320.5"/>
	<line class="st26" x1="15.4" y1="330.3" x2="44" y2="330.3"/>
	<line class="st25" x1="359.8" y1="309.3" x2="359.8" y2="320.5"/>
	<line class="st26" x1="345.5" y1="330.3" x2="374.2" y2="330.3"/>
</g>
<path class="st27" d="M163.2,377.7c-1,21,65.3,19,63.9,0"/>
</svg>
