<?xml version="1.0" encoding="utf-8"?>
<!-- Generator: Adobe Illustrator 25.1.0, SVG Export Plug-In . SVG Version: 6.00 Build 0)  -->
<svg version="1.1" xmlns="http://www.w3.org/2000/svg" xmlns:xlink="http://www.w3.org/1999/xlink" x="0px" y="0px"
	 viewBox="0 0 512 512" style="enable-background:new 0 0 512 512;" xml:space="preserve">
<style type="text/css">
	.st0{fill:#FFCBBE;}
	.st1{fill:#EAAC9D;}
	.st2{fill:#663822;}
	.st3{fill:#522814;}
	.st4{fill:#D9F4FF;}
	.st5{fill:#96BDCE;}
	.st6{fill:#E49090;}
	.st7{fill:#FFD697;stroke:#555555;stroke-width:4;stroke-miterlimit:10;}
	.st8{fill:#B4B2C5;stroke:#555555;stroke-width:3;stroke-miterlimit:10;}
	.st9{fill:#383A3A;stroke:#555555;stroke-width:4;stroke-miterlimit:10;}
	.st10{fill:#555555;stroke:#000000;stroke-width:3;stroke-miterlimit:10;}
	.st11{fill:#555555;stroke:#000000;stroke-width:4;stroke-miterlimit:10;}
	.st12{fill:#E6F7FF;stroke:#000000;stroke-miterlimit:10;}
	.st13{fill:#F8979B;stroke:#000000;stroke-miterlimit:10;}
	.st14{fill:#F8F8FA;stroke:#000000;stroke-miterlimit:10;}
	.st15{fill:#5C98FF;}
	.st16{fill:#797A7A;stroke:#555555;stroke-width:4;stroke-miterlimit:10;}
	.st17{fill:#383A3A;stroke:#555555;stroke-width:3;stroke-miterlimit:10;}
	.st18{fill:none;stroke:#555555;stroke-width:4;stroke-miterlimit:10;}
</style>
<g id="Layer_1" xmlns:svgjs="http://svgjs.com/svgjs">
	<g>
		<g>
			<g>
				<path class="st0" d="M458.2,503.1h-27.4v-39.5h57.4v9.5C488.3,489.6,474.8,503.1,458.2,503.1z"/>
				<path class="st1" d="M488.3,463.5v9.5c0,16.6-13.4,30-30,30h-27.4v-13.8h27.4c15.1,0,27.6-11.2,29.7-25.7L488.3,463.5z"/>
				<path class="st2" d="M255.9,33.7h35.3c75,0,135.7,60.8,135.7,135.7v221.8H120.2V169.5C120.2,94.5,181,33.7,255.9,33.7
					L255.9,33.7z"/>
				<path class="st3" d="M266.7,33.7c-29.1,0-52.7,60.8-52.7,135.7v221.8h-93.8V169.5c0-75,60.8-135.7,135.7-135.7L266.7,33.7
					L266.7,33.7z"/>
				<path class="st4" d="M242.1,387.5h-17.9c-28.7,0-53.5,20.2-59.3,48.3l-13.8,67.2h244.7l-13.8-67.2
					c-5.8-28.1-30.5-48.3-59.3-48.3H305"/>
				<path class="st5" d="M245.9,387.5c-16.1,0-30,20.2-33.3,48.3l-7.7,67.2h-53.7l13.8-67.2c5.8-28.1,30.5-48.3,59.3-48.3
					L245.9,387.5z"/>
				<path class="st0" d="M305,335.1v52.4c0,17.3-14.1,31.4-31.4,31.4c-17.3,0-31.4-14.1-31.4-31.4v-52.4H305z"/>
				<g>
					<path class="st1" d="M283.8,417.2c-3.2,1.1-6.7,1.7-10.2,1.7c-17.3,0-31.4-14.1-31.4-31.4v-52.4h20.5v52.4
						C262.7,401.3,271.5,413,283.8,417.2L283.8,417.2z"/>
					<path class="st1" d="M142.5,291.5c-22.6,0-41-18.3-41-41c0-3.1,0.3-6.1,1-9.1c5.3-23.5,40-19.7,40,4.5h262.2
						c0-24.1,34.6-28,40-4.5c0.7,2.9,1,5.9,1,9.1c0,22.6-18.3,41-41,41"/>
					<path class="st1" d="M242.2,335.1H305v48.3h-62.8V335.1z"/>
				</g>
				<path class="st0" d="M404.7,199.2v72c0,52.8-42.8,95.6-95.6,95.6H238c-52.8,0-95.6-42.8-95.6-95.6v-71.2
					c16.3-0.5,38.7-3.2,62.8-8.1c49.4-10,106.2-29,132.6-55.4C337.8,136.5,363.9,189.8,404.7,199.2z"/>
				<path class="st1" d="M300.8,366.8H238c-52.8,0-95.6-42.8-95.6-95.6v-71.2c16.3-0.5,38.7-3.2,62.8-8.1v79.3
					C205.3,324,248,366.8,300.8,366.8z"/>
				<g>
					<ellipse class="st6" cx="350.8" cy="278" rx="21.5" ry="13"/>
					<ellipse class="st6" cx="196.4" cy="278" rx="21.5" ry="13"/>
				</g>
				<path class="st4" d="M440.3,463.5v39.5h-75.6c-8.3,0-15.2-5.9-16.7-13.8c-0.2-1-0.3-2.1-0.3-3.2v-22.5L440.3,463.5z"/>
				<path class="st5" d="M440.3,489.2v13.8h-75.6c-8.3,0-15.2-5.9-16.7-13.8H440.3z"/>
				<path class="st0" d="M88.9,503.1h27.4v-39.5H58.8v9.5C58.8,489.6,72.3,503.1,88.9,503.1z"/>
				<path class="st1" d="M58.8,463.5v9.5c0,16.6,13.4,30,30,30h27.4v-13.8H88.9c-15.1,0-27.6-11.2-29.7-25.7L58.8,463.5z"/>
				<path class="st5" d="M106.8,463.5v39.5h75.6c8.3,0,15.2-5.9,16.7-13.8c0.2-1,0.3-2.1,0.3-3.2v-22.5L106.8,463.5z"/>
			</g>
			<g>
				<path d="M260.8,263.4h25.5c3.9,0,7.1-3.2,7.1-7.1c0-3.9-3.2-7.1-7.1-7.1h-25.5c-3.9,0-7.1,3.2-7.1,7.1
					C253.7,260.3,256.9,263.4,260.8,263.4z"/>
				<path d="M301.2,282.1c-3.6-1.5-7.8,0.2-9.3,3.8c-3.1,7.4-10.3,12.2-18.3,12.2c-8,0-15.2-4.8-18.3-12.2c-1.5-3.6-5.7-5.3-9.3-3.8
					c-3.6,1.5-5.3,5.7-3.8,9.3c5.3,12.7,17.7,20.8,31.4,20.8c13.7,0,26.1-8.2,31.4-20.8C306.5,287.8,304.8,283.6,301.2,282.1z"/>
				<path d="M488.3,456.4h-94.7l-4.5-22c-2.9-14.3-10.3-26.8-20.5-36.1h58.4c3.9,0,7.1-3.2,7.1-7.1v-48c0-3.9-3.2-7.1-7.1-7.1
					c-3.9,0-7.1,3.2-7.1,7.1v41h-75c-6.9-2.4-14.3-3.7-22-3.7H312v-6.6c45.9-1.3,84.3-32.9,96-75.4c4.1-0.3,8-1.1,11.7-2.3v18.8
					c0,3.9,3.2,7.1,7.1,7.1c3.9,0,7.1-3.2,7.1-7.1v-26.3c11.4-8.8,18.7-22.6,18.7-38c0-3.6-0.4-7.2-1.2-10.6
					c-2.2-9.8-8.9-17-17.5-19.9v-50.5c0-78.7-64.1-142.8-142.8-142.8h-35.3h0c-78.7,0-142.8,64.1-142.8,142.8V220
					c-8.7,2.9-15.3,10.1-17.5,19.9c-0.8,3.5-1.2,7-1.2,10.6c0,15.5,7.3,29.2,18.7,38v102.7c0,3.9,3.2,7.1,7.1,7.1h58.3
					c-6.4,5.9-11.7,13-15.5,21.1c-1.7,3.5-0.1,7.8,3.4,9.4c1,0.5,2,0.7,3,0.7c2.7,0,5.2-1.5,6.4-4.1c8.7-18.7,27.7-30.8,48.4-30.8
					h11.5c3.3,17.8,19,31.4,37.8,31.4c18.8,0,34.5-13.5,37.8-31.4h11.5c25.2,0,47.2,18,52.3,42.7l5.7,27.6c0.7,3.2,3.5,5.7,6.9,5.7
					h45.4V496h-68.6c-5.5,0-10-4.5-10-10v-22.5c0-3.9-3.2-7.1-7.1-7.1c-3.9,0-7.1,3.2-7.1,7.1V486c0,3.6,0.8,6.9,2.2,10H204.4
					c1.4-3,2.2-6.4,2.2-10v-22.5c0-3.9-3.2-7.1-7.1-7.1s-7.1,3.2-7.1,7.1V486c0,5.5-4.5,10-10,10h0h-68.6v-25.4h45.3
					c0,0,0.1,0,0.1,0c3.3,0,6.2-2.3,6.9-5.7l2.8-13.8c0.8-3.8-1.7-7.6-5.5-8.4c-3.8-0.8-7.6,1.7-8.4,5.5l-1.7,8.1H58.8
					c-3.9,0-7.1,3.2-7.1,7.1v9.5c0,20.5,16.6,37.1,37.1,37.1h369.4c20.5,0,37.1-16.6,37.1-37.1v-9.5
					C495.3,459.6,492.2,456.4,488.3,456.4L488.3,456.4z M397.6,271.2c0,48.8-39.7,88.5-88.5,88.5H238c-48.8,0-88.5-39.7-88.5-88.5
					v-64.4c49.5-3,143.1-23.7,186.3-59.1c8.9,15.1,30.7,46.9,61.7,56.9V271.2z M438.6,250.5c0,16.5-11.9,30.3-27.6,33.3
					c0.5-4.1,0.8-8.3,0.8-12.6v-9.8c2.2-2.4,7-6.7,12-4.7c3.6,1.5,7.8-0.3,9.2-3.9c1.5-3.6-0.3-7.8-3.9-9.2
					c-5.6-2.2-11.5-2.1-17.2,0.4c0.8-7.4,6.6-10.6,11.6-11.2c5.4-0.6,12.4,1.7,14.3,10.2C438.3,245.5,438.6,248,438.6,250.5z
					 M291.2,40.8c70.9,0,128.6,57.7,128.6,128.6v49.6c-2.9,0.5-5.6,1.5-8.1,2.7v-22.6c0-3.3-2.3-6.2-5.5-6.9
					c-36.9-8.5-61.9-58.5-62.1-59c-1-2.1-2.9-3.5-5.2-3.9c-2.3-0.4-4.6,0.4-6.2,2c-16.4,16.4-48.7,32.1-90.7,44.2
					c-34.1,9.8-73.2,16.6-99.8,17.3c-3.8,0.1-6.9,3.2-6.9,7.1v21.8c-2.5-1.3-5.2-2.2-8.1-2.7v-49.6c0-70.9,57.7-128.6,128.6-128.6
					L291.2,40.8z M109.4,243c1.9-8.5,8.9-10.8,14.3-10.2c5,0.6,10.7,3.8,11.6,11.2c-5.7-2.5-11.6-2.7-17.2-0.4
					c-3.6,1.5-5.4,5.6-3.9,9.2c1.5,3.6,5.6,5.4,9.2,3.9c5-2,9.7,2.2,12,4.6v9.8c0,4.3,0.3,8.4,0.8,12.6c-15.7-3-27.6-16.8-27.6-33.3
					C108.6,248,108.9,245.5,109.4,243L109.4,243z M202.2,384.2h-74.9v-88.1c3.7,1.2,7.7,2,11.7,2.3c11.7,42.5,50.2,74.1,96.1,75.4
					v6.6h-10.9C216.6,380.5,209.2,381.8,202.2,384.2z M273.6,411.8c-13.4,0-24.3-10.9-24.3-24.3v-13.7h48.6v13.7
					C297.9,400.9,287,411.8,273.6,411.8L273.6,411.8z M65.9,473v-2.4h33.8V496H88.9C76.2,496,65.9,485.7,65.9,473L65.9,473z
					 M481.2,473c0,12.7-10.3,22.9-22.9,22.9h-10.8v-25.4h33.8V473z"/>
				<path d="M351.2,234.4c-3.1,7.4-10.3,12.2-18.3,12.2c-8,0-15.2-4.8-18.3-12.2c-1.5-3.6-5.7-5.3-9.3-3.8c-3.6,1.5-5.3,5.7-3.8,9.3
					c5.3,12.7,17.7,20.8,31.4,20.8s26.1-8.2,31.4-20.8c1.5-3.6-0.2-7.8-3.8-9.3C356.9,229.1,352.7,230.8,351.2,234.4L351.2,234.4z"
					/>
				<path d="M241.9,230.6c-3.6-1.5-7.8,0.2-9.3,3.8c-3.1,7.4-10.3,12.2-18.3,12.2c-8,0-15.2-4.8-18.3-12.2c-1.5-3.6-5.7-5.3-9.3-3.8
					c-3.6,1.5-5.3,5.7-3.8,9.3c5.3,12.7,17.7,20.8,31.4,20.8s26.1-8.2,31.4-20.8C247.2,236.3,245.5,232.1,241.9,230.6L241.9,230.6z"
					/>
				<path class="st7" d="M381.2,27.1l14.1,6.5l-6.5,14.1c-1.6,3.5-0.1,7.8,3.4,9.4c3.5,1.6,7.8,0.1,9.4-3.4l6.5-14.1l14.1,6.5
					c3.5,1.6,7.8,0.1,9.4-3.4c1.6-3.5,0.1-7.8-3.4-9.4l-14.1-6.5l6.5-14.1c1.6-3.5,0.1-7.8-3.4-9.4c-3.5-1.6-7.8-0.1-9.4,3.4
					l-6.5,14.1l-14.1-6.5c-3.5-1.6-7.8-0.1-9.4,3.4S377.6,25.5,381.2,27.1z"/>
				<path class="st7" d="M48.3,123.5c-0.8,3.8,1.6,7.6,5.4,8.4c3.8,0.8,7.6-1.6,8.4-5.4l3.3-15.2l15.2,3.3c3.8,0.8,7.6-1.6,8.4-5.4
					c0.8-3.8-1.6-7.6-5.4-8.4l-15.2-3.3l3.3-15.2c0.8-3.8-1.6-7.6-5.4-8.4c-3.8-0.8-7.6,1.6-8.4,5.4l-3.3,15.2l-15.2-3.3
					c-3.8-0.8-7.6,1.6-8.4,5.4s1.6,7.6,5.4,8.4l15.2,3.3L48.3,123.5z"/>
				<path class="st7" d="M495.9,214l-12.3-9.5l9.5-12.3c2.4-3.1,1.8-7.5-1.3-9.9c-3.1-2.4-7.5-1.8-9.9,1.3l-9.5,12.3l-12.3-9.5
					c-3.1-2.4-7.5-1.8-9.9,1.3c-2.4,3.1-1.8,7.5,1.3,9.9l12.3,9.5l-9.5,12.3c-2.4,3.1-1.8,7.5,1.3,9.9c3.1,2.4,7.5,1.8,9.9-1.3
					l9.5-12.3l12.3,9.5c3.1,2.4,7.5,1.8,9.9-1.3C499.5,220.9,499,216.4,495.9,214z"/>
			</g>
		</g>
	</g>
</g>
<g id="Layer_2">
	<path class="st8" d="M479.8,276.8l-1.7-0.2c-0.7-0.1-1.2-0.7-1.1-1.4l0.4-3.2c0.1-0.7,0.7-1.2,1.4-1.1l1.7,0.2
		c0.7,0.1,1.2,0.7,1.1,1.4l-0.4,3.2C481.1,276.4,480.4,276.9,479.8,276.8z"/>
	<path class="st9" d="M457.1,447.6l-2.1-0.3c-1.5-0.2-2.5-1.5-2.3-3l0.3-1.9c0.2-1.5,1.5-2.5,3-2.3l2.1,0.3c1.5,0.2,2.5,1.5,2.3,3
		l-0.3,1.9C459.9,446.8,458.6,447.8,457.1,447.6z"/>
	<path class="st10" d="M14.5,287.6l20.3,118.6c0.1,0.8-0.4,1.5-1.1,1.6l-5.9,1c-0.8,0.1-1.5-0.4-1.6-1.1L5.8,289.1
		c-0.1-0.8,0.4-1.5,1.1-1.6l5.9-1C13.6,286.3,14.3,286.8,14.5,287.6z"/>
	<path class="st11" d="M77.6,243.9l31.1,181.6c0.3,2-1,3.8-2.9,4.2l-61.6,10.5c-2,0.3-3.8-1-4.2-2.9L8.9,255.6c-0.3-2,1-3.8,2.9-4.2
		L73.4,241C75.4,240.6,77.2,241.9,77.6,243.9z"/>
	<path class="st12" d="M80.5,283.4l18.2,106.2c0.1,0.8-0.4,1.5-1.1,1.6l-9.4,1.6c-1,0.2-2-0.5-2.2-1.6L67.9,285.6
		c-0.2-1,0.5-2,1.6-2.2l8.9-1.5C79.4,281.7,80.4,282.4,80.5,283.4z"/>
	<path class="st13" d="M99.7,395.2l2.1,12.1c0.1,0.8-0.4,1.5-1.1,1.6l-9.9,1.7c-0.8,0.1-1.5-0.4-1.6-1.1l-2.1-12.1
		c-0.1-0.8,0.4-1.5,1.1-1.6l9.9-1.7C98.8,393.9,99.5,394.4,99.7,395.2z"/>
	<path class="st13" d="M77.4,265l2.1,12.1c0.1,0.8-0.4,1.5-1.1,1.6l-9.9,1.7c-0.8,0.1-1.5-0.4-1.6-1.1l-2.1-12.1
		c-0.1-0.8,0.4-1.5,1.1-1.6l9.9-1.7C76.6,263.8,77.3,264.3,77.4,265z"/>
	<path class="st14" d="M54,421.3l2.1,12.1c0.1,0.8-0.4,1.5-1.1,1.6l-9.9,1.7c-0.8,0.1-1.5-0.4-1.6-1.1l-2.1-12.1
		c-0.1-0.8,0.4-1.5,1.1-1.6l9.9-1.7C53.2,420.1,53.9,420.6,54,421.3z"/>
	<path class="st13" d="M69.1,415l2.7,15.8c0.1,0.8-0.4,1.5-1.1,1.6l-9.9,1.7c-0.8,0.1-1.5-0.4-1.6-1.1l-2.7-15.8
		c-0.1-0.8,0.4-1.5,1.1-1.6l9.9-1.7C68.2,413.8,68.9,414.3,69.1,415z"/>
	<path class="st13" d="M84.2,409.3l3.2,18.8c0.1,0.8-0.4,1.5-1.1,1.6l-9.9,1.7c-0.8,0.1-1.5-0.4-1.6-1.1l-3.2-18.8
		c-0.1-0.8,0.4-1.5,1.1-1.6l9.9-1.7C83.3,408,84.1,408.6,84.2,409.3z"/>
	<path class="st14" d="M27.4,266l-2.1-12.1c-0.1-0.8-0.9-1.3-1.6-1.1l-9.9,1.7c-0.8,0.1-1.3,0.9-1.1,1.6l2.1,12.1
		c0.1,0.8,0.9,1.3,1.6,1.1l9.9-1.7C27,267.4,27.6,266.7,27.4,266z"/>
	<path class="st13" d="M44.8,273L41,251.1c-0.1-0.8-0.9-1.3-1.6-1.1l-9.9,1.7c-0.8,0.1-1.3,0.9-1.1,1.6l3.7,21.9
		c0.1,0.8,0.9,1.3,1.6,1.1l9.9-1.7C44.4,274.5,44.9,273.8,44.8,273z"/>
	<path class="st13" d="M59.9,267.3l-3.2-18.8c-0.1-0.8-0.9-1.3-1.6-1.1l-9.9,1.7c-0.8,0.1-1.3,0.9-1.1,1.6l3.2,18.8
		c0.1,0.8,0.9,1.3,1.6,1.1l9.9-1.7C59.5,268.7,60,268,59.9,267.3z"/>
	<path class="st14" d="M61.1,274.5l2.1,12.1c0.1,0.8-0.4,1.5-1.1,1.6l-9.9,1.7c-0.8,0.1-1.5-0.4-1.6-1.1l-2.1-12.1
		c-0.1-0.8,0.4-1.5,1.1-1.6l9.9-1.7C60.3,273.2,61,273.8,61.1,274.5z"/>
	<path class="st14" d="M64.4,293.8l2.1,12.1c0.1,0.8-0.4,1.5-1.1,1.6l-9.9,1.7c-0.8,0.1-1.5-0.4-1.6-1.1L51.8,296
		c-0.1-0.8,0.4-1.5,1.1-1.6l9.9-1.7C63.6,292.5,64.3,293.1,64.4,293.8z"/>
	<path class="st14" d="M67.8,313.4l2.1,12.1c0.1,0.8-0.4,1.5-1.1,1.6l-9.9,1.7c-0.8,0.1-1.5-0.4-1.6-1.1l-2.1-12.1
		c-0.1-0.8,0.4-1.5,1.1-1.6l9.9-1.7C66.9,312.1,67.7,312.6,67.8,313.4z"/>
	<path class="st14" d="M71.1,332.7l2.1,12.1c0.1,0.8-0.4,1.5-1.1,1.6l-9.9,1.7c-0.8,0.1-1.5-0.4-1.6-1.1l-2.1-12.1
		c-0.1-0.8,0.4-1.5,1.1-1.6l9.9-1.7C70.2,331.4,71,331.9,71.1,332.7z"/>
	<path class="st14" d="M74.3,351.6l2.1,12.1c0.1,0.8-0.4,1.5-1.1,1.6l-9.9,1.7c-0.8,0.1-1.5-0.4-1.6-1.1l-2.1-12.1
		c-0.1-0.8,0.4-1.5,1.1-1.6l9.9-1.7C73.5,350.3,74.2,350.8,74.3,351.6z"/>
	<path class="st14" d="M77.7,371.1l2.1,12.1c0.1,0.8-0.4,1.5-1.1,1.6l-9.9,1.7c-0.8,0.1-1.5-0.4-1.6-1.1l-2.1-12.1
		c-0.1-0.8,0.4-1.5,1.1-1.6l9.9-1.7C76.8,369.9,77.5,370.4,77.7,371.1z"/>
	<path class="st14" d="M81,390.4l2.1,12.1c0.1,0.8-0.4,1.5-1.1,1.6l-9.9,1.7c-0.8,0.1-1.5-0.4-1.6-1.1l-2.1-12.1
		c-0.1-0.8,0.4-1.5,1.1-1.6l9.9-1.7C80.1,389.2,80.8,389.7,81,390.4z"/>
	<path class="st14" d="M46.1,280.6l2.1,12.1c0.1,0.8-0.4,1.5-1.1,1.6l-9.9,1.7c-0.8,0.1-1.5-0.4-1.6-1.1l-2.1-12.1
		c-0.1-0.8,0.4-1.5,1.1-1.6l9.9-1.7C45.2,279.3,45.9,279.8,46.1,280.6z"/>
	<path class="st14" d="M49.4,299.9l2.1,12.1c0.1,0.8-0.4,1.5-1.1,1.6l-9.9,1.7c-0.8,0.1-1.5-0.4-1.6-1.1L36.7,302
		c-0.1-0.8,0.4-1.5,1.1-1.6l9.9-1.7C48.5,298.6,49.2,299.1,49.4,299.9z"/>
	<path class="st14" d="M52.7,319.5l2.1,12.1c0.1,0.8-0.4,1.5-1.1,1.6l-9.9,1.7c-0.8,0.1-1.5-0.4-1.6-1.1l-2.1-12.1
		c-0.1-0.8,0.4-1.5,1.1-1.6l9.9-1.7C51.8,318.2,52.6,318.7,52.7,319.5z"/>
	<path class="st14" d="M56,338.8l2.1,12.1c0.1,0.8-0.4,1.5-1.1,1.6l-9.9,1.7c-0.8,0.1-1.5-0.4-1.6-1.1l-2.1-12.1
		c-0.1-0.8,0.4-1.5,1.1-1.6l9.9-1.7C55.2,337.5,55.9,338,56,338.8z"/>
	<path class="st14" d="M59.2,357.6l2.1,12.1c0.1,0.8-0.4,1.5-1.1,1.6l-9.9,1.7c-0.8,0.1-1.5-0.4-1.6-1.1l-2.1-12.1
		c-0.1-0.8,0.4-1.5,1.1-1.6l9.9-1.7C58.4,356.4,59.1,356.9,59.2,357.6z"/>
	<path class="st14" d="M62.6,377.2l2.1,12.1c0.1,0.8-0.4,1.5-1.1,1.6l-9.9,1.7c-0.8,0.1-1.5-0.4-1.6-1.1L50,379.4
		c-0.1-0.8,0.4-1.5,1.1-1.6l9.9-1.7C61.7,375.9,62.5,376.5,62.6,377.2z"/>
	<path class="st14" d="M65.9,396.5l2.1,12.1c0.1,0.8-0.4,1.5-1.1,1.6L57,412c-0.8,0.1-1.5-0.4-1.6-1.1l-2.1-12.1
		c-0.1-0.8,0.4-1.5,1.1-1.6l9.9-1.7C65,395.2,65.8,395.8,65.9,396.5z"/>
	<path class="st14" d="M28.8,271.6l2.1,12.1c0.1,0.8-0.4,1.5-1.1,1.6l-9.9,1.7c-0.8,0.1-1.5-0.4-1.6-1.1l-2.1-12.1
		c-0.1-0.8,0.4-1.5,1.1-1.6l9.9-1.7C27.9,270.3,28.7,270.8,28.8,271.6z"/>
	<path class="st14" d="M32,290.4l2.1,12.1c0.1,0.8-0.4,1.5-1.1,1.6l-9.9,1.7c-0.8,0.1-1.5-0.4-1.6-1.1l-2.1-12.1
		c-0.1-0.8,0.4-1.5,1.1-1.6l9.9-1.7C31.2,289.1,31.9,289.7,32,290.4z"/>
	<path class="st14" d="M35.2,309.3l2.1,12.1c0.1,0.8-0.4,1.5-1.1,1.6l-9.9,1.7c-0.8,0.1-1.5-0.4-1.6-1.1l-2.1-12.1
		c-0.1-0.8,0.4-1.5,1.1-1.6l9.9-1.7C34.4,308,35.1,308.5,35.2,309.3z"/>
	<path class="st14" d="M38.5,328.1l2.1,12.1c0.1,0.8-0.4,1.5-1.1,1.6l-9.9,1.7c-0.8,0.1-1.5-0.4-1.6-1.1l-2.1-12.1
		c-0.1-0.8,0.4-1.5,1.1-1.6l9.9-1.7C37.6,326.8,38.3,327.3,38.5,328.1z"/>
	<path class="st14" d="M41.7,346.9l2.1,12.1c0.1,0.8-0.4,1.5-1.1,1.6l-9.9,1.7c-0.8,0.1-1.5-0.4-1.6-1.1l-2.1-12.1
		c-0.1-0.8,0.4-1.5,1.1-1.6l9.9-1.7C40.8,345.7,41.6,346.2,41.7,346.9z"/>
	<path class="st14" d="M44.9,365.8l2.1,12.1c0.1,0.8-0.4,1.5-1.1,1.6l-9.9,1.7c-0.8,0.1-1.5-0.4-1.6-1.1l-2.1-12.1
		c-0.1-0.8,0.4-1.5,1.1-1.6l9.9-1.7C44.1,364.5,44.8,365,44.9,365.8z"/>
	<path class="st14" d="M48.1,384.6l2.1,12.1c0.1,0.8-0.4,1.5-1.1,1.6l-9.9,1.7c-0.8,0.1-1.5-0.4-1.6-1.1l-2.1-12.1
		c-0.1-0.8,0.4-1.5,1.1-1.6l9.9-1.7C47.3,383.3,48,383.8,48.1,384.6z"/>
	<path class="st14" d="M51.4,403.4l2.1,12.1c0.1,0.8-0.4,1.5-1.1,1.6l-9.9,1.7c-0.8,0.1-1.5-0.4-1.6-1.1l-2.1-12.1
		c-0.1-0.8,0.4-1.5,1.1-1.6l9.9-1.7C50.5,402.2,51.2,402.7,51.4,403.4z"/>
	<circle class="st15" cx="17.3" cy="289.3" r="1.1"/>
</g>
<g id="Layer_3">
	<path class="st16" d="M460.4,440.7l-6.8-0.9c-3.5-0.5-5.1-2.6-4.6-6l15.5-137.1c0.5-3.5,6.5-20.3,10-19.8l8.7,1.2
		c3.5,0.5,4.9,18.3,4.4,21.8l-21.1,136.3C466,439.6,463.9,441.2,460.4,440.7z"/>
	<path class="st17" d="M472.1,336.8l-2.4-0.3c-0.8-0.1-1.3-0.9-1.1-1.6l3.1-14l0.7-14.3c0-0.8,0.7-1.4,1.5-1.3l2.4,0.3
		c0.8,0.1,1.3,0.9,1.1,1.6l-3.1,14l-0.7,14.3C473.6,336.3,472.9,336.9,472.1,336.8z"/>
	<line class="st18" x1="464.7" y1="295.7" x2="487.5" y2="298.7"/>
	<line class="st18" x1="449.3" y1="431" x2="466.9" y2="433.4"/>
</g>
</svg>
