<svg xmlns="http://www.w3.org/2000/svg" viewBox="0 0 491.01 483.1"><defs><style>.cls-1{fill:#ffcbbe;}.cls-2{fill:#eaac9d;}.cls-3{fill:#663822;}.cls-4{fill:#522814;}.cls-5{fill:#d9f4ff;}.cls-6{fill:#96bdce;}.cls-7{fill:#e49090;}.cls-8{fill:#b4b2c5;}.cls-16,.cls-17,.cls-18,.cls-8,.cls-9{stroke:#555;}.cls-10,.cls-11,.cls-12,.cls-13,.cls-14,.cls-16,.cls-17,.cls-18,.cls-8,.cls-9{stroke-miterlimit:10;}.cls-10,.cls-17,.cls-8{stroke-width:3px;}.cls-17,.cls-9{fill:#383a3a;}.cls-11,.cls-16,.cls-18,.cls-9{stroke-width:4px;}.cls-10,.cls-11{fill:#555;}.cls-10,.cls-11,.cls-12,.cls-13,.cls-14{stroke:#000;}.cls-12{fill:#e6f7ff;}.cls-13{fill:#f8979b;}.cls-14{fill:#f8f8fa;}.cls-15{fill:#5c98ff;}.cls-16{fill:#797a7a;}.cls-18{fill:none;}</style></defs><g id="Layer_2" data-name="Layer 2"><g id="Layer_1-2" data-name="Layer 1"><g id="Layer_1-3" data-name="Layer 1"><path class="cls-1" d="M453.91,476.2h-27.4V436.7h57.4v9.5A30,30,0,0,1,453.91,476.2Z"/><path class="cls-2" d="M484,436.6v9.5a30,30,0,0,1-30,30h-27.4V462.3H454a30.06,30.06,0,0,0,29.7-25.7Z"/><path class="cls-3" d="M251.61,6.8h35.3a135.69,135.69,0,0,1,135.7,135.7V364.3H115.91V142.6A135.78,135.78,0,0,1,251.61,6.8Z"/><path class="cls-4" d="M262.41,6.8c-29.1,0-52.7,60.8-52.7,135.7V364.3h-93.8V142.6A135.69,135.69,0,0,1,251.61,6.9l10.8-.1Z"/><path class="cls-5" d="M237.81,360.6h-17.9a60.59,60.59,0,0,0-59.3,48.3l-13.8,67.2h244.7l-13.8-67.2a60.5,60.5,0,0,0-59.3-48.3h-17.7"/><path class="cls-6" d="M241.61,360.6c-16.1,0-30,20.2-33.3,48.3l-7.7,67.2h-53.7l13.8-67.2A60.5,60.5,0,0,1,220,360.6Z"/><path class="cls-1" d="M300.71,308.2v52.4a31.4,31.4,0,1,1-62.8,0V308.2Z"/><path class="cls-2" d="M279.51,390.3a31.41,31.41,0,0,1-41.6-29.7V308.2h20.5v52.4a31.3,31.3,0,0,0,21.1,29.7Z"/><path class="cls-2" d="M138.21,264.6a41,41,0,0,1-41-41,39.66,39.66,0,0,1,1-9.1c5.3-23.5,40-19.7,40,4.5h262.2c0-24.1,34.6-28,40-4.5a38.47,38.47,0,0,1,1,9.1,41,41,0,0,1-41,41"/><path class="cls-2" d="M237.91,308.2h62.8v48.3h-62.8Z"/><path class="cls-1" d="M400.41,172.3v72a95.6,95.6,0,0,1-95.6,95.6h-71.1a95.6,95.6,0,0,1-95.6-95.6V173.1c16.3-.5,38.7-3.2,62.8-8.1,49.4-10,106.2-29,132.6-55.4C333.51,109.6,359.61,162.9,400.41,172.3Z"/><path class="cls-2" d="M296.51,339.9h-62.8a95.6,95.6,0,0,1-95.6-95.6V173.1c16.3-.5,38.7-3.2,62.8-8.1v79.3A95.66,95.66,0,0,0,296.51,339.9Z"/><ellipse class="cls-7" cx="346.51" cy="251.1" rx="21.5" ry="13"/><ellipse class="cls-7" cx="192.11" cy="251.1" rx="21.5" ry="13"/><path class="cls-5" d="M436,436.6v39.5h-75.6a17,17,0,0,1-16.7-13.8,16.55,16.55,0,0,1-.3-3.2V436.6Z"/><path class="cls-6" d="M436,462.3v13.8h-75.6a17,17,0,0,1-16.7-13.8Z"/><path class="cls-1" d="M84.61,476.2H112V436.7H54.51v9.5A30.11,30.11,0,0,0,84.61,476.2Z"/><path class="cls-2" d="M54.51,436.6v9.5a30,30,0,0,0,30,30h27.4V462.3H84.61a30.06,30.06,0,0,1-29.7-25.7Z"/><path class="cls-6" d="M102.51,436.6v39.5h75.6a17,17,0,0,0,16.7-13.8,16.55,16.55,0,0,0,.3-3.2V436.6Z"/><path d="M256.51,236.5H282a7.1,7.1,0,1,0,0-14.2h-25.5a7.1,7.1,0,0,0,0,14.2Z"/><path d="M296.91,255.2a7.13,7.13,0,0,0-9.3,3.8,19.82,19.82,0,0,1-36.6,0,7.1,7.1,0,0,0-13.1,5.5,34.1,34.1,0,0,0,62.8,0A7.13,7.13,0,0,0,296.91,255.2Z"/><path d="M484,429.5h-94.7l-4.5-22a66.8,66.8,0,0,0-20.5-36.1h58.4a7.13,7.13,0,0,0,7.1-7.1v-48a7.1,7.1,0,1,0-14.2,0v41h-75a66.83,66.83,0,0,0-22-3.7h-10.9V347a102.83,102.83,0,0,0,96-75.4,49.53,49.53,0,0,0,11.7-2.3v18.8a7.1,7.1,0,0,0,14.2,0V261.8a48,48,0,0,0,18.7-38,46.56,46.56,0,0,0-1.2-10.6,26.74,26.74,0,0,0-17.5-19.9V142.8C429.61,64.1,365.51,0,286.81,0h-35.3c-78.7,0-142.8,64.1-142.8,142.8v50.3c-8.7,2.9-15.3,10.1-17.5,19.9A47.2,47.2,0,0,0,90,223.6a47.8,47.8,0,0,0,18.7,38V364.3a7.13,7.13,0,0,0,7.1,7.1h58.3a67.88,67.88,0,0,0-15.5,21.1,7.05,7.05,0,0,0,3.4,9.4,6.58,6.58,0,0,0,3,.7,7,7,0,0,0,6.4-4.1,53.54,53.54,0,0,1,48.4-30.8h11.5a38.45,38.45,0,0,0,75.6,0h11.5a53.69,53.69,0,0,1,52.3,42.7l5.7,27.6a7.16,7.16,0,0,0,6.9,5.7h45.4v25.4h-68.6a10,10,0,0,1-10-10V436.6a7.1,7.1,0,1,0-14.2,0v22.5a24,24,0,0,0,2.2,10h-138a23.63,23.63,0,0,0,2.2-10V436.6a7.1,7.1,0,0,0-14.2,0v22.5a10,10,0,0,1-10,10h-68.6V443.7h45.4a7,7,0,0,0,6.9-5.7l2.8-13.8a7.1,7.1,0,1,0-13.9-2.9l-1.7,8.1H54.51a7.13,7.13,0,0,0-7.1,7.1V446a37.09,37.09,0,0,0,37.1,37.1h369.4A37.09,37.09,0,0,0,491,446v-9.5a7,7,0,0,0-7-7Zm-90.7-185.2a88.6,88.6,0,0,1-88.5,88.5h-71.1a88.6,88.6,0,0,1-88.5-88.5V179.9c49.5-3,143.1-23.7,186.3-59.1,8.9,15.1,30.7,46.9,61.7,56.9v66.6Zm41-20.7a34,34,0,0,1-27.6,33.3,103.93,103.93,0,0,0,.8-12.6v-9.8c2.2-2.4,7-6.7,12-4.7a7.07,7.07,0,1,0,5.3-13.1,21.89,21.89,0,0,0-17.2.4c.8-7.4,6.6-10.6,11.6-11.2,5.4-.6,12.4,1.7,14.3,10.2A38.23,38.23,0,0,1,434.31,223.6ZM286.91,13.9c70.9,0,128.6,57.7,128.6,128.6v49.6a30.88,30.88,0,0,0-8.1,2.7V172.2a7.07,7.07,0,0,0-5.5-6.9c-36.9-8.5-61.9-58.5-62.1-59a7,7,0,0,0-5.2-3.9,7.08,7.08,0,0,0-6.2,2c-16.4,16.4-48.7,32.1-90.7,44.2-34.1,9.8-73.2,16.6-99.8,17.3A7.09,7.09,0,0,0,131,173v21.8a27.61,27.61,0,0,0-8.1-2.7V142.5c0-70.9,57.7-128.6,128.6-128.6ZM105.11,216.1c1.9-8.5,8.9-10.8,14.3-10.2,5,.6,10.7,3.8,11.6,11.2a21.47,21.47,0,0,0-17.2-.4,7.07,7.07,0,0,0,5.3,13.1c5-2,9.7,2.2,12,4.6v9.8a105.24,105.24,0,0,0,.8,12.6,34,34,0,0,1-27.6-33.3,38.05,38.05,0,0,1,.8-7.4Zm92.8,141.2H123V269.2a50.54,50.54,0,0,0,11.7,2.3,103,103,0,0,0,96.1,75.4v6.6h-10.9A70.59,70.59,0,0,0,197.91,357.3Zm71.4,27.6A24.33,24.33,0,0,1,245,360.6V346.9h48.6v13.7a24.33,24.33,0,0,1-24.3,24.3ZM61.61,446.1v-2.4h33.8v25.4H84.61a23,23,0,0,1-23-23Zm415.3,0A22.9,22.9,0,0,1,454,469h-10.8V443.6H477v2.5Z"/><path d="M346.91,207.5a19.82,19.82,0,0,1-36.6,0,7.1,7.1,0,0,0-13.1,5.5,34.1,34.1,0,0,0,62.8,0,7.1,7.1,0,1,0-13.1-5.5Z"/><path d="M237.61,203.7a7.13,7.13,0,0,0-9.3,3.8,19.82,19.82,0,0,1-36.6,0,7.1,7.1,0,0,0-13.1,5.5,34.1,34.1,0,0,0,62.8,0,7.13,7.13,0,0,0-3.8-9.3Z"/></g><g id="Layer_2-2" data-name="Layer 2"><path class="cls-8" d="M475.51,249.9l-1.7-.2a1.24,1.24,0,0,1-1.1-1.4l.4-3.2a1.24,1.24,0,0,1,1.4-1.1l1.7.2a1.24,1.24,0,0,1,1.1,1.4l-.4,3.2A1.3,1.3,0,0,1,475.51,249.9Z"/><path class="cls-9" d="M452.81,420.7l-2.1-.3a2.63,2.63,0,0,1-2.3-3l.3-1.9a2.63,2.63,0,0,1,3-2.3l2.1.3a2.63,2.63,0,0,1,2.3,3l-.3,1.9A2.63,2.63,0,0,1,452.81,420.7Z"/><path class="cls-10" d="M10.21,260.7l20.3,118.6a1.39,1.39,0,0,1-1.1,1.6l-5.9,1a1.39,1.39,0,0,1-1.6-1.1L1.51,262.2a1.39,1.39,0,0,1,1.1-1.6l5.9-1A1.39,1.39,0,0,1,10.21,260.7Z"/><path class="cls-11" d="M73.31,217l31.1,181.6a3.7,3.7,0,0,1-2.9,4.2l-61.6,10.5a3.7,3.7,0,0,1-4.2-2.9L4.61,228.7a3.7,3.7,0,0,1,2.9-4.2l61.6-10.4A3.55,3.55,0,0,1,73.31,217Z"/><path class="cls-12" d="M76.21,256.5l18.2,106.2a1.39,1.39,0,0,1-1.1,1.6l-9.4,1.6a1.9,1.9,0,0,1-2.2-1.6L63.61,258.7a1.9,1.9,0,0,1,1.6-2.2l8.9-1.5A1.76,1.76,0,0,1,76.21,256.5Z"/><path class="cls-13" d="M95.41,368.3l2.1,12.1a1.39,1.39,0,0,1-1.1,1.6l-9.9,1.7a1.39,1.39,0,0,1-1.6-1.1l-2.1-12.1a1.39,1.39,0,0,1,1.1-1.6l9.9-1.7A1.34,1.34,0,0,1,95.41,368.3Z"/><path class="cls-13" d="M73.11,238.1l2.1,12.1a1.39,1.39,0,0,1-1.1,1.6l-9.9,1.7a1.39,1.39,0,0,1-1.6-1.1l-2.1-12.1a1.39,1.39,0,0,1,1.1-1.6l9.9-1.7A1.39,1.39,0,0,1,73.11,238.1Z"/><path class="cls-14" d="M49.71,394.4l2.1,12.1a1.39,1.39,0,0,1-1.1,1.6l-9.9,1.7a1.39,1.39,0,0,1-1.6-1.1l-2.1-12.1a1.39,1.39,0,0,1,1.1-1.6l9.9-1.7A1.39,1.39,0,0,1,49.71,394.4Z"/><path class="cls-13" d="M64.81,388.1l2.7,15.8a1.39,1.39,0,0,1-1.1,1.6l-9.9,1.7a1.39,1.39,0,0,1-1.6-1.1l-2.7-15.8a1.39,1.39,0,0,1,1.1-1.6l9.9-1.7A1.51,1.51,0,0,1,64.81,388.1Z"/><path class="cls-13" d="M79.91,382.4l3.2,18.8a1.39,1.39,0,0,1-1.1,1.6l-9.9,1.7a1.39,1.39,0,0,1-1.6-1.1l-3.2-18.8a1.39,1.39,0,0,1,1.1-1.6l9.9-1.7A1.36,1.36,0,0,1,79.91,382.4Z"/><path class="cls-14" d="M23.11,239.1,21,227a1.3,1.3,0,0,0-1.6-1.1l-9.9,1.7a1.3,1.3,0,0,0-1.1,1.6l2.1,12.1a1.3,1.3,0,0,0,1.6,1.1l9.9-1.7A1.42,1.42,0,0,0,23.11,239.1Z"/><path class="cls-13" d="M40.51,246.1l-3.8-21.9a1.3,1.3,0,0,0-1.6-1.1l-9.9,1.7a1.3,1.3,0,0,0-1.1,1.6l3.7,21.9a1.3,1.3,0,0,0,1.6,1.1l9.9-1.7A1.38,1.38,0,0,0,40.51,246.1Z"/><path class="cls-13" d="M55.61,240.4l-3.2-18.8a1.3,1.3,0,0,0-1.6-1.1l-9.9,1.7a1.3,1.3,0,0,0-1.1,1.6L43,242.6a1.3,1.3,0,0,0,1.6,1.1l9.9-1.7A1.51,1.51,0,0,0,55.61,240.4Z"/><path class="cls-14" d="M56.81,247.6l2.1,12.1a1.39,1.39,0,0,1-1.1,1.6l-9.9,1.7a1.39,1.39,0,0,1-1.6-1.1l-2.1-12.1a1.39,1.39,0,0,1,1.1-1.6l9.9-1.7A1.32,1.32,0,0,1,56.81,247.6Z"/><path class="cls-14" d="M60.11,266.9l2.1,12.1a1.39,1.39,0,0,1-1.1,1.6l-9.9,1.7a1.39,1.39,0,0,1-1.6-1.1l-2.1-12.1a1.39,1.39,0,0,1,1.1-1.6l9.9-1.7A1.32,1.32,0,0,1,60.11,266.9Z"/><path class="cls-14" d="M63.51,286.5l2.1,12.1a1.39,1.39,0,0,1-1.1,1.6l-9.9,1.7a1.39,1.39,0,0,1-1.6-1.1l-2.1-12.1a1.39,1.39,0,0,1,1.1-1.6l9.9-1.7A1.3,1.3,0,0,1,63.51,286.5Z"/><path class="cls-14" d="M66.81,305.8l2.1,12.1a1.39,1.39,0,0,1-1.1,1.6l-9.9,1.7a1.39,1.39,0,0,1-1.6-1.1L54.21,308a1.39,1.39,0,0,1,1.1-1.6l9.9-1.7A1.3,1.3,0,0,1,66.81,305.8Z"/><path class="cls-14" d="M70,324.7l2.1,12.1a1.39,1.39,0,0,1-1.1,1.6l-9.9,1.7a1.39,1.39,0,0,1-1.6-1.1l-2.1-12.1a1.39,1.39,0,0,1,1.1-1.6l9.9-1.7A1.26,1.26,0,0,1,70,324.7Z"/><path class="cls-14" d="M73.41,344.2l2.1,12.1a1.39,1.39,0,0,1-1.1,1.6l-9.9,1.7a1.39,1.39,0,0,1-1.6-1.1l-2.1-12.1a1.39,1.39,0,0,1,1.1-1.6l9.9-1.7A1.51,1.51,0,0,1,73.41,344.2Z"/><path class="cls-14" d="M76.71,363.5l2.1,12.1a1.39,1.39,0,0,1-1.1,1.6l-9.9,1.7a1.39,1.39,0,0,1-1.6-1.1l-2.1-12.1a1.39,1.39,0,0,1,1.1-1.6l9.9-1.7A1.51,1.51,0,0,1,76.71,363.5Z"/><path class="cls-14" d="M41.81,253.7l2.1,12.1a1.39,1.39,0,0,1-1.1,1.6l-9.9,1.7a1.39,1.39,0,0,1-1.6-1.1l-2.1-12.1a1.39,1.39,0,0,1,1.1-1.6l9.9-1.7A1.34,1.34,0,0,1,41.81,253.7Z"/><path class="cls-14" d="M45.11,273l2.1,12.1a1.39,1.39,0,0,1-1.1,1.6l-9.9,1.7a1.39,1.39,0,0,1-1.6-1.1l-2.2-12.2a1.39,1.39,0,0,1,1.1-1.6l9.9-1.7A1.54,1.54,0,0,1,45.11,273Z"/><path class="cls-14" d="M48.41,292.6l2.1,12.1a1.39,1.39,0,0,1-1.1,1.6l-9.9,1.7a1.39,1.39,0,0,1-1.6-1.1l-2.1-12.1a1.39,1.39,0,0,1,1.1-1.6l9.9-1.7A1.3,1.3,0,0,1,48.41,292.6Z"/><path class="cls-14" d="M51.71,311.9l2.1,12.1a1.39,1.39,0,0,1-1.1,1.6l-9.9,1.7a1.39,1.39,0,0,1-1.6-1.1l-2.1-12.1a1.39,1.39,0,0,1,1.1-1.6l9.9-1.7A1.26,1.26,0,0,1,51.71,311.9Z"/><path class="cls-14" d="M54.91,330.7,57,342.8a1.39,1.39,0,0,1-1.1,1.6L46,346.1a1.39,1.39,0,0,1-1.6-1.1l-2.1-12.1a1.39,1.39,0,0,1,1.1-1.6l9.9-1.7A1.39,1.39,0,0,1,54.91,330.7Z"/><path class="cls-14" d="M58.31,350.3l2.1,12.1a1.39,1.39,0,0,1-1.1,1.6l-9.9,1.7a1.39,1.39,0,0,1-1.6-1.1l-2.1-12.1a1.39,1.39,0,0,1,1.1-1.6l9.9-1.7A1.36,1.36,0,0,1,58.31,350.3Z"/><path class="cls-14" d="M61.61,369.6l2.1,12.1a1.39,1.39,0,0,1-1.1,1.6l-9.9,1.8a1.39,1.39,0,0,1-1.6-1.1L49,371.9a1.39,1.39,0,0,1,1.1-1.6l9.9-1.7A1.24,1.24,0,0,1,61.61,369.6Z"/><path class="cls-14" d="M24.51,244.7l2.1,12.1a1.39,1.39,0,0,1-1.1,1.6l-9.9,1.7A1.39,1.39,0,0,1,14,259l-2.1-12.1a1.39,1.39,0,0,1,1.1-1.6l9.9-1.7A1.3,1.3,0,0,1,24.51,244.7Z"/><path class="cls-14" d="M27.71,263.5l2.1,12.1a1.39,1.39,0,0,1-1.1,1.6l-9.9,1.7a1.39,1.39,0,0,1-1.6-1.1l-2.1-12.1a1.39,1.39,0,0,1,1.1-1.6l9.9-1.7A1.32,1.32,0,0,1,27.71,263.5Z"/><path class="cls-14" d="M30.91,282.4,33,294.5a1.39,1.39,0,0,1-1.1,1.6L22,297.8a1.39,1.39,0,0,1-1.6-1.1l-2.1-12.1a1.39,1.39,0,0,1,1.1-1.6l9.9-1.7A1.26,1.26,0,0,1,30.91,282.4Z"/><path class="cls-14" d="M34.21,301.2l2.1,12.1a1.39,1.39,0,0,1-1.1,1.6l-9.9,1.7a1.39,1.39,0,0,1-1.6-1.1l-2.1-12.1a1.39,1.39,0,0,1,1.1-1.6l9.9-1.7A1.34,1.34,0,0,1,34.21,301.2Z"/><path class="cls-14" d="M37.41,320l2.1,12.1a1.39,1.39,0,0,1-1.1,1.6l-9.9,1.7a1.39,1.39,0,0,1-1.6-1.1l-2.1-12.1a1.39,1.39,0,0,1,1.1-1.6l9.9-1.7A1.44,1.44,0,0,1,37.41,320Z"/><path class="cls-14" d="M40.61,338.9l2.1,12.1a1.39,1.39,0,0,1-1.1,1.6l-9.9,1.7a1.39,1.39,0,0,1-1.6-1.1L28,341.1a1.39,1.39,0,0,1,1.1-1.6l9.9-1.7A1.26,1.26,0,0,1,40.61,338.9Z"/><path class="cls-14" d="M43.81,357.7l2.1,12.1a1.39,1.39,0,0,1-1.1,1.6l-9.9,1.7a1.39,1.39,0,0,1-1.6-1.1l-2.1-12.1a1.39,1.39,0,0,1,1.1-1.6l9.9-1.7A1.26,1.26,0,0,1,43.81,357.7Z"/><path class="cls-14" d="M47.11,376.5l2.1,12.1a1.39,1.39,0,0,1-1.1,1.6l-9.9,1.7a1.39,1.39,0,0,1-1.6-1.1l-2.1-12.1a1.39,1.39,0,0,1,1.1-1.6l9.9-1.7A1.51,1.51,0,0,1,47.11,376.5Z"/><circle class="cls-15" cx="13.01" cy="262.4" r="1.1"/></g><g id="Layer_3" data-name="Layer 3"><path class="cls-16" d="M456.11,413.8l-6.8-.9c-3.5-.5-5.1-2.6-4.6-6l15.5-137.1c.5-3.5,6.5-20.3,10-19.8l8.7,1.2c3.5.5,4.9,18.3,4.4,21.8l-21.1,136.3C461.71,412.7,459.61,414.3,456.11,413.8Z"/><path class="cls-17" d="M467.81,309.9l-2.4-.3a1.3,1.3,0,0,1-1.1-1.6l3.1-14,.7-14.3a1.32,1.32,0,0,1,1.5-1.3l2.4.3a1.3,1.3,0,0,1,1.1,1.6l-3.1,14-.7,14.3A1.32,1.32,0,0,1,467.81,309.9Z"/><line class="cls-18" x1="460.41" y1="268.8" x2="483.21" y2="271.8"/><line class="cls-18" x1="445.01" y1="404.1" x2="462.61" y2="406.5"/></g></g></g></svg>